<svg width="80" height="80" viewBox="0 0 80 80" fill="none" xmlns="http://www.w3.org/2000/svg" xmlns:xlink="http://www.w3.org/1999/xlink">
<path d="M65.338,65.338L64.632,64.629L64.631,64.631L65.338,65.338ZM15.368,64.631C14.978,64.24 14.344,64.24 13.954,64.631C13.563,65.021 13.563,65.654 13.954,66.045L15.368,64.631ZM66.044,13.953C65.653,13.563 65.02,13.564 64.63,13.955C64.24,14.346 64.241,14.979 64.632,15.369L66.044,13.953ZM74.833,39.998C74.832,40.55 75.279,40.999 75.831,40.999C76.384,41 76.832,40.553 76.833,40.001L74.833,39.998ZM39.999,4.166L40.059,3.168C40.039,3.167 40.019,3.166 39.999,3.166L39.999,4.166ZM27.083,39.999C27.083,40.552 27.53,40.999 28.083,40.999C28.635,40.999 29.083,40.552 29.083,39.999L27.083,39.999ZM39.999,28.083L39.999,29.083C40.552,29.083 40.999,28.635 40.999,28.083L39.999,28.083ZM39.999,51.916L40.999,51.916C40.999,51.364 40.552,50.916 39.999,50.916L39.999,51.916ZM32.28,47.719C31.889,47.328 31.256,47.328 30.866,47.719C30.475,48.109 30.475,48.743 30.866,49.133L32.28,47.719ZM49.133,30.866C48.743,30.475 48.109,30.475 47.719,30.866C47.328,31.256 47.328,31.889 47.719,32.28L49.133,30.866ZM47.719,47.719C47.328,48.109 47.328,48.743 47.719,49.133C48.109,49.524 48.743,49.524 49.133,49.133L47.719,47.719ZM22.409,22.409C22.018,22.799 22.018,23.432 22.409,23.823C22.799,24.214 23.432,24.214 23.823,23.823L22.409,22.409ZM56.883,23.118L56.176,23.825C56.363,24.012 56.618,24.118 56.883,24.118C57.148,24.118 57.402,24.012 57.59,23.825L56.883,23.118ZM16.124,39.999L16.124,40.999C16.677,40.999 17.124,40.552 17.124,39.999L16.124,39.999ZM18.922,31.096C19.137,30.587 18.9,30.001 18.391,29.785C17.883,29.57 17.296,29.807 17.08,30.316L18.922,31.096ZM39.999,63.874L40.001,64.874C40.552,64.874 40.999,64.426 40.999,63.874L39.999,63.874ZM23.824,56.175C23.434,55.784 22.801,55.783 22.41,56.173C22.019,56.563 22.018,57.196 22.408,57.587L23.824,56.175ZM63.874,39.999L64.874,39.998C64.874,39.446 64.426,38.999 63.874,38.999L63.874,39.999ZM56.175,56.175C55.784,56.565 55.783,57.198 56.173,57.589C56.563,57.98 57.196,57.981 57.587,57.591L56.175,56.175ZM23.825,57.588C24.215,57.198 24.215,56.564 23.825,56.174C23.434,55.783 22.801,55.783 22.411,56.174L23.825,57.588ZM13.959,64.626C13.568,65.016 13.568,65.649 13.959,66.04C14.349,66.43 14.983,66.43 15.373,66.04L13.959,64.626ZM66.035,15.378C66.425,14.987 66.425,14.354 66.035,13.964C65.644,13.573 65.011,13.573 64.621,13.964L66.035,15.378ZM22.426,23.84C22.816,24.23 23.449,24.23 23.84,23.84C24.23,23.449 24.23,22.816 23.84,22.426L22.426,23.84ZM15.373,13.959C14.983,13.568 14.349,13.568 13.959,13.959C13.568,14.349 13.568,14.983 13.959,15.373L15.373,13.959ZM5.731,53.528C5.934,54.042 6.515,54.294 7.028,54.091C7.542,53.888 7.794,53.307 7.591,52.794L5.731,53.528ZM52.56,8.374C53.061,8.607 53.656,8.391 53.889,7.89C54.122,7.39 53.906,6.795 53.405,6.561L52.56,8.374ZM73.799,54.664C74.018,54.157 73.786,53.568 73.279,53.349C72.772,53.129 72.183,53.361 71.964,53.868L73.799,54.664ZM57.553,56.139C57.163,55.748 56.529,55.748 56.139,56.139C55.748,56.529 55.748,57.163 56.139,57.553L57.553,56.139ZM64.612,66.026C65.003,66.417 65.636,66.417 66.026,66.026C66.417,65.636 66.417,65.003 66.026,64.612L64.612,66.026ZM64.631,64.631C58.327,70.934 49.619,74.833 39.999,74.833L39.999,76.833C50.17,76.833 59.382,72.708 66.045,66.045L64.631,64.631ZM39.999,74.833C30.38,74.833 21.673,70.936 15.368,64.631L13.954,66.045C20.619,72.71 29.829,76.833 39.999,76.833L39.999,74.833ZM64.632,15.369C67.871,18.6 70.44,22.439 72.19,26.665L74.038,25.9C72.187,21.43 69.47,17.37 66.044,13.953L64.632,15.369ZM72.19,26.665C73.941,30.892 74.839,35.423 74.833,39.998L76.833,40.001C76.839,35.162 75.89,30.37 74.038,25.9L72.19,26.665ZM5.166,39.999C5.166,20.762 20.762,5.166 39.999,5.166L39.999,3.166C19.657,3.166 3.166,19.657 3.166,39.999L5.166,39.999ZM29.083,39.999C29.083,36.985 30.303,34.256 32.28,32.28L30.866,30.866C28.529,33.202 27.083,36.434 27.083,39.999L29.083,39.999ZM32.28,32.28C34.257,30.303 36.985,29.083 39.999,29.083L39.999,27.083C36.434,27.083 33.202,28.529 30.866,30.866L32.28,32.28ZM39.999,50.916C36.985,50.916 34.257,49.696 32.28,47.719L30.866,49.133C33.202,51.47 36.434,52.916 39.999,52.916L39.999,50.916ZM47.719,32.28C49.696,34.256 50.916,36.985 50.916,39.999L52.916,39.999C52.916,36.434 51.47,33.202 49.133,30.866L47.719,32.28ZM50.916,39.999C50.916,43.014 49.696,45.742 47.719,47.719L49.133,49.133C51.47,46.796 52.916,43.565 52.916,39.999L50.916,39.999ZM23.823,23.823C27.965,19.683 33.682,17.124 39.999,17.124L39.999,15.124C33.13,15.124 26.911,17.909 22.409,22.409L23.823,23.823ZM39.999,17.124C46.317,17.124 52.034,19.683 56.176,23.825L57.59,22.411C53.088,17.909 46.869,15.124 39.999,15.124L39.999,17.124ZM17.124,39.999C17.124,36.839 17.763,33.831 18.922,31.096L17.08,30.316C15.819,33.294 15.124,36.567 15.124,39.999L17.124,39.999ZM39.998,62.874C36.994,62.878 34.018,62.289 31.242,61.139L30.477,62.987C33.496,64.237 36.733,64.879 40.001,64.874L39.998,62.874ZM31.242,61.139C28.467,59.989 25.946,58.302 23.824,56.175L22.408,57.587C24.716,59.901 27.458,61.736 30.477,62.987L31.242,61.139ZM62.874,40.001C62.878,43.005 62.289,45.981 61.139,48.756L62.987,49.522C64.237,46.502 64.879,43.266 64.874,39.998L62.874,40.001ZM61.139,48.756C59.989,51.532 58.302,54.053 56.175,56.175L57.587,57.591C59.901,55.283 61.736,52.541 62.987,49.522L61.139,48.756ZM38.999,51.916L38.999,63.874L40.999,63.874L40.999,51.916L38.999,51.916ZM22.411,56.174L13.959,64.626L15.373,66.04L23.825,57.588L22.411,56.174ZM40.999,28.083L40.999,16.124L38.999,16.124L38.999,28.083L40.999,28.083ZM57.59,23.825L66.035,15.378L64.621,13.964L56.176,22.411L57.59,23.825ZM51.916,40.999L63.874,40.999L63.874,38.999L51.916,38.999L51.916,40.999ZM16.124,38.999L4.166,38.999L4.166,40.999L16.124,40.999L16.124,38.999ZM23.84,22.426L15.373,13.959L13.959,15.373L22.426,23.84L23.84,22.426ZM7.591,52.794C5.982,48.721 5.159,44.38 5.166,40.001L3.166,39.998C3.159,44.63 4.029,49.221 5.731,53.528L7.591,52.794ZM39.939,5.164C44.189,5.42 48.464,6.465 52.56,8.374L53.405,6.561C49.078,4.544 44.556,3.439 40.059,3.168L39.939,5.164ZM71.964,53.868C70.221,57.886 67.733,61.538 64.632,64.629L66.044,66.046C69.324,62.776 71.956,58.914 73.799,54.664L71.964,53.868ZM56.139,57.553L64.612,66.026L66.026,64.612L57.553,56.139L56.139,57.553Z" fill="#ABDCD8"/>
<path d="M42.333,39.999C42.333,41.288 41.288,42.333 39.999,42.333L39.999,44.333C42.393,44.333 44.333,42.393 44.333,39.999L42.333,39.999ZM39.999,42.333C38.711,42.333 37.666,41.288 37.666,39.999L35.666,39.999C35.666,42.393 37.606,44.333 39.999,44.333L39.999,42.333ZM37.666,39.999C37.666,38.711 38.711,37.666 39.999,37.666L39.999,35.666C37.606,35.666 35.666,37.606 35.666,39.999L37.666,39.999ZM39.999,37.666C41.288,37.666 42.333,38.711 42.333,39.999L44.333,39.999C44.333,37.606 42.393,35.666 39.999,35.666L39.999,37.666Z" fill="#ABDCD8"/>
</svg>
