<svg width="48" height="50" viewBox="0 0 48 50" fill="none" xmlns="http://www.w3.org/2000/svg" xmlns:xlink="http://www.w3.org/1999/xlink">
<path d="M24,33.807C22.22,33.807 20.48,33.28 19,32.291C17.52,31.302 16.366,29.896 15.685,28.252C15.004,26.607 14.826,24.798 15.173,23.052C15.52,21.306 16.377,19.702 17.636,18.444C18.895,17.185 20.498,16.328 22.244,15.98C23.99,15.633 25.8,15.811 27.444,16.493C29.089,17.174 30.494,18.327 31.483,19.807C32.472,21.287 33,23.027 33,24.807C33.013,25.993 32.789,27.169 32.341,28.267C31.893,29.365 31.231,30.362 30.393,31.2C29.554,32.038 28.557,32.701 27.459,33.149C26.362,33.596 25.185,33.82 24,33.807L24,33.807ZM24,18.807C23.207,18.789 22.419,18.932 21.683,19.227C20.947,19.523 20.278,19.964 19.717,20.525C19.156,21.085 18.715,21.754 18.42,22.49C18.125,23.226 17.982,24.015 18,24.807C17.982,25.6 18.125,26.389 18.42,27.125C18.715,27.861 19.156,28.53 19.717,29.09C20.278,29.651 20.947,30.092 21.683,30.388C22.419,30.683 23.207,30.826 24,30.807C24.793,30.826 25.581,30.683 26.317,30.388C27.053,30.092 27.722,29.651 28.283,29.09C28.844,28.53 29.285,27.861 29.58,27.125C29.875,26.389 30.018,25.6 30,24.807C30.018,24.015 29.875,23.226 29.58,22.49C29.285,21.754 28.844,21.085 28.283,20.525C27.722,19.964 27.053,19.523 26.317,19.227C25.581,18.932 24.793,18.789 24,18.807L24,18.807Z" fill="#000000"/>
<path d="M43.957,17.373L40.417,11.241C40.071,10.64 39.526,10.178 38.877,9.933C38.228,9.689 37.513,9.677 36.856,9.9L33.205,11.135C32.576,10.711 31.919,10.331 31.237,9.998L30.483,6.219C30.347,5.539 29.979,4.927 29.443,4.487C28.906,4.047 28.234,3.807 27.54,3.807L20.46,3.807C19.766,3.807 19.094,4.047 18.557,4.487C18.02,4.927 17.653,5.539 17.517,6.219L16.762,9.998C16.073,10.328 15.408,10.705 14.772,11.127L11.142,9.9C10.485,9.678 9.772,9.69 9.123,9.935C8.474,10.179 7.93,10.641 7.584,11.241L4.044,17.373C3.697,17.974 3.569,18.676 3.681,19.36C3.794,20.044 4.14,20.669 4.66,21.126L7.557,23.672C7.531,24.05 7.5,24.425 7.5,24.807C7.5,25.194 7.515,25.577 7.542,25.956L4.662,28.488C4.141,28.946 3.794,29.57 3.681,30.254C3.568,30.938 3.696,31.641 4.042,32.241L7.582,38.373C7.929,38.975 8.473,39.438 9.122,39.682C9.772,39.927 10.486,39.939 11.143,39.716L14.794,38.48C15.423,38.904 16.081,39.285 16.762,39.618L17.517,43.395C17.653,44.076 18.02,44.688 18.557,45.128C19.094,45.567 19.766,45.808 20.46,45.807L27,45.807L27,42.807L20.46,42.807L19.395,37.482C17.921,36.935 16.554,36.137 15.352,35.124L10.182,36.873L6.642,30.741L10.729,27.149C10.45,25.598 10.446,24.009 10.719,22.457L6.642,18.873L10.182,12.741L15.322,14.481C16.532,13.467 17.911,12.672 19.395,12.132L20.46,6.807L27.54,6.807L28.605,12.132C30.078,12.68 31.446,13.478 32.647,14.49L37.818,12.741L41.358,18.873L37.161,22.551L39.138,24.807L43.338,21.126C43.859,20.669 44.205,20.045 44.318,19.361C44.431,18.676 44.304,17.974 43.957,17.373L43.957,17.373Z" fill="#000000"/>
<path d="M34.5,40.078L30.615,36.193L28.5,38.308L34.5,44.308L45,33.808L42.885,31.693L34.5,40.078Z" fill="#000000"/>
</svg>
