<svg width="50" height="48" viewBox="0 0 50 48" fill="none" xmlns="http://www.w3.org/2000/svg" xmlns:xlink="http://www.w3.org/1999/xlink">
<path d="M24.467,33C22.687,33 20.947,32.472 19.467,31.483C17.987,30.494 16.833,29.089 16.152,27.444C15.471,25.8 15.292,23.99 15.64,22.244C15.987,20.498 16.844,18.895 18.103,17.636C19.362,16.377 20.965,15.52 22.711,15.173C24.457,14.826 26.266,15.004 27.911,15.685C29.555,16.366 30.961,17.52 31.95,19C32.939,20.48 33.467,22.22 33.467,24C33.48,25.185 33.256,26.362 32.808,27.459C32.36,28.557 31.698,29.554 30.859,30.393C30.021,31.231 29.024,31.893 27.926,32.341C26.828,32.789 25.652,33.013 24.467,33L24.467,33ZM24.467,18C23.674,17.982 22.886,18.125 22.15,18.42C21.413,18.715 20.745,19.156 20.184,19.717C19.623,20.278 19.182,20.947 18.887,21.683C18.592,22.419 18.449,23.207 18.467,24C18.449,24.793 18.592,25.581 18.887,26.317C19.182,27.053 19.623,27.722 20.184,28.283C20.745,28.844 21.413,29.285 22.15,29.58C22.886,29.875 23.674,30.018 24.467,30C25.26,30.018 26.048,29.875 26.784,29.58C27.52,29.285 28.189,28.844 28.75,28.283C29.31,27.722 29.752,27.053 30.047,26.317C30.342,25.581 30.485,24.793 30.467,24C30.485,23.207 30.342,22.419 30.047,21.683C29.752,20.947 29.31,20.278 28.75,19.717C28.189,19.156 27.52,18.715 26.784,18.42C26.048,18.125 25.26,17.982 24.467,18L24.467,18Z" fill="#000000"/>
<path d="M44.424,16.566L40.884,10.434C40.538,9.833 39.993,9.37 39.344,9.126C38.694,8.881 37.98,8.87 37.323,9.093L33.672,10.327C33.043,9.904 32.385,9.524 31.704,9.191L30.95,5.412C30.814,4.732 30.446,4.119 29.909,3.68C29.373,3.24 28.7,3 28.007,3L20.927,3C20.233,3 19.56,3.24 19.024,3.68C18.487,4.119 18.12,4.732 17.984,5.412L17.229,9.191C16.54,9.52 15.875,9.898 15.239,10.32L11.609,9.093C10.952,8.87 10.238,8.883 9.59,9.127C8.941,9.372 8.397,9.833 8.051,10.434L4.511,16.566C4.164,17.166 4.036,17.868 4.148,18.553C4.26,19.237 4.606,19.861 5.127,20.319L8.024,22.865C7.998,23.243 7.967,23.618 7.967,24C7.967,24.387 7.982,24.77 8.009,25.149L5.129,27.681C4.607,28.139 4.261,28.763 4.148,29.447C4.035,30.131 4.163,30.833 4.509,31.434L8.049,37.566C8.395,38.167 8.94,38.63 9.589,38.875C10.239,39.12 10.953,39.132 11.61,38.909L15.261,37.673C15.89,38.097 16.548,38.477 17.229,38.811L17.984,42.588C18.12,43.268 18.487,43.881 19.024,44.32C19.56,44.76 20.233,45 20.927,45L27.467,45L27.467,42L20.927,42L19.862,36.675C18.388,36.128 17.021,35.33 15.819,34.317L10.649,36.066L7.109,29.934L11.196,26.342C10.916,24.79 10.913,23.202 11.186,21.649L7.109,18.066L10.649,11.934L15.789,13.674C16.999,12.66 18.378,11.865 19.862,11.325L20.927,6L28.007,6L29.072,11.325C30.545,11.872 31.912,12.67 33.114,13.683L38.285,11.934L41.825,18.066L37.628,21.744L39.605,24L43.805,20.319C44.326,19.861 44.672,19.237 44.785,18.553C44.898,17.869 44.771,17.167 44.424,16.566L44.424,16.566Z" fill="#000000"/>
<path d="M34.967,39.27L31.082,35.385L28.967,37.5L34.967,43.5L45.467,33L43.352,30.885L34.967,39.27Z" fill="#000000"/>
</svg>
