<svg width="72" height="72" viewBox="0 0 72 72" fill="none" xmlns="http://www.w3.org/2000/svg" xmlns:xlink="http://www.w3.org/1999/xlink">
<path d="M64.501,12L58.001,12L58.001,16L64.001,16L64.001,60L8.001,60L8.001,16L14.001,16L14.001,12L7.501,12C7.033,12.008 6.572,12.108 6.143,12.294C5.714,12.48 5.326,12.749 5.001,13.085C4.676,13.421 4.42,13.818 4.248,14.253C4.077,14.688 3.993,15.152 4.001,15.62L4.001,60.38C3.993,60.848 4.077,61.312 4.248,61.747C4.42,62.182 4.676,62.579 5.001,62.915C5.326,63.251 5.714,63.52 6.143,63.706C6.572,63.892 7.033,63.992 7.501,64L64.501,64C64.968,63.992 65.429,63.892 65.858,63.706C66.287,63.52 66.675,63.251 67,62.915C67.325,62.579 67.581,62.182 67.753,61.747C67.924,61.312 68.008,60.848 68.001,60.38L68.001,15.62C68.008,15.152 67.924,14.688 67.753,14.253C67.581,13.818 67.325,13.421 67,13.085C66.675,12.749 66.287,12.48 65.858,12.294C65.429,12.108 64.968,12.008 64.501,12Z" fill="#000000"/>
<rect  x="16" y="28" width="4" height="4" fill="#000000"/>
<rect  x="28" y="28" width="4" height="4" fill="#000000"/>
<rect  x="40" y="28" width="4" height="4" fill="#000000"/>
<rect  x="52" y="28" width="4" height="4" fill="#000000"/>
<rect  x="16" y="38" width="4" height="4" fill="#000000"/>
<rect  x="28" y="38" width="4" height="4" fill="#000000"/>
<rect  x="40" y="38" width="4" height="4" fill="#000000"/>
<rect  x="52" y="38" width="4" height="4" fill="#000000"/>
<rect  x="16" y="48" width="4" height="4" fill="#000000"/>
<rect  x="28" y="48" width="4" height="4" fill="#000000"/>
<rect  x="40" y="48" width="4" height="4" fill="#000000"/>
<rect  x="52" y="48" width="4" height="4" fill="#000000"/>
<path d="M20,20C20.53,20 21.039,19.789 21.414,19.414C21.789,19.039 22,18.53 22,18L22,6C22,5.47 21.789,4.961 21.414,4.586C21.039,4.211 20.53,4 20,4C19.47,4 18.961,4.211 18.586,4.586C18.211,4.961 18,5.47 18,6L18,18C18,18.53 18.211,19.039 18.586,19.414C18.961,19.789 19.47,20 20,20Z" fill="#000000"/>
<path d="M52,20C52.53,20 53.039,19.789 53.414,19.414C53.789,19.039 54,18.53 54,18L54,6C54,5.47 53.789,4.961 53.414,4.586C53.039,4.211 52.53,4 52,4C51.47,4 50.961,4.211 50.586,4.586C50.211,4.961 50,5.47 50,6L50,18C50,18.53 50.211,19.039 50.586,19.414C50.961,19.789 51.47,20 52,20Z" fill="#000000"/>
<rect  x="26" y="12" width="20" height="4" fill="#000000"/>
</svg>
