<svg width="30" height="34" viewBox="0 0 30 34" fill="none" xmlns="http://www.w3.org/2000/svg" xmlns:xlink="http://www.w3.org/1999/xlink">
<path d="M30,30.574C30,31.567 29.042,32.373 27.857,32.373C26.672,32.373 25.714,31.567 25.714,30.574C25.714,25.616 20.908,21.582 15,21.582C9.092,21.582 4.286,25.616 4.286,30.574C4.286,31.567 3.328,32.373 2.143,32.373C0.958,32.373 0,31.567 0,30.574C0,23.632 6.731,17.985 15,17.985C23.269,17.985 30,23.632 30,30.574M15,3.597C17.364,3.597 19.286,5.21 19.286,7.194C19.286,9.178 17.364,10.791 15,10.791C12.636,10.791 10.714,9.178 10.714,7.194C10.714,5.21 12.636,3.597 15,3.597M15,14.388C19.727,14.388 23.571,11.161 23.571,7.194C23.571,3.226 19.727,0 15,0C10.273,0 6.429,3.226 6.429,7.194C6.429,11.161 10.273,14.388 15,14.388Z" clip-rule="evenodd" fill-rule="evenodd" fill="#FFFFFF"/>
</svg>
