<svg width="40" height="36" viewBox="0 0 40 36" fill="none" xmlns="http://www.w3.org/2000/svg" xmlns:xlink="http://www.w3.org/1999/xlink">
<path d="M40,32C40,33.104 39.106,34 38,34C36.894,34 36,33.104 36,32C36,28.692 33.308,26 30,26C28.634,26 27.336,26.468 26.288,27.298C27.376,29.29 28,31.574 28,34C28,35.104 27.106,36 26,36C24.894,36 24,35.104 24,34C24,28.486 19.514,24 14,24C8.486,24 4,28.486 4,34C4,35.104 3.106,36 2,36C0.894,36 0,35.104 0,34C0,26.28 6.282,20 14,20C17.854,20 21.346,21.566 23.88,24.092C25.618,22.748 27.758,22 30,22C35.514,22 40,26.486 40,32M30,12C31.104,12 32,12.898 32,14C32,15.102 31.104,16 30,16C28.896,16 28,15.102 28,14C28,12.898 28.896,12 30,12M30,20C33.308,20 36,17.308 36,14C36,10.692 33.308,8 30,8C26.692,8 24,10.692 24,14C24,17.308 26.692,20 30,20M14,4C16.206,4 18,5.794 18,8C18,10.206 16.206,12 14,12C11.794,12 10,10.206 10,8C10,5.794 11.794,4 14,4M14,16C18.412,16 22,12.412 22,8C22,3.588 18.412,0 14,0C9.588,0 6,3.588 6,8C6,12.412 9.588,16 14,16Z" clip-rule="evenodd" fill-rule="evenodd" fill="#000000"/>
</svg>
