<svg width="60" height="54" viewBox="0 0 60 54" fill="none" xmlns="http://www.w3.org/2000/svg" xmlns:xlink="http://www.w3.org/1999/xlink">
<path d="M27,48C25.344,48 24,46.656 24,45C24,43.344 25.344,42 27,42C28.656,42 30,43.344 30,45C30,46.656 28.656,48 27,48M57,42L35.445,42C34.203,38.517 30.906,36 27,36C23.094,36 19.797,38.517 18.555,42L3,42C1.341,42 0,43.341 0,45C0,46.659 1.341,48 3,48L18.555,48C19.797,51.483 23.094,54 27,54C30.906,54 34.203,51.483 35.445,48L57,48C58.659,48 60,46.659 60,45C60,43.341 58.659,42 57,42M51,30C49.344,30 48,28.656 48,27C48,25.344 49.344,24 51,24C52.656,24 54,25.344 54,27C54,28.656 52.656,30 51,30M51,18C47.094,18 43.797,20.517 42.555,24L3,24C1.341,24 0,25.341 0,27C0,28.659 1.341,30 3,30L42.555,30C43.797,33.483 47.094,36 51,36C55.962,36 60,31.962 60,27C60,22.038 55.962,18 51,18M15,6C16.656,6 18,7.344 18,9C18,10.656 16.656,12 15,12C13.344,12 12,10.656 12,9C12,7.344 13.344,6 15,6M3,12L6.555,12C7.797,15.483 11.094,18 15,18C18.906,18 22.203,15.483 23.445,12L57,12C58.659,12 60,10.659 60,9C60,7.341 58.659,6 57,6L23.445,6C22.203,2.517 18.906,0 15,0C11.094,0 7.797,2.517 6.555,6L3,6C1.341,6 0,7.341 0,9C0,10.659 1.341,12 3,12Z" clip-rule="evenodd" fill-rule="evenodd" fill="#39BAAA"/>
</svg>
