<svg width="36" height="38" viewBox="0 0 36 38" fill="none" xmlns="http://www.w3.org/2000/svg" xmlns:xlink="http://www.w3.org/1999/xlink">
<path d="M32,20.451C32,19.347 32.896,18.451 34,18.451C35.104,18.451 36,19.347 36,20.451L36,31.583C36,34.451 33.666,36.785 30.8,36.785L5.2,36.785C2.334,36.785 0,34.451 0,31.583L0,5.985C0,3.117 2.334,0.785 5.2,0.785L24.334,0.785C25.438,0.785 26.334,1.679 26.334,2.785C26.334,3.889 25.438,4.785 24.334,4.785L5.2,4.785C4.538,4.785 4,5.323 4,5.985L4,31.583C4,32.245 4.538,32.785 5.2,32.785L30.8,32.785C31.462,32.785 32,32.245 32,31.583L32,20.451ZM12.619,16.677C13.419,15.913 14.683,15.945 15.447,16.743L18.457,19.899L30.563,7.393C31.329,6.601 32.595,6.577 33.391,7.347C34.185,8.115 34.205,9.381 33.437,10.175L19.883,24.175C19.507,24.565 18.989,24.785 18.447,24.785L18.439,24.785C17.895,24.783 17.375,24.559 16.999,24.165L12.553,19.505C11.789,18.705 11.821,17.439 12.619,16.677Z" clip-rule="evenodd" fill-rule="evenodd" fill="#000000"/>
</svg>
