<svg width="40" height="30" viewBox="0 0 40 30" fill="none" xmlns="http://www.w3.org/2000/svg" xmlns:xlink="http://www.w3.org/1999/xlink">
<path d="M40,25.898C40,26.792 39.106,27.517 38,27.517C36.894,27.517 36,26.792 36,25.898C36,23.221 33.308,21.042 30,21.042C28.634,21.042 27.336,21.421 26.288,22.093C27.376,23.705 28,25.553 28,27.517C28,28.41 27.106,29.135 26,29.135C24.894,29.135 24,28.41 24,27.517C24,23.054 19.514,19.424 14,19.424C8.486,19.424 4,23.054 4,27.517C4,28.41 3.106,29.135 2,29.135C0.894,29.135 0,28.41 0,27.517C0,21.269 6.282,16.186 14,16.186C17.854,16.186 21.346,17.454 23.88,19.498C25.618,18.41 27.758,17.805 30,17.805C35.514,17.805 40,21.436 40,25.898M30,9.712C31.104,9.712 32,10.439 32,11.33C32,12.222 31.104,12.949 30,12.949C28.896,12.949 28,12.222 28,11.33C28,10.439 28.896,9.712 30,9.712M30,16.186C33.308,16.186 36,14.008 36,11.33C36,8.653 33.308,6.475 30,6.475C26.692,6.475 24,8.653 24,11.33C24,14.008 26.692,16.186 30,16.186M14,3.237C16.206,3.237 18,4.689 18,6.475C18,8.26 16.206,9.712 14,9.712C11.794,9.712 10,8.26 10,6.475C10,4.689 11.794,3.237 14,3.237M14,12.949C18.412,12.949 22,10.045 22,6.475C22,2.904 18.412,0 14,0C9.588,0 6,2.904 6,6.475C6,10.045 9.588,12.949 14,12.949Z" clip-rule="evenodd" fill-rule="evenodd" fill="#FFFFFF"/>
</svg>
