<svg width="40" height="40" viewBox="0 0 40 40" fill="none" xmlns="http://www.w3.org/2000/svg" xmlns:xlink="http://www.w3.org/1999/xlink">
<path d="M16,28C16,29.1 15.1,30 14,30C12.9,30 12,29.1 12,28L12,20C12,18.9 12.9,18 14,18C15.1,18 16,18.9 16,20L16,28ZM28,28C28,29.1 27.1,30 26,30C24.9,30 24,29.1 24,28L24,20C24,18.9 24.9,18 26,18C27.1,18 28,18.9 28,20L28,28ZM32,34C32,35.102 31.104,36 30,36L10,36C8.896,36 8,35.102 8,34L8,12L32,12L32,34ZM16,4.656C16,4.346 16.428,4 17,4L23,4C23.572,4 24,4.346 24,4.656L24,8L16,8L16,4.656ZM38,8L36,8L28,8L28,4.656C28,2.088 25.758,0 23,0L17,0C14.242,0 12,2.088 12,4.656L12,8L4,8L2,8C0.9,8 0,8.9 0,10C0,11.1 0.9,12 2,12L4,12L4,34C4,37.308 6.692,40 10,40L30,40C33.308,40 36,37.308 36,34L36,12L38,12C39.1,12 40,11.1 40,10C40,8.9 39.1,8 38,8L38,8Z" clip-rule="evenodd" fill-rule="evenodd" fill="#EA2A2A"/>
</svg>
