<svg width="32" height="32" viewBox="0 0 32 32" fill="none" xmlns="http://www.w3.org/2000/svg" xmlns:xlink="http://www.w3.org/1999/xlink">
<path d="M24.112,13.283L18.72,7.891L22.544,4.069L27.932,9.457L24.112,13.283ZM10.158,27.249L4.206,27.791L4.734,21.879L15.892,10.719L21.284,16.111L10.158,27.249ZM30.806,6.673L25.326,1.195C23.792,-0.341 21.354,-0.397 19.898,1.059L15.892,5.063L13.414,2.585C12.634,1.805 11.368,1.805 10.586,2.585C9.806,3.367 9.806,4.633 10.586,5.413L13.064,7.891L1.904,19.051C1.254,19.701 0.85,20.565 0.766,21.479L0.008,29.819C-0.044,30.409 0.166,30.993 0.586,31.413C0.964,31.791 1.474,31.999 2,31.999C2.062,31.999 2.122,31.997 2.182,31.991L10.522,31.235C11.436,31.151 12.3,30.745 12.95,30.095L24.11,18.937L26.586,21.413C26.978,21.805 27.488,21.999 28,21.999C28.512,21.999 29.024,21.805 29.414,21.413C30.196,20.633 30.196,19.367 29.414,18.585L26.938,16.109L30.942,12.103C32.402,10.645 32.34,8.209 30.806,6.673L30.806,6.673Z" clip-rule="evenodd" fill-rule="evenodd" fill="#00C696"/>
</svg>
