<svg width="36" height="36" viewBox="0 0 36 36" fill="none" xmlns="http://www.w3.org/2000/svg" xmlns:xlink="http://www.w3.org/1999/xlink">
<path d="M32,19.666C32,18.562 32.896,17.666 34,17.666C35.104,17.666 36,18.562 36,19.666L36,30.798C36,33.666 33.666,36 30.8,36L5.2,36C2.334,36 0,33.666 0,30.798L0,5.2C0,2.332 2.334,0 5.2,0L24.334,0C25.438,0 26.334,0.894 26.334,2C26.334,3.104 25.438,4 24.334,4L5.2,4C4.538,4 4,4.538 4,5.2L4,30.798C4,31.46 4.538,32 5.2,32L30.8,32C31.462,32 32,31.46 32,30.798L32,19.666ZM12.619,15.892C13.419,15.128 14.683,15.16 15.447,15.958L18.457,19.114L30.563,6.608C31.329,5.816 32.595,5.792 33.391,6.562C34.185,7.33 34.205,8.596 33.437,9.39L19.883,23.39C19.507,23.78 18.989,24 18.447,24L18.439,24C17.895,23.998 17.375,23.774 16.999,23.38L12.553,18.72C11.789,17.92 11.821,16.654 12.619,15.892Z" clip-rule="evenodd" fill-rule="evenodd" fill="#FFFFFF"/>
</svg>
