<svg width="60" height="60" viewBox="0 0 60 60" fill="none" xmlns="http://www.w3.org/2000/svg" xmlns:xlink="http://www.w3.org/1999/xlink">
<path d="M43.346,49.107C42.061,47.96 40.935,46.646 40,45.2C38.979,43.203 38.367,41.023 38.2,38.787L38.2,32.2C38.209,28.688 36.934,25.293 34.617,22.653C32.299,20.014 29.097,18.312 25.613,17.867L25.613,16.147C25.613,15.675 25.426,15.222 25.092,14.888C24.758,14.554 24.305,14.367 23.833,14.367C23.361,14.367 22.908,14.554 22.574,14.888C22.241,15.222 22.053,15.675 22.053,16.147L22.053,17.893C18.6,18.371 15.437,20.083 13.15,22.713C10.863,25.344 9.606,28.714 9.613,32.2L9.613,38.787C9.446,41.023 8.834,43.203 7.813,45.2C6.894,46.643 5.787,47.957 4.52,49.107C4.378,49.232 4.264,49.385 4.185,49.558C4.107,49.73 4.067,49.917 4.066,50.107L4.066,51.92C4.066,52.274 4.207,52.613 4.457,52.863C4.707,53.113 5.046,53.253 5.4,53.253L42.466,53.253C42.82,53.253 43.159,53.113 43.409,52.863C43.659,52.613 43.8,52.274 43.8,51.92L43.8,50.107C43.799,49.917 43.759,49.73 43.681,49.558C43.603,49.385 43.489,49.232 43.346,49.107ZM6.84,50.587C8.08,49.388 9.173,48.045 10.093,46.587C11.379,44.175 12.13,41.515 12.293,38.787L12.293,32.2C12.24,30.637 12.502,29.08 13.064,27.621C13.625,26.162 14.475,24.83 15.561,23.706C16.648,22.582 17.95,21.688 19.389,21.078C20.829,20.467 22.376,20.153 23.94,20.153C25.503,20.153 27.051,20.467 28.49,21.078C29.93,21.688 31.231,22.582 32.318,23.706C33.405,24.83 34.254,26.162 34.816,27.621C35.377,29.08 35.639,30.637 35.586,32.2L35.586,38.787C35.75,41.515 36.5,44.175 37.786,46.587C38.707,48.045 39.799,49.388 41.04,50.587L6.84,50.587Z" fill="#666666"/>
<path d="M23.999,57.707C24.839,57.687 25.645,57.371 26.275,56.815C26.904,56.259 27.317,55.498 27.439,54.667L20.426,54.667C20.552,55.52 20.984,56.299 21.641,56.858C22.298,57.418 23.136,57.719 23.999,57.707L23.999,57.707Z" fill="#666666"/>
<path d="M52.667,13.333C56.349,13.333 59.333,10.349 59.333,6.667C59.333,2.985 56.349,0 52.667,0C48.985,0 46,2.985 46,6.667C46,10.349 48.985,13.333 52.667,13.333Z" fill="#EB5757"/>
</svg>
