<svg width="100" height="100" viewBox="0 0 100 100" fill="none" xmlns="http://www.w3.org/2000/svg" xmlns:xlink="http://www.w3.org/1999/xlink">
<path d="M50,50C54.973,50 59.742,48.025 63.258,44.508C66.775,40.992 68.75,36.223 68.75,31.25C68.75,26.277 66.775,21.508 63.258,17.992C59.742,14.475 54.973,12.5 50,12.5C45.027,12.5 40.258,14.475 36.742,17.992C33.225,21.508 31.25,26.277 31.25,31.25C31.25,36.223 33.225,40.992 36.742,44.508C40.258,48.025 45.027,50 50,50ZM50,56.25C43.37,56.25 37.011,53.616 32.322,48.928C27.634,44.239 25,37.88 25,31.25C25,24.62 27.634,18.261 32.322,13.572C37.011,8.884 43.37,6.25 50,6.25C56.63,6.25 62.989,8.884 67.678,13.572C72.366,18.261 75,24.62 75,31.25C75,37.88 72.366,44.239 67.678,48.928C62.989,53.616 56.63,56.25 50,56.25Z" fill="#ABDCD8"/>
<path d="M50,50C50.829,50 51.624,50.329 52.21,50.915C52.796,51.501 53.125,52.296 53.125,53.125L53.125,78.125C53.125,78.954 52.796,79.749 52.21,80.335C51.624,80.921 50.829,81.25 50,81.25C49.171,81.25 48.376,80.921 47.79,80.335C47.204,79.749 46.875,78.954 46.875,78.125L46.875,53.125C46.875,52.296 47.204,51.501 47.79,50.915C48.376,50.329 49.171,50 50,50Z" fill="#ABDCD8"/>
<path d="M37.5,63.387L37.5,69.73C26.344,71.518 18.75,75.38 18.75,78.124C18.75,81.805 32.412,87.499 50,87.499C67.587,87.499 81.25,81.805 81.25,78.124C81.25,75.374 73.656,71.518 62.5,69.73L62.5,63.387C77.062,65.53 87.5,71.324 87.5,78.124C87.5,86.749 70.712,93.749 50,93.749C29.287,93.749 12.5,86.749 12.5,78.124C12.5,71.318 22.938,65.53 37.5,63.387Z" fill="#ABDCD8"/>
</svg>
