<svg width="48" height="46" viewBox="0 0 48 46" fill="none" xmlns="http://www.w3.org/2000/svg" xmlns:xlink="http://www.w3.org/1999/xlink">
<path d="M25.158,21.32C26.33,22.491 28.229,22.491 29.401,21.319C30.572,20.147 30.572,18.247 29.4,17.076L25.158,21.32ZM13.43,19.198L11.309,17.076L11.309,17.076L13.43,19.198ZM6.503,26.123L4.382,24.001L4.381,24.001L6.503,26.123ZM3.634,33.048L0.634,33.048L3.634,33.048ZM20.354,39.974L22.476,42.096L22.476,42.096L20.354,39.974ZM25.938,38.633C27.11,37.462 27.11,35.562 25.938,34.39C24.766,33.219 22.867,33.219 21.695,34.39L25.938,38.633ZM29.4,17.076C27,14.678 23.747,13.331 20.354,13.331L20.354,19.331C22.156,19.331 23.884,20.046 25.158,21.32L29.4,17.076ZM20.354,13.331C16.962,13.331 13.708,14.678 11.309,17.076L15.55,21.32C16.825,20.046 18.553,19.331 20.354,19.331L20.354,13.331ZM11.309,17.076L4.382,24.001L8.624,28.244L15.55,21.32L11.309,17.076ZM4.381,24.001C1.982,26.401 0.634,29.655 0.634,33.048L6.634,33.048C6.634,31.246 7.35,29.518 8.624,28.244L4.381,24.001ZM0.634,33.048C0.634,36.442 1.982,39.696 4.381,42.096L8.624,37.853C7.35,36.579 6.634,34.85 6.634,33.048L0.634,33.048ZM4.381,42.096C6.781,44.495 10.035,45.843 13.428,45.843L13.428,39.843C11.626,39.843 9.898,39.127 8.624,37.853L4.381,42.096ZM13.428,45.843C16.822,45.843 20.076,44.495 22.476,42.096L18.233,37.853C16.959,39.127 15.23,39.843 13.428,39.843L13.428,45.843ZM22.476,42.096L25.938,38.633L21.695,34.39L18.233,37.853L22.476,42.096Z" fill="#195544"/>
<path d="M22.475,24.001C21.304,22.829 19.404,22.83 18.233,24.002C17.061,25.173 17.062,27.073 18.234,28.244L22.475,24.001ZM34.204,26.122L36.325,28.244L36.325,28.244L34.204,26.122ZM41.131,19.198L43.252,21.319L43.252,21.319L41.131,19.198ZM44,12.272L47,12.272L44,12.272ZM34.205,2.478L34.205,-0.522L34.205,2.478ZM27.279,5.346L25.158,3.225L25.158,3.225L27.279,5.346ZM21.696,6.687C20.524,7.859 20.524,9.758 21.696,10.93C22.867,12.101 24.767,12.101 25.938,10.93L21.696,6.687ZM18.234,28.244C20.633,30.643 23.887,31.99 27.279,31.99L27.279,25.99C25.478,25.99 23.75,25.274 22.475,24.001L18.234,28.244ZM27.279,31.99C30.672,31.99 33.925,30.643 36.325,28.244L32.083,24.001C30.809,25.274 29.081,25.99 27.279,25.99L27.279,31.99ZM36.325,28.244L43.252,21.319L39.01,17.076L32.083,24.001L36.325,28.244ZM43.252,21.319C45.652,18.92 47,15.665 47,12.272L41,12.272C41,14.074 40.284,15.802 39.01,17.076L43.252,21.319ZM47,12.272C47,8.879 45.652,5.624 43.252,3.225L39.01,7.468C40.284,8.742 41,10.47 41,12.272L47,12.272ZM43.252,3.225C40.853,0.826 37.598,-0.522 34.205,-0.522L34.205,5.478C36.007,5.478 37.735,6.193 39.01,7.468L43.252,3.225ZM34.205,-0.522C30.812,-0.522 27.557,0.826 25.158,3.225L29.401,7.468C30.675,6.193 32.403,5.478 34.205,5.478L34.205,-0.522ZM25.158,3.225L21.696,6.687L25.938,10.93L29.401,7.468L25.158,3.225Z" fill="#195544"/>
</svg>
