<svg width="76" height="88" viewBox="0 0 76 88" fill="none" xmlns="http://www.w3.org/2000/svg" xmlns:xlink="http://www.w3.org/1999/xlink">
<g filter="url(#filter42_528)">
<path d="M31.859,3.101L45.184,25.864L26.384,31.207C13.399,26.917 5.753,18.657 1.14,10.17C-0.804,6.589 -0.788,0.014 6.94,0.014L26.465,0.014C27.555,0.013 28.627,0.299 29.573,0.841C30.52,1.383 31.307,2.16 31.859,3.101Z" fill="#4686EC"/>
<path d="M31.859,3.101L45.184,25.864L26.384,31.207C13.399,26.917 5.753,18.657 1.14,10.17C-0.804,6.589 -0.788,0.014 6.94,0.014L26.465,0.014C27.555,0.013 28.627,0.299 29.573,0.841C30.52,1.383 31.307,2.16 31.859,3.101Z" fill="url(#pf_0_42_530)"/>
<path d="M31.859,3.101L45.184,25.864L26.384,31.207C13.399,26.917 5.753,18.657 1.14,10.17C-0.804,6.589 -0.788,0.014 6.94,0.014L26.465,0.014C27.555,0.013 28.627,0.299 29.573,0.841C30.52,1.383 31.307,2.16 31.859,3.101Z" fill="url(#pf_0_42_531)"/>
</g>
<g filter="url(#filter42_532)">
<path d="M43.663,3.1L30.338,25.863L49.138,31.207C62.122,26.913 69.769,18.654 74.382,10.166C76.325,6.585 76.31,0.01 68.582,0.01L49.057,0.01C47.966,0.01 46.894,0.295 45.948,0.837C45.002,1.379 44.214,2.159 43.663,3.1Z" fill="#4686EC"/>
<path d="M43.663,3.1L30.338,25.863L49.138,31.207C62.122,26.913 69.769,18.654 74.382,10.166C76.325,6.585 76.31,0.01 68.582,0.01L49.057,0.01C47.966,0.01 46.894,0.295 45.948,0.837C45.002,1.379 44.214,2.159 43.663,3.1Z" fill="url(#pf_0_42_534)"/>
<path d="M43.663,3.1L30.338,25.863L49.138,31.207C62.122,26.913 69.769,18.654 74.382,10.166C76.325,6.585 76.31,0.01 68.582,0.01L49.057,0.01C47.966,0.01 46.894,0.295 45.948,0.837C45.002,1.379 44.214,2.159 43.663,3.1Z" fill="url(#pf_0_42_535)"/>
</g>
<path d="M43.663,3.1L30.338,25.863L49.138,31.207C62.122,26.913 69.769,18.654 74.382,10.166C76.325,6.585 76.31,0.01 68.582,0.01L49.057,0.01C47.966,0.01 46.894,0.295 45.948,0.837C45.002,1.379 44.214,2.159 43.663,3.1Z" fill="url(#pf_0_42_536)"/>
<path d="M38.146,86.314C55.488,86.314 69.546,72.255 69.546,54.914C69.546,37.572 55.488,23.514 38.146,23.514C20.804,23.514 6.746,37.572 6.746,54.914C6.746,72.255 20.804,86.314 38.146,86.314Z" fill="url(#pf_0_42_537)"/>
<path d="M38.146,86.314C55.488,86.314 69.546,72.255 69.546,54.914C69.546,37.572 55.488,23.514 38.146,23.514C20.804,23.514 6.746,37.572 6.746,54.914C6.746,72.255 20.804,86.314 38.146,86.314Z" fill="url(#pf_0_42_538)"/>
<path d="M38.146,82.064C53.141,82.064 65.296,69.908 65.296,54.914C65.296,39.919 53.141,27.764 38.146,27.764C23.152,27.764 10.996,39.919 10.996,54.914C10.996,69.908 23.152,82.064 38.146,82.064Z" fill="url(#pf_0_42_539)"/>
<path d="M38.147,78.615C51.237,78.615 61.85,68.003 61.85,54.912C61.85,41.821 51.237,31.209 38.147,31.209C25.056,31.209 14.443,41.821 14.443,54.912C14.443,68.003 25.056,78.615 38.147,78.615Z" fill="url(#pf_0_42_540)"/>
<path d="M38.147,78.615C51.237,78.615 61.85,68.003 61.85,54.912C61.85,41.821 51.237,31.209 38.147,31.209C25.056,31.209 14.443,41.821 14.443,54.912C14.443,68.003 25.056,78.615 38.147,78.615Z" fill="url(#pf_0_42_541)"/>
<path d="M38.147,78.615C51.237,78.615 61.85,68.003 61.85,54.912C61.85,41.821 51.237,31.209 38.147,31.209C25.056,31.209 14.443,41.821 14.443,54.912C14.443,68.003 25.056,78.615 38.147,78.615Z" fill="url(#pf_0_42_542)"/>
<path d="M38.147,78.615C51.237,78.615 61.85,68.003 61.85,54.912C61.85,41.821 51.237,31.209 38.147,31.209C25.056,31.209 14.443,41.821 14.443,54.912C14.443,68.003 25.056,78.615 38.147,78.615Z" fill="url(#pf_0_42_543)"/>
<g filter="url(#filter42_544)">
<path d="M44.364,68.787L31.958,68.787C31.36,68.789 30.775,68.619 30.271,68.297C29.767,67.976 29.365,67.517 29.114,66.975C28.854,66.437 28.753,65.836 28.825,65.243C28.897,64.65 29.139,64.09 29.521,63.631L39.833,50.975C40.646,49.975 40.271,48.912 40.146,48.6C40,48.236 39.751,47.923 39.428,47.701C39.106,47.478 38.725,47.356 38.333,47.35L38.177,47.35C37.177,47.35 36.271,47.818 35.677,48.631C34.677,50.037 32.708,50.381 31.271,49.381C30.932,49.141 30.643,48.837 30.422,48.486C30.201,48.134 30.051,47.743 29.981,47.333C29.912,46.924 29.923,46.505 30.016,46.1C30.108,45.695 30.28,45.313 30.521,44.975C32.271,42.506 35.114,41.037 38.146,41.037L38.552,41.037C41.739,41.193 44.521,43.1 45.833,46.006C47.177,49.006 46.739,52.412 44.677,54.943L38.583,62.443L44.333,62.443C46.083,62.443 47.489,63.85 47.489,65.6C47.489,67.35 46.114,68.787 44.364,68.787Z" fill="#6A6372"/>
</g>
<defs>
<filter id="filter42_528" x="0.0625" y="0.013672" width="22.760648" height="15.846874" filterUnits="userSpaceOnUse" color-interpolation-filters="sRGB">
<feFlood flood-opacity="0" result="BackgroundImageFix"/>
<feBlend mode="normal" in="SourceGraphic" in2="BackgroundImageFix" result="shape"/>
<feColorMatrix in="SourceAlpha" type="matrix" values="0 0 0 0 0 0 0 0 0 0 0 0 0 0 0 0 0 0 127 0" result="hardAlpha"/>
<feMorphology radius="0" operator="erode" in="SourceAlpha" result="0innershadow"/>
<feOffset dx="-0.2" dy="-0.2"/>
<feGaussianBlur stdDeviation="0.2"/>
<feComposite in2="hardAlpha" operator="arithmetic" k2="-1" k3="1"/>
<feColorMatrix type="matrix" values="0 0 0 0 0.317647 0 0 0 0 0.458824 0 0 0 0 0.886275 0 0 0 1 0"/>
<feBlend mode="normal" in2="shape" result="0innershadow"/>
<feColorMatrix in="SourceAlpha" type="matrix" values="0 0 0 0 0 0 0 0 0 0 0 0 0 0 0 0 0 0 127 0" result="hardAlpha"/>
<feMorphology radius="0" operator="erode" in="SourceAlpha" result="1innershadow"/>
<feOffset dx="0.2" dy="0.2"/>
<feGaussianBlur stdDeviation="0.2"/>
<feComposite in2="hardAlpha" operator="arithmetic" k2="-1" k3="1"/>
<feColorMatrix type="matrix" values="0 0 0 0 0.317647 0 0 0 0 0.458824 0 0 0 0 0.886275 0 0 0 1 0"/>
<feBlend mode="normal" in2="0innershadow" result="1innershadow"/>
<feColorMatrix in="SourceAlpha" type="matrix" values="0 0 0 0 0 0 0 0 0 0 0 0 0 0 0 0 0 0 127 0" result="hardAlpha"/>
<feMorphology radius="0" operator="erode" in="SourceAlpha" result="2innershadow"/>
<feOffset dx="-0.25" dy="0.25"/>
<feGaussianBlur stdDeviation="0.25"/>
<feComposite in2="hardAlpha" operator="arithmetic" k2="-1" k3="1"/>
<feColorMatrix type="matrix" values="0 0 0 0 0.372549 0 0 0 0 0.607843 0 0 0 0 0.960784 0 0 0 1 0"/>
<feBlend mode="normal" in2="1innershadow" result="2innershadow"/>
</filter>
<radialGradient id="pf_0_42_530" cx="0" cy="0" r="1" gradientUnits="userSpaceOnUse" gradientTransform="matrix(-3.951324 -6.010514 22.44686 -14.756611 14.474 14.503)">
<stop stop-color="#3669D9"/>
<stop offset="1" stop-color="#3669D9" stop-opacity="0"/>
</radialGradient>
<linearGradient id="pf_0_42_531" x1="8.568" y1="-1.677" x2="14.178" y2="12.292" gradientUnits="userSpaceOnUse">
<stop stop-color="#3D89EC"/>
<stop offset="1" stop-color="#3D89EC" stop-opacity="0"/>
</linearGradient>
<filter id="filter42_532" x="30.337891" y="0.009766" width="22.760648" height="15.848437" filterUnits="userSpaceOnUse" color-interpolation-filters="sRGB">
<feFlood flood-opacity="0" result="BackgroundImageFix"/>
<feBlend mode="normal" in="SourceGraphic" in2="BackgroundImageFix" result="shape"/>
<feColorMatrix in="SourceAlpha" type="matrix" values="0 0 0 0 0 0 0 0 0 0 0 0 0 0 0 0 0 0 127 0" result="hardAlpha"/>
<feMorphology radius="0" operator="erode" in="SourceAlpha" result="0innershadow"/>
<feOffset dx="-0.2" dy="-0.2"/>
<feGaussianBlur stdDeviation="0.2"/>
<feComposite in2="hardAlpha" operator="arithmetic" k2="-1" k3="1"/>
<feColorMatrix type="matrix" values="0 0 0 0 0.317647 0 0 0 0 0.458824 0 0 0 0 0.886275 0 0 0 1 0"/>
<feBlend mode="normal" in2="shape" result="0innershadow"/>
<feColorMatrix in="SourceAlpha" type="matrix" values="0 0 0 0 0 0 0 0 0 0 0 0 0 0 0 0 0 0 127 0" result="hardAlpha"/>
<feMorphology radius="0" operator="erode" in="SourceAlpha" result="1innershadow"/>
<feOffset dx="0.2" dy="0.2"/>
<feGaussianBlur stdDeviation="0.2"/>
<feComposite in2="hardAlpha" operator="arithmetic" k2="-1" k3="1"/>
<feColorMatrix type="matrix" values="0 0 0 0 0.317647 0 0 0 0 0.458824 0 0 0 0 0.886275 0 0 0 1 0"/>
<feBlend mode="normal" in2="0innershadow" result="1innershadow"/>
<feColorMatrix in="SourceAlpha" type="matrix" values="0 0 0 0 0 0 0 0 0 0 0 0 0 0 0 0 0 0 127 0" result="hardAlpha"/>
<feMorphology radius="0" operator="erode" in="SourceAlpha" result="2innershadow"/>
<feOffset dx="-0.25" dy="0.25"/>
<feGaussianBlur stdDeviation="0.25"/>
<feComposite in2="hardAlpha" operator="arithmetic" k2="-1" k3="1"/>
<feColorMatrix type="matrix" values="0 0 0 0 0.372549 0 0 0 0 0.607843 0 0 0 0 0.960784 0 0 0 1 0"/>
<feBlend mode="normal" in2="1innershadow" result="2innershadow"/>
</filter>
<radialGradient id="pf_0_42_534" cx="0" cy="0" r="1" gradientUnits="userSpaceOnUse" gradientTransform="matrix(2.575934 -4.007043 8.789457 5.650316 23.287 14.503)">
<stop stop-color="#3669D9"/>
<stop offset="1" stop-color="#3669D9" stop-opacity="0"/>
</radialGradient>
<linearGradient id="pf_0_42_535" x1="66.954" y1="-1.678" x2="61.344" y2="12.291" gradientUnits="userSpaceOnUse">
<stop stop-color="#3D89EC"/>
<stop offset="1" stop-color="#3D89EC" stop-opacity="0"/>
</linearGradient>
<linearGradient id="pf_0_42_536" x1="37.216" y1="14.072" x2="38.269" y2="14.657" gradientUnits="userSpaceOnUse">
<stop stop-color="#1A6DD8"/>
<stop offset="1" stop-color="#1A6DD8" stop-opacity="0"/>
</linearGradient>
<linearGradient id="pf_0_42_537" x1="62.365" y1="38.682" x2="33.155" y2="65.389" gradientUnits="userSpaceOnUse">
<stop stop-color="#EFEAF6"/>
<stop offset="1" stop-color="#B5A8C3"/>
</linearGradient>
<linearGradient id="pf_0_42_538" x1="27.174" y1="87.839" x2="34.255" y2="46.773" gradientUnits="userSpaceOnUse">
<stop stop-color="#D0A9F4"/>
<stop offset="1" stop-color="#D0A9F4" stop-opacity="0"/>
</linearGradient>
<linearGradient id="pf_0_42_539" x1="62.884" y1="50.167" x2="38.146" y2="50.167" gradientUnits="userSpaceOnUse">
<stop stop-color="#D3C6E2"/>
<stop offset="1" stop-color="#D6C6E8"/>
</linearGradient>
<linearGradient id="pf_0_42_540" x1="23.268" y1="61.071" x2="62.715" y2="49.134" gradientUnits="userSpaceOnUse">
<stop stop-color="#E0D3EF"/>
<stop offset="1" stop-color="#C1B0D4"/>
</linearGradient>
<radialGradient id="pf_0_42_541" cx="0" cy="0" r="1" gradientUnits="userSpaceOnUse" gradientTransform="matrix(-16.348629 7.059782 -6.0157 -13.930803 23.571 25.66)">
<stop offset="0.837" stop-color="#F6ECFE" stop-opacity="0"/>
<stop offset="1" stop-color="#F6ECFE"/>
</radialGradient>
<radialGradient id="pf_0_42_542" cx="0" cy="0" r="1" gradientUnits="userSpaceOnUse" gradientTransform="matrix(10.523338 -9.243025 8.875098 10.104445 17.56 28.861)">
<stop offset="0.91" stop-color="#B396CF" stop-opacity="0"/>
<stop offset="0.992" stop-color="#B796D5"/>
</radialGradient>
<radialGradient id="pf_0_42_543" cx="0" cy="0" r="1" gradientUnits="userSpaceOnUse" gradientTransform="matrix(10.400391 8.105468 -9.185419 11.78611 18.731 26.469)">
<stop offset="0.926" stop-color="#AB9CBB" stop-opacity="0"/>
<stop offset="1" stop-color="#AB9CBB"/>
</radialGradient>
<filter id="filter42_544" x="28.802734" y="41.037109" width="9.543283" height="14.175005" filterUnits="userSpaceOnUse" color-interpolation-filters="sRGB">
<feFlood flood-opacity="0" result="BackgroundImageFix"/>
<feBlend mode="normal" in="SourceGraphic" in2="BackgroundImageFix" result="shape"/>
<feColorMatrix in="SourceAlpha" type="matrix" values="0 0 0 0 0 0 0 0 0 0 0 0 0 0 0 0 0 0 127 0" result="hardAlpha"/>
<feMorphology radius="0" operator="erode" in="SourceAlpha" result="0innershadow"/>
<feOffset dx="-0.3" dy="0.3"/>
<feGaussianBlur stdDeviation="0.3"/>
<feComposite in2="hardAlpha" operator="arithmetic" k2="-1" k3="1"/>
<feColorMatrix type="matrix" values="0 0 0 0 0.286275 0 0 0 0 0.223529 0 0 0 0 0.345098 0 0 0 1 0"/>
<feBlend mode="normal" in2="shape" result="0innershadow"/>
<feColorMatrix in="SourceAlpha" type="matrix" values="0 0 0 0 0 0 0 0 0 0 0 0 0 0 0 0 0 0 127 0" result="hardAlpha"/>
<feMorphology radius="0" operator="erode" in="SourceAlpha" result="1innershadow"/>
<feOffset dx="0.2" dy="-0.2"/>
<feGaussianBlur stdDeviation="0.2"/>
<feComposite in2="hardAlpha" operator="arithmetic" k2="-1" k3="1"/>
<feColorMatrix type="matrix" values="0 0 0 0 0.482353 0 0 0 0 0.47451 0 0 0 0 0.490196 0 0 0 1 0"/>
<feBlend mode="normal" in2="0innershadow" result="1innershadow"/>
</filter>
</defs>
</svg>
