<svg width="76" height="88" viewBox="0 0 76 88" fill="none" xmlns="http://www.w3.org/2000/svg" xmlns:xlink="http://www.w3.org/1999/xlink">
<g filter="url(#filter69_541)">
<path d="M31.86,3.099L45.185,25.862L26.385,31.206C13.4,26.915 5.754,18.655 1.141,10.168C-0.803,6.587 -0.787,0.012 6.941,0.012L26.466,0.012C27.556,0.012 28.628,0.297 29.574,0.839C30.521,1.381 31.308,2.158 31.86,3.099Z" fill="#4686EC"/>
<path d="M31.86,3.099L45.185,25.862L26.385,31.206C13.4,26.915 5.754,18.655 1.141,10.168C-0.803,6.587 -0.787,0.012 6.941,0.012L26.466,0.012C27.556,0.012 28.628,0.297 29.574,0.839C30.521,1.381 31.308,2.158 31.86,3.099Z" fill="url(#pf_0_69_543)"/>
<path d="M31.86,3.099L45.185,25.862L26.385,31.206C13.4,26.915 5.754,18.655 1.141,10.168C-0.803,6.587 -0.787,0.012 6.941,0.012L26.466,0.012C27.556,0.012 28.628,0.297 29.574,0.839C30.521,1.381 31.308,2.158 31.86,3.099Z" fill="url(#pf_0_69_544)"/>
</g>
<g filter="url(#filter69_545)">
<path d="M43.663,3.098L30.338,25.861L49.138,31.205C62.122,26.911 69.769,18.652 74.382,10.164C76.325,6.583 76.31,0.008 68.582,0.008L49.057,0.008C47.966,0.008 46.894,0.293 45.948,0.835C45.002,1.377 44.214,2.157 43.663,3.098Z" fill="#4686EC"/>
<path d="M43.663,3.098L30.338,25.861L49.138,31.205C62.122,26.911 69.769,18.652 74.382,10.164C76.325,6.583 76.31,0.008 68.582,0.008L49.057,0.008C47.966,0.008 46.894,0.293 45.948,0.835C45.002,1.377 44.214,2.157 43.663,3.098Z" fill="url(#pf_0_69_547)"/>
<path d="M43.663,3.098L30.338,25.861L49.138,31.205C62.122,26.911 69.769,18.652 74.382,10.164C76.325,6.583 76.31,0.008 68.582,0.008L49.057,0.008C47.966,0.008 46.894,0.293 45.948,0.835C45.002,1.377 44.214,2.157 43.663,3.098Z" fill="url(#pf_0_69_548)"/>
</g>
<path d="M43.663,3.098L30.338,25.861L49.138,31.205C62.122,26.911 69.769,18.652 74.382,10.164C76.325,6.583 76.31,0.008 68.582,0.008L49.057,0.008C47.966,0.008 46.894,0.293 45.948,0.835C45.002,1.377 44.214,2.157 43.663,3.098Z" fill="url(#pf_0_69_549)"/>
<path d="M38.147,86.312C55.489,86.312 69.547,72.254 69.547,54.912C69.547,37.57 55.489,23.512 38.147,23.512C20.805,23.512 6.747,37.57 6.747,54.912C6.747,72.254 20.805,86.312 38.147,86.312Z" fill="url(#pf_0_69_550)"/>
<path d="M38.147,86.312C55.489,86.312 69.547,72.254 69.547,54.912C69.547,37.57 55.489,23.512 38.147,23.512C20.805,23.512 6.747,37.57 6.747,54.912C6.747,72.254 20.805,86.312 38.147,86.312Z" fill="url(#pf_0_69_551)"/>
<path d="M38.147,82.062C53.142,82.062 65.297,69.906 65.297,54.912C65.297,39.917 53.142,27.762 38.147,27.762C23.153,27.762 10.997,39.917 10.997,54.912C10.997,69.906 23.153,82.062 38.147,82.062Z" fill="url(#pf_0_69_552)"/>
<path d="M38.148,78.613C51.238,78.613 61.851,68.001 61.851,54.91C61.851,41.819 51.238,31.207 38.148,31.207C25.057,31.207 14.444,41.819 14.444,54.91C14.444,68.001 25.057,78.613 38.148,78.613Z" fill="url(#pf_0_69_553)"/>
<path d="M38.148,78.613C51.238,78.613 61.851,68.001 61.851,54.91C61.851,41.819 51.238,31.207 38.148,31.207C25.057,31.207 14.444,41.819 14.444,54.91C14.444,68.001 25.057,78.613 38.148,78.613Z" fill="url(#pf_0_69_554)"/>
<path d="M38.148,78.613C51.238,78.613 61.851,68.001 61.851,54.91C61.851,41.819 51.238,31.207 38.148,31.207C25.057,31.207 14.444,41.819 14.444,54.91C14.444,68.001 25.057,78.613 38.148,78.613Z" fill="url(#pf_0_69_555)"/>
<path d="M38.148,78.613C51.238,78.613 61.851,68.001 61.851,54.91C61.851,41.819 51.238,31.207 38.148,31.207C25.057,31.207 14.444,41.819 14.444,54.91C14.444,68.001 25.057,78.613 38.148,78.613Z" fill="url(#pf_0_69_556)"/>
<g filter="url(#filter69_557)">
<path d="M44.366,68.785L31.96,68.785C31.362,68.787 30.777,68.617 30.273,68.295C29.769,67.974 29.367,67.515 29.116,66.973C28.856,66.435 28.755,65.834 28.827,65.241C28.899,64.648 29.141,64.088 29.522,63.629L39.835,50.973C40.648,49.973 40.273,48.91 40.148,48.598C40.002,48.234 39.753,47.921 39.43,47.699C39.108,47.476 38.727,47.354 38.335,47.348L38.179,47.348C37.179,47.348 36.273,47.816 35.679,48.629C34.679,50.035 32.71,50.379 31.273,49.379C30.933,49.139 30.645,48.835 30.424,48.484C30.203,48.132 30.053,47.741 29.983,47.331C29.914,46.922 29.925,46.503 30.018,46.098C30.11,45.694 30.282,45.311 30.523,44.973C32.273,42.504 35.116,41.035 38.148,41.035L38.554,41.035C41.741,41.191 44.523,43.098 45.835,46.004C47.179,49.004 46.741,52.41 44.679,54.941L38.585,62.441L44.335,62.441C46.085,62.441 47.491,63.848 47.491,65.598C47.491,67.348 46.116,68.785 44.366,68.785Z" fill="#6A6372"/>
</g>
<defs>
<filter id="filter69_541" x="0.063477" y="0.011719" width="22.760648" height="15.846874" filterUnits="userSpaceOnUse" color-interpolation-filters="sRGB">
<feFlood flood-opacity="0" result="BackgroundImageFix"/>
<feBlend mode="normal" in="SourceGraphic" in2="BackgroundImageFix" result="shape"/>
<feColorMatrix in="SourceAlpha" type="matrix" values="0 0 0 0 0 0 0 0 0 0 0 0 0 0 0 0 0 0 127 0" result="hardAlpha"/>
<feMorphology radius="0" operator="erode" in="SourceAlpha" result="0innershadow"/>
<feOffset dx="-0.2" dy="-0.2"/>
<feGaussianBlur stdDeviation="0.2"/>
<feComposite in2="hardAlpha" operator="arithmetic" k2="-1" k3="1"/>
<feColorMatrix type="matrix" values="0 0 0 0 0.317647 0 0 0 0 0.458824 0 0 0 0 0.886275 0 0 0 1 0"/>
<feBlend mode="normal" in2="shape" result="0innershadow"/>
<feColorMatrix in="SourceAlpha" type="matrix" values="0 0 0 0 0 0 0 0 0 0 0 0 0 0 0 0 0 0 127 0" result="hardAlpha"/>
<feMorphology radius="0" operator="erode" in="SourceAlpha" result="1innershadow"/>
<feOffset dx="0.2" dy="0.2"/>
<feGaussianBlur stdDeviation="0.2"/>
<feComposite in2="hardAlpha" operator="arithmetic" k2="-1" k3="1"/>
<feColorMatrix type="matrix" values="0 0 0 0 0.317647 0 0 0 0 0.458824 0 0 0 0 0.886275 0 0 0 1 0"/>
<feBlend mode="normal" in2="0innershadow" result="1innershadow"/>
<feColorMatrix in="SourceAlpha" type="matrix" values="0 0 0 0 0 0 0 0 0 0 0 0 0 0 0 0 0 0 127 0" result="hardAlpha"/>
<feMorphology radius="0" operator="erode" in="SourceAlpha" result="2innershadow"/>
<feOffset dx="-0.25" dy="0.25"/>
<feGaussianBlur stdDeviation="0.25"/>
<feComposite in2="hardAlpha" operator="arithmetic" k2="-1" k3="1"/>
<feColorMatrix type="matrix" values="0 0 0 0 0.372549 0 0 0 0 0.607843 0 0 0 0 0.960784 0 0 0 1 0"/>
<feBlend mode="normal" in2="1innershadow" result="2innershadow"/>
</filter>
<radialGradient id="pf_0_69_543" cx="0" cy="0" r="1" gradientUnits="userSpaceOnUse" gradientTransform="matrix(-3.951324 -6.010514 22.44686 -14.756611 14.475 14.502)">
<stop stop-color="#3669D9"/>
<stop offset="1" stop-color="#3669D9" stop-opacity="0"/>
</radialGradient>
<linearGradient id="pf_0_69_544" x1="8.569" y1="-1.679" x2="14.179" y2="12.29" gradientUnits="userSpaceOnUse">
<stop stop-color="#3D89EC"/>
<stop offset="1" stop-color="#3D89EC" stop-opacity="0"/>
</linearGradient>
<filter id="filter69_545" x="30.337891" y="0.007813" width="22.760648" height="15.848437" filterUnits="userSpaceOnUse" color-interpolation-filters="sRGB">
<feFlood flood-opacity="0" result="BackgroundImageFix"/>
<feBlend mode="normal" in="SourceGraphic" in2="BackgroundImageFix" result="shape"/>
<feColorMatrix in="SourceAlpha" type="matrix" values="0 0 0 0 0 0 0 0 0 0 0 0 0 0 0 0 0 0 127 0" result="hardAlpha"/>
<feMorphology radius="0" operator="erode" in="SourceAlpha" result="0innershadow"/>
<feOffset dx="-0.2" dy="-0.2"/>
<feGaussianBlur stdDeviation="0.2"/>
<feComposite in2="hardAlpha" operator="arithmetic" k2="-1" k3="1"/>
<feColorMatrix type="matrix" values="0 0 0 0 0.317647 0 0 0 0 0.458824 0 0 0 0 0.886275 0 0 0 1 0"/>
<feBlend mode="normal" in2="shape" result="0innershadow"/>
<feColorMatrix in="SourceAlpha" type="matrix" values="0 0 0 0 0 0 0 0 0 0 0 0 0 0 0 0 0 0 127 0" result="hardAlpha"/>
<feMorphology radius="0" operator="erode" in="SourceAlpha" result="1innershadow"/>
<feOffset dx="0.2" dy="0.2"/>
<feGaussianBlur stdDeviation="0.2"/>
<feComposite in2="hardAlpha" operator="arithmetic" k2="-1" k3="1"/>
<feColorMatrix type="matrix" values="0 0 0 0 0.317647 0 0 0 0 0.458824 0 0 0 0 0.886275 0 0 0 1 0"/>
<feBlend mode="normal" in2="0innershadow" result="1innershadow"/>
<feColorMatrix in="SourceAlpha" type="matrix" values="0 0 0 0 0 0 0 0 0 0 0 0 0 0 0 0 0 0 127 0" result="hardAlpha"/>
<feMorphology radius="0" operator="erode" in="SourceAlpha" result="2innershadow"/>
<feOffset dx="-0.25" dy="0.25"/>
<feGaussianBlur stdDeviation="0.25"/>
<feComposite in2="hardAlpha" operator="arithmetic" k2="-1" k3="1"/>
<feColorMatrix type="matrix" values="0 0 0 0 0.372549 0 0 0 0 0.607843 0 0 0 0 0.960784 0 0 0 1 0"/>
<feBlend mode="normal" in2="1innershadow" result="2innershadow"/>
</filter>
<radialGradient id="pf_0_69_547" cx="0" cy="0" r="1" gradientUnits="userSpaceOnUse" gradientTransform="matrix(2.575934 -4.007043 8.789457 5.650316 23.287 14.502)">
<stop stop-color="#3669D9"/>
<stop offset="1" stop-color="#3669D9" stop-opacity="0"/>
</radialGradient>
<linearGradient id="pf_0_69_548" x1="66.954" y1="-1.68" x2="61.344" y2="12.289" gradientUnits="userSpaceOnUse">
<stop stop-color="#3D89EC"/>
<stop offset="1" stop-color="#3D89EC" stop-opacity="0"/>
</linearGradient>
<linearGradient id="pf_0_69_549" x1="37.216" y1="14.07" x2="38.269" y2="14.655" gradientUnits="userSpaceOnUse">
<stop stop-color="#1A6DD8"/>
<stop offset="1" stop-color="#1A6DD8" stop-opacity="0"/>
</linearGradient>
<linearGradient id="pf_0_69_550" x1="62.366" y1="38.68" x2="33.156" y2="65.387" gradientUnits="userSpaceOnUse">
<stop stop-color="#EFEAF6"/>
<stop offset="1" stop-color="#B5A8C3"/>
</linearGradient>
<linearGradient id="pf_0_69_551" x1="27.175" y1="87.837" x2="34.256" y2="46.771" gradientUnits="userSpaceOnUse">
<stop stop-color="#D0A9F4"/>
<stop offset="1" stop-color="#D0A9F4" stop-opacity="0"/>
</linearGradient>
<linearGradient id="pf_0_69_552" x1="62.885" y1="50.165" x2="38.147" y2="50.165" gradientUnits="userSpaceOnUse">
<stop stop-color="#D3C6E2"/>
<stop offset="1" stop-color="#D6C6E8"/>
</linearGradient>
<linearGradient id="pf_0_69_553" x1="23.269" y1="61.07" x2="62.716" y2="49.132" gradientUnits="userSpaceOnUse">
<stop stop-color="#E0D3EF"/>
<stop offset="1" stop-color="#C1B0D4"/>
</linearGradient>
<radialGradient id="pf_0_69_554" cx="0" cy="0" r="1" gradientUnits="userSpaceOnUse" gradientTransform="matrix(-16.348629 7.059782 -6.0157 -13.930803 23.571 25.659)">
<stop offset="0.837" stop-color="#F6ECFE" stop-opacity="0"/>
<stop offset="1" stop-color="#F6ECFE"/>
</radialGradient>
<radialGradient id="pf_0_69_555" cx="0" cy="0" r="1" gradientUnits="userSpaceOnUse" gradientTransform="matrix(10.523338 -9.243025 8.875098 10.104445 17.56 28.86)">
<stop offset="0.91" stop-color="#B396CF" stop-opacity="0"/>
<stop offset="0.992" stop-color="#B796D5"/>
</radialGradient>
<radialGradient id="pf_0_69_556" cx="0" cy="0" r="1" gradientUnits="userSpaceOnUse" gradientTransform="matrix(10.400391 8.105468 -9.185419 11.78611 18.732 26.468)">
<stop offset="0.926" stop-color="#AB9CBB" stop-opacity="0"/>
<stop offset="1" stop-color="#AB9CBB"/>
</radialGradient>
<filter id="filter69_557" x="28.804688" y="41.035156" width="9.543283" height="14.175005" filterUnits="userSpaceOnUse" color-interpolation-filters="sRGB">
<feFlood flood-opacity="0" result="BackgroundImageFix"/>
<feBlend mode="normal" in="SourceGraphic" in2="BackgroundImageFix" result="shape"/>
<feColorMatrix in="SourceAlpha" type="matrix" values="0 0 0 0 0 0 0 0 0 0 0 0 0 0 0 0 0 0 127 0" result="hardAlpha"/>
<feMorphology radius="0" operator="erode" in="SourceAlpha" result="0innershadow"/>
<feOffset dx="-0.3" dy="0.3"/>
<feGaussianBlur stdDeviation="0.3"/>
<feComposite in2="hardAlpha" operator="arithmetic" k2="-1" k3="1"/>
<feColorMatrix type="matrix" values="0 0 0 0 0.286275 0 0 0 0 0.223529 0 0 0 0 0.345098 0 0 0 1 0"/>
<feBlend mode="normal" in2="shape" result="0innershadow"/>
<feColorMatrix in="SourceAlpha" type="matrix" values="0 0 0 0 0 0 0 0 0 0 0 0 0 0 0 0 0 0 127 0" result="hardAlpha"/>
<feMorphology radius="0" operator="erode" in="SourceAlpha" result="1innershadow"/>
<feOffset dx="0.2" dy="-0.2"/>
<feGaussianBlur stdDeviation="0.2"/>
<feComposite in2="hardAlpha" operator="arithmetic" k2="-1" k3="1"/>
<feColorMatrix type="matrix" values="0 0 0 0 0.482353 0 0 0 0 0.47451 0 0 0 0 0.490196 0 0 0 1 0"/>
<feBlend mode="normal" in2="0innershadow" result="1innershadow"/>
</filter>
</defs>
</svg>
