<svg width="76" height="88" viewBox="0 0 76 88" fill="none" xmlns="http://www.w3.org/2000/svg" xmlns:xlink="http://www.w3.org/1999/xlink">
<g filter="url(#filter69_501)">
<path d="M31.86,3.099L45.185,25.862L26.385,31.206C13.4,26.915 5.754,18.655 1.141,10.168C-0.803,6.587 -0.787,0.012 6.941,0.012L26.466,0.012C27.556,0.012 28.628,0.297 29.574,0.839C30.521,1.381 31.308,2.158 31.86,3.099Z" fill="#4686EC"/>
<path d="M31.86,3.099L45.185,25.862L26.385,31.206C13.4,26.915 5.754,18.655 1.141,10.168C-0.803,6.587 -0.787,0.012 6.941,0.012L26.466,0.012C27.556,0.012 28.628,0.297 29.574,0.839C30.521,1.381 31.308,2.158 31.86,3.099Z" fill="url(#pf_0_69_503)"/>
<path d="M31.86,3.099L45.185,25.862L26.385,31.206C13.4,26.915 5.754,18.655 1.141,10.168C-0.803,6.587 -0.787,0.012 6.941,0.012L26.466,0.012C27.556,0.012 28.628,0.297 29.574,0.839C30.521,1.381 31.308,2.158 31.86,3.099Z" fill="url(#pf_0_69_504)"/>
</g>
<g filter="url(#filter69_505)">
<path d="M43.663,3.098L30.338,25.861L49.138,31.205C62.122,26.911 69.769,18.652 74.382,10.164C76.325,6.583 76.31,0.008 68.582,0.008L49.057,0.008C47.966,0.008 46.894,0.293 45.948,0.835C45.002,1.377 44.214,2.157 43.663,3.098Z" fill="#4686EC"/>
<path d="M43.663,3.098L30.338,25.861L49.138,31.205C62.122,26.911 69.769,18.652 74.382,10.164C76.325,6.583 76.31,0.008 68.582,0.008L49.057,0.008C47.966,0.008 46.894,0.293 45.948,0.835C45.002,1.377 44.214,2.157 43.663,3.098Z" fill="url(#pf_0_69_507)"/>
<path d="M43.663,3.098L30.338,25.861L49.138,31.205C62.122,26.911 69.769,18.652 74.382,10.164C76.325,6.583 76.31,0.008 68.582,0.008L49.057,0.008C47.966,0.008 46.894,0.293 45.948,0.835C45.002,1.377 44.214,2.157 43.663,3.098Z" fill="url(#pf_0_69_508)"/>
</g>
<path d="M43.663,3.098L30.338,25.861L49.138,31.205C62.122,26.911 69.769,18.652 74.382,10.164C76.325,6.583 76.31,0.008 68.582,0.008L49.057,0.008C47.966,0.008 46.894,0.293 45.948,0.835C45.002,1.377 44.214,2.157 43.663,3.098Z" fill="url(#pf_0_69_509)"/>
<path d="M38.147,86.312C55.489,86.312 69.547,72.254 69.547,54.912C69.547,37.57 55.489,23.512 38.147,23.512C20.805,23.512 6.747,37.57 6.747,54.912C6.747,72.254 20.805,86.312 38.147,86.312Z" fill="url(#pf_0_69_510)"/>
<path d="M38.147,86.312C55.489,86.312 69.547,72.254 69.547,54.912C69.547,37.57 55.489,23.512 38.147,23.512C20.805,23.512 6.747,37.57 6.747,54.912C6.747,72.254 20.805,86.312 38.147,86.312Z" fill="url(#pf_0_69_511)"/>
<path d="M38.147,82.062C53.142,82.062 65.297,69.906 65.297,54.912C65.297,39.917 53.142,27.762 38.147,27.762C23.153,27.762 10.997,39.917 10.997,54.912C10.997,69.906 23.153,82.062 38.147,82.062Z" fill="url(#pf_0_69_512)"/>
<path d="M38.148,78.613C51.238,78.613 61.851,68.001 61.851,54.91C61.851,41.819 51.238,31.207 38.148,31.207C25.057,31.207 14.444,41.819 14.444,54.91C14.444,68.001 25.057,78.613 38.148,78.613Z" fill="url(#pf_0_69_513)"/>
<path d="M38.148,78.613C51.238,78.613 61.851,68.001 61.851,54.91C61.851,41.819 51.238,31.207 38.148,31.207C25.057,31.207 14.444,41.819 14.444,54.91C14.444,68.001 25.057,78.613 38.148,78.613Z" fill="url(#pf_0_69_514)"/>
<path d="M38.148,78.613C51.238,78.613 61.851,68.001 61.851,54.91C61.851,41.819 51.238,31.207 38.148,31.207C25.057,31.207 14.444,41.819 14.444,54.91C14.444,68.001 25.057,78.613 38.148,78.613Z" fill="url(#pf_0_69_515)"/>
<g filter="url(#filter69_516)">
<path d="M41.813,44.5C41.813,43.837 41.549,43.201 41.08,42.732C40.611,42.263 39.976,42 39.313,42L33.25,42C32.918,42 32.601,42.132 32.366,42.366C32.132,42.601 32,42.918 32,43.25L32,46.928C32,47.616 32.556,48.178 33.25,48.178L34.634,48.178C34.842,48.178 35.04,48.26 35.187,48.407C35.333,48.553 35.416,48.752 35.416,48.959L35.416,67C35.416,67.414 35.58,67.812 35.873,68.105C36.166,68.398 36.564,68.562 36.978,68.562L40.25,68.562C40.664,68.562 41.062,68.398 41.355,68.105C41.648,67.812 41.813,67.414 41.813,67L41.813,44.5Z" fill="#6F3955"/>
</g>
<path d="M41.813,44.5C41.813,43.837 41.549,43.201 41.08,42.732C40.611,42.263 39.976,42 39.313,42L33.25,42C32.918,42 32.601,42.132 32.366,42.366C32.132,42.601 32,42.918 32,43.25L32,46.928C32,47.616 32.556,48.178 33.25,48.178L34.634,48.178C34.842,48.178 35.04,48.26 35.187,48.407C35.333,48.553 35.416,48.752 35.416,48.959L35.416,67C35.416,67.414 35.58,67.812 35.873,68.105C36.166,68.398 36.564,68.562 36.978,68.562L40.25,68.562C40.664,68.562 41.062,68.398 41.355,68.105C41.648,67.812 41.813,67.414 41.813,67L41.813,44.5Z" fill="url(#pf_0_69_518)"/>
<defs>
<filter id="filter69_501" x="0.063477" y="0.011719" width="22.760648" height="15.846874" filterUnits="userSpaceOnUse" color-interpolation-filters="sRGB">
<feFlood flood-opacity="0" result="BackgroundImageFix"/>
<feBlend mode="normal" in="SourceGraphic" in2="BackgroundImageFix" result="shape"/>
<feColorMatrix in="SourceAlpha" type="matrix" values="0 0 0 0 0 0 0 0 0 0 0 0 0 0 0 0 0 0 127 0" result="hardAlpha"/>
<feMorphology radius="0" operator="erode" in="SourceAlpha" result="0innershadow"/>
<feOffset dx="-0.2" dy="-0.2"/>
<feGaussianBlur stdDeviation="0.2"/>
<feComposite in2="hardAlpha" operator="arithmetic" k2="-1" k3="1"/>
<feColorMatrix type="matrix" values="0 0 0 0 0.317647 0 0 0 0 0.458824 0 0 0 0 0.886275 0 0 0 1 0"/>
<feBlend mode="normal" in2="shape" result="0innershadow"/>
<feColorMatrix in="SourceAlpha" type="matrix" values="0 0 0 0 0 0 0 0 0 0 0 0 0 0 0 0 0 0 127 0" result="hardAlpha"/>
<feMorphology radius="0" operator="erode" in="SourceAlpha" result="1innershadow"/>
<feOffset dx="0.2" dy="0.2"/>
<feGaussianBlur stdDeviation="0.2"/>
<feComposite in2="hardAlpha" operator="arithmetic" k2="-1" k3="1"/>
<feColorMatrix type="matrix" values="0 0 0 0 0.317647 0 0 0 0 0.458824 0 0 0 0 0.886275 0 0 0 1 0"/>
<feBlend mode="normal" in2="0innershadow" result="1innershadow"/>
<feColorMatrix in="SourceAlpha" type="matrix" values="0 0 0 0 0 0 0 0 0 0 0 0 0 0 0 0 0 0 127 0" result="hardAlpha"/>
<feMorphology radius="0" operator="erode" in="SourceAlpha" result="2innershadow"/>
<feOffset dx="-0.25" dy="0.25"/>
<feGaussianBlur stdDeviation="0.25"/>
<feComposite in2="hardAlpha" operator="arithmetic" k2="-1" k3="1"/>
<feColorMatrix type="matrix" values="0 0 0 0 0.372549 0 0 0 0 0.607843 0 0 0 0 0.960784 0 0 0 1 0"/>
<feBlend mode="normal" in2="1innershadow" result="2innershadow"/>
</filter>
<radialGradient id="pf_0_69_503" cx="0" cy="0" r="1" gradientUnits="userSpaceOnUse" gradientTransform="matrix(-3.951324 -6.010514 22.44686 -14.756611 14.475 14.502)">
<stop stop-color="#3669D9"/>
<stop offset="1" stop-color="#3669D9" stop-opacity="0"/>
</radialGradient>
<linearGradient id="pf_0_69_504" x1="8.569" y1="-1.679" x2="14.179" y2="12.29" gradientUnits="userSpaceOnUse">
<stop stop-color="#3D89EC"/>
<stop offset="1" stop-color="#3D89EC" stop-opacity="0"/>
</linearGradient>
<filter id="filter69_505" x="30.337891" y="0.007813" width="22.760648" height="15.848437" filterUnits="userSpaceOnUse" color-interpolation-filters="sRGB">
<feFlood flood-opacity="0" result="BackgroundImageFix"/>
<feBlend mode="normal" in="SourceGraphic" in2="BackgroundImageFix" result="shape"/>
<feColorMatrix in="SourceAlpha" type="matrix" values="0 0 0 0 0 0 0 0 0 0 0 0 0 0 0 0 0 0 127 0" result="hardAlpha"/>
<feMorphology radius="0" operator="erode" in="SourceAlpha" result="0innershadow"/>
<feOffset dx="-0.2" dy="-0.2"/>
<feGaussianBlur stdDeviation="0.2"/>
<feComposite in2="hardAlpha" operator="arithmetic" k2="-1" k3="1"/>
<feColorMatrix type="matrix" values="0 0 0 0 0.317647 0 0 0 0 0.458824 0 0 0 0 0.886275 0 0 0 1 0"/>
<feBlend mode="normal" in2="shape" result="0innershadow"/>
<feColorMatrix in="SourceAlpha" type="matrix" values="0 0 0 0 0 0 0 0 0 0 0 0 0 0 0 0 0 0 127 0" result="hardAlpha"/>
<feMorphology radius="0" operator="erode" in="SourceAlpha" result="1innershadow"/>
<feOffset dx="0.2" dy="0.2"/>
<feGaussianBlur stdDeviation="0.2"/>
<feComposite in2="hardAlpha" operator="arithmetic" k2="-1" k3="1"/>
<feColorMatrix type="matrix" values="0 0 0 0 0.317647 0 0 0 0 0.458824 0 0 0 0 0.886275 0 0 0 1 0"/>
<feBlend mode="normal" in2="0innershadow" result="1innershadow"/>
<feColorMatrix in="SourceAlpha" type="matrix" values="0 0 0 0 0 0 0 0 0 0 0 0 0 0 0 0 0 0 127 0" result="hardAlpha"/>
<feMorphology radius="0" operator="erode" in="SourceAlpha" result="2innershadow"/>
<feOffset dx="-0.25" dy="0.25"/>
<feGaussianBlur stdDeviation="0.25"/>
<feComposite in2="hardAlpha" operator="arithmetic" k2="-1" k3="1"/>
<feColorMatrix type="matrix" values="0 0 0 0 0.372549 0 0 0 0 0.607843 0 0 0 0 0.960784 0 0 0 1 0"/>
<feBlend mode="normal" in2="1innershadow" result="2innershadow"/>
</filter>
<radialGradient id="pf_0_69_507" cx="0" cy="0" r="1" gradientUnits="userSpaceOnUse" gradientTransform="matrix(2.575934 -4.007043 8.789457 5.650316 23.287 14.502)">
<stop stop-color="#3669D9"/>
<stop offset="1" stop-color="#3669D9" stop-opacity="0"/>
</radialGradient>
<linearGradient id="pf_0_69_508" x1="66.954" y1="-1.68" x2="61.344" y2="12.289" gradientUnits="userSpaceOnUse">
<stop stop-color="#3D89EC"/>
<stop offset="1" stop-color="#3D89EC" stop-opacity="0"/>
</linearGradient>
<linearGradient id="pf_0_69_509" x1="37.216" y1="14.07" x2="38.269" y2="14.655" gradientUnits="userSpaceOnUse">
<stop stop-color="#1A6DD8"/>
<stop offset="1" stop-color="#1A6DD8" stop-opacity="0"/>
</linearGradient>
<linearGradient id="pf_0_69_510" x1="54.931" y1="43.78" x2="33.041" y2="65.23" gradientUnits="userSpaceOnUse">
<stop stop-color="#F4C654"/>
<stop offset="1" stop-color="#DC9729"/>
</linearGradient>
<linearGradient id="pf_0_69_511" x1="27.175" y1="87.837" x2="34.256" y2="46.771" gradientUnits="userSpaceOnUse">
<stop stop-color="#FA8547"/>
<stop offset="1" stop-color="#FA8547" stop-opacity="0"/>
</linearGradient>
<linearGradient id="pf_0_69_512" x1="62.885" y1="50.165" x2="38.147" y2="50.165" gradientUnits="userSpaceOnUse">
<stop stop-color="#F9A842"/>
<stop offset="1" stop-color="#FAA742"/>
</linearGradient>
<linearGradient id="pf_0_69_513" x1="27.191" y1="51.904" x2="62.547" y2="51.904" gradientUnits="userSpaceOnUse">
<stop stop-color="#FAA945"/>
<stop offset="1" stop-color="#EC9936"/>
</linearGradient>
<radialGradient id="pf_0_69_514" cx="0" cy="0" r="1" gradientUnits="userSpaceOnUse" gradientTransform="matrix(-16.446406 0 0 -14.014139 23.669 27.455)">
<stop offset="0.893" stop-color="#F7B44D" stop-opacity="0"/>
<stop offset="1" stop-color="#F7B44D"/>
</radialGradient>
<radialGradient id="pf_0_69_515" cx="0" cy="0" r="1" gradientUnits="userSpaceOnUse" gradientTransform="matrix(15.825 0 0 13.877109 15.997 27.455)">
<stop offset="0.879" stop-color="#D2801F" stop-opacity="0"/>
<stop offset="0.983" stop-color="#D2801F"/>
</radialGradient>
<filter id="filter69_516" x="32" y="42" width="5.106249" height="13.58125" filterUnits="userSpaceOnUse" color-interpolation-filters="sRGB">
<feFlood flood-opacity="0" result="BackgroundImageFix"/>
<feBlend mode="normal" in="SourceGraphic" in2="BackgroundImageFix" result="shape"/>
<feColorMatrix in="SourceAlpha" type="matrix" values="0 0 0 0 0 0 0 0 0 0 0 0 0 0 0 0 0 0 127 0" result="hardAlpha"/>
<feMorphology radius="0" operator="erode" in="SourceAlpha" result="0innershadow"/>
<feOffset dx="-0.3" dy="0.3"/>
<feGaussianBlur stdDeviation="0.3"/>
<feComposite in2="hardAlpha" operator="arithmetic" k2="-1" k3="1"/>
<feColorMatrix type="matrix" values="0 0 0 0 0.392157 0 0 0 0 0.164706 0 0 0 0 0.254902 0 0 0 1 0"/>
<feBlend mode="normal" in2="shape" result="0innershadow"/>
<feColorMatrix in="SourceAlpha" type="matrix" values="0 0 0 0 0 0 0 0 0 0 0 0 0 0 0 0 0 0 127 0" result="hardAlpha"/>
<feMorphology radius="0" operator="erode" in="SourceAlpha" result="1innershadow"/>
<feOffset dx="0.2" dy="-0.2"/>
<feGaussianBlur stdDeviation="0.2"/>
<feComposite in2="hardAlpha" operator="arithmetic" k2="-1" k3="1"/>
<feColorMatrix type="matrix" values="0 0 0 0 0.501961 0 0 0 0 0.333333 0 0 0 0 0.360784 0 0 0 1 0"/>
<feBlend mode="normal" in2="0innershadow" result="1innershadow"/>
</filter>
<linearGradient id="pf_0_69_518" x1="39.322" y1="68.563" x2="39.322" y2="66.009" gradientUnits="userSpaceOnUse">
<stop stop-color="#693B2E"/>
<stop offset="1" stop-color="#693B2E" stop-opacity="0"/>
</linearGradient>
</defs>
</svg>
