<svg width="76" height="88" viewBox="0 0 76 88" fill="none" xmlns="http://www.w3.org/2000/svg" xmlns:xlink="http://www.w3.org/1999/xlink">
<g filter="url(#filter65_1060)">
<path d="M31.859,3.099L45.184,25.862L26.384,31.206C13.399,26.915 5.753,18.655 1.14,10.168C-0.804,6.587 -0.788,0.012 6.94,0.012L26.465,0.012C27.555,0.012 28.627,0.297 29.573,0.839C30.52,1.381 31.307,2.158 31.859,3.099Z" fill="#4686EC"/>
<path d="M31.859,3.099L45.184,25.862L26.384,31.206C13.399,26.915 5.753,18.655 1.14,10.168C-0.804,6.587 -0.788,0.012 6.94,0.012L26.465,0.012C27.555,0.012 28.627,0.297 29.573,0.839C30.52,1.381 31.307,2.158 31.859,3.099Z" fill="url(#pf_0_65_1062)"/>
<path d="M31.859,3.099L45.184,25.862L26.384,31.206C13.399,26.915 5.753,18.655 1.14,10.168C-0.804,6.587 -0.788,0.012 6.94,0.012L26.465,0.012C27.555,0.012 28.627,0.297 29.573,0.839C30.52,1.381 31.307,2.158 31.859,3.099Z" fill="url(#pf_0_65_1063)"/>
</g>
<g filter="url(#filter65_1064)">
<path d="M43.663,3.098L30.338,25.861L49.138,31.205C62.122,26.911 69.769,18.652 74.382,10.164C76.325,6.583 76.31,0.008 68.582,0.008L49.057,0.008C47.966,0.008 46.894,0.293 45.948,0.835C45.002,1.377 44.214,2.157 43.663,3.098Z" fill="#4686EC"/>
<path d="M43.663,3.098L30.338,25.861L49.138,31.205C62.122,26.911 69.769,18.652 74.382,10.164C76.325,6.583 76.31,0.008 68.582,0.008L49.057,0.008C47.966,0.008 46.894,0.293 45.948,0.835C45.002,1.377 44.214,2.157 43.663,3.098Z" fill="url(#pf_0_65_1066)"/>
<path d="M43.663,3.098L30.338,25.861L49.138,31.205C62.122,26.911 69.769,18.652 74.382,10.164C76.325,6.583 76.31,0.008 68.582,0.008L49.057,0.008C47.966,0.008 46.894,0.293 45.948,0.835C45.002,1.377 44.214,2.157 43.663,3.098Z" fill="url(#pf_0_65_1067)"/>
</g>
<path d="M43.663,3.098L30.338,25.861L49.138,31.205C62.122,26.911 69.769,18.652 74.382,10.164C76.325,6.583 76.31,0.008 68.582,0.008L49.057,0.008C47.966,0.008 46.894,0.293 45.948,0.835C45.002,1.377 44.214,2.157 43.663,3.098Z" fill="url(#pf_0_65_1068)"/>
<path d="M38.146,86.312C55.488,86.312 69.546,72.254 69.546,54.912C69.546,37.57 55.488,23.512 38.146,23.512C20.804,23.512 6.746,37.57 6.746,54.912C6.746,72.254 20.804,86.312 38.146,86.312Z" fill="url(#pf_0_65_1069)"/>
<path d="M38.146,86.312C55.488,86.312 69.546,72.254 69.546,54.912C69.546,37.57 55.488,23.512 38.146,23.512C20.804,23.512 6.746,37.57 6.746,54.912C6.746,72.254 20.804,86.312 38.146,86.312Z" fill="url(#pf_0_65_1070)"/>
<path d="M38.146,82.062C53.141,82.062 65.296,69.906 65.296,54.912C65.296,39.917 53.141,27.762 38.146,27.762C23.152,27.762 10.996,39.917 10.996,54.912C10.996,69.906 23.152,82.062 38.146,82.062Z" fill="url(#pf_0_65_1071)"/>
<path d="M38.147,78.613C51.237,78.613 61.85,68.001 61.85,54.91C61.85,41.819 51.237,31.207 38.147,31.207C25.056,31.207 14.443,41.819 14.443,54.91C14.443,68.001 25.056,78.613 38.147,78.613Z" fill="url(#pf_0_65_1072)"/>
<path d="M38.147,78.613C51.237,78.613 61.85,68.001 61.85,54.91C61.85,41.819 51.237,31.207 38.147,31.207C25.056,31.207 14.443,41.819 14.443,54.91C14.443,68.001 25.056,78.613 38.147,78.613Z" fill="url(#pf_0_65_1073)"/>
<path d="M38.147,78.613C51.237,78.613 61.85,68.001 61.85,54.91C61.85,41.819 51.237,31.207 38.147,31.207C25.056,31.207 14.443,41.819 14.443,54.91C14.443,68.001 25.056,78.613 38.147,78.613Z" fill="url(#pf_0_65_1074)"/>
<g filter="url(#filter65_1075)">
<path d="M41.813,44.5C41.813,43.837 41.549,43.201 41.08,42.732C40.611,42.263 39.976,42 39.313,42L33.25,42C32.918,42 32.601,42.132 32.366,42.366C32.132,42.601 32,42.918 32,43.25L32,46.928C32,47.616 32.556,48.178 33.25,48.178L34.634,48.178C34.842,48.178 35.04,48.26 35.187,48.407C35.333,48.553 35.416,48.752 35.416,48.959L35.416,67C35.416,67.414 35.58,67.812 35.873,68.105C36.166,68.398 36.564,68.562 36.978,68.562L40.25,68.562C40.664,68.562 41.062,68.398 41.355,68.105C41.648,67.812 41.813,67.414 41.813,67L41.813,44.5Z" fill="#6F3955"/>
</g>
<path d="M41.813,44.5C41.813,43.837 41.549,43.201 41.08,42.732C40.611,42.263 39.976,42 39.313,42L33.25,42C32.918,42 32.601,42.132 32.366,42.366C32.132,42.601 32,42.918 32,43.25L32,46.928C32,47.616 32.556,48.178 33.25,48.178L34.634,48.178C34.842,48.178 35.04,48.26 35.187,48.407C35.333,48.553 35.416,48.752 35.416,48.959L35.416,67C35.416,67.414 35.58,67.812 35.873,68.105C36.166,68.398 36.564,68.562 36.978,68.562L40.25,68.562C40.664,68.562 41.062,68.398 41.355,68.105C41.648,67.812 41.813,67.414 41.813,67L41.813,44.5Z" fill="url(#pf_0_65_1077)"/>
<defs>
<filter id="filter65_1060" x="0.0625" y="0.011719" width="22.760648" height="15.846874" filterUnits="userSpaceOnUse" color-interpolation-filters="sRGB">
<feFlood flood-opacity="0" result="BackgroundImageFix"/>
<feBlend mode="normal" in="SourceGraphic" in2="BackgroundImageFix" result="shape"/>
<feColorMatrix in="SourceAlpha" type="matrix" values="0 0 0 0 0 0 0 0 0 0 0 0 0 0 0 0 0 0 127 0" result="hardAlpha"/>
<feMorphology radius="0" operator="erode" in="SourceAlpha" result="0innershadow"/>
<feOffset dx="-0.2" dy="-0.2"/>
<feGaussianBlur stdDeviation="0.2"/>
<feComposite in2="hardAlpha" operator="arithmetic" k2="-1" k3="1"/>
<feColorMatrix type="matrix" values="0 0 0 0 0.317647 0 0 0 0 0.458824 0 0 0 0 0.886275 0 0 0 1 0"/>
<feBlend mode="normal" in2="shape" result="0innershadow"/>
<feColorMatrix in="SourceAlpha" type="matrix" values="0 0 0 0 0 0 0 0 0 0 0 0 0 0 0 0 0 0 127 0" result="hardAlpha"/>
<feMorphology radius="0" operator="erode" in="SourceAlpha" result="1innershadow"/>
<feOffset dx="0.2" dy="0.2"/>
<feGaussianBlur stdDeviation="0.2"/>
<feComposite in2="hardAlpha" operator="arithmetic" k2="-1" k3="1"/>
<feColorMatrix type="matrix" values="0 0 0 0 0.317647 0 0 0 0 0.458824 0 0 0 0 0.886275 0 0 0 1 0"/>
<feBlend mode="normal" in2="0innershadow" result="1innershadow"/>
<feColorMatrix in="SourceAlpha" type="matrix" values="0 0 0 0 0 0 0 0 0 0 0 0 0 0 0 0 0 0 127 0" result="hardAlpha"/>
<feMorphology radius="0" operator="erode" in="SourceAlpha" result="2innershadow"/>
<feOffset dx="-0.25" dy="0.25"/>
<feGaussianBlur stdDeviation="0.25"/>
<feComposite in2="hardAlpha" operator="arithmetic" k2="-1" k3="1"/>
<feColorMatrix type="matrix" values="0 0 0 0 0.372549 0 0 0 0 0.607843 0 0 0 0 0.960784 0 0 0 1 0"/>
<feBlend mode="normal" in2="1innershadow" result="2innershadow"/>
</filter>
<radialGradient id="pf_0_65_1062" cx="0" cy="0" r="1" gradientUnits="userSpaceOnUse" gradientTransform="matrix(-3.951324 -6.010514 22.44686 -14.756611 14.474 14.502)">
<stop stop-color="#3669D9"/>
<stop offset="1" stop-color="#3669D9" stop-opacity="0"/>
</radialGradient>
<linearGradient id="pf_0_65_1063" x1="8.568" y1="-1.679" x2="14.178" y2="12.29" gradientUnits="userSpaceOnUse">
<stop stop-color="#3D89EC"/>
<stop offset="1" stop-color="#3D89EC" stop-opacity="0"/>
</linearGradient>
<filter id="filter65_1064" x="30.337891" y="0.007813" width="22.760648" height="15.848437" filterUnits="userSpaceOnUse" color-interpolation-filters="sRGB">
<feFlood flood-opacity="0" result="BackgroundImageFix"/>
<feBlend mode="normal" in="SourceGraphic" in2="BackgroundImageFix" result="shape"/>
<feColorMatrix in="SourceAlpha" type="matrix" values="0 0 0 0 0 0 0 0 0 0 0 0 0 0 0 0 0 0 127 0" result="hardAlpha"/>
<feMorphology radius="0" operator="erode" in="SourceAlpha" result="0innershadow"/>
<feOffset dx="-0.2" dy="-0.2"/>
<feGaussianBlur stdDeviation="0.2"/>
<feComposite in2="hardAlpha" operator="arithmetic" k2="-1" k3="1"/>
<feColorMatrix type="matrix" values="0 0 0 0 0.317647 0 0 0 0 0.458824 0 0 0 0 0.886275 0 0 0 1 0"/>
<feBlend mode="normal" in2="shape" result="0innershadow"/>
<feColorMatrix in="SourceAlpha" type="matrix" values="0 0 0 0 0 0 0 0 0 0 0 0 0 0 0 0 0 0 127 0" result="hardAlpha"/>
<feMorphology radius="0" operator="erode" in="SourceAlpha" result="1innershadow"/>
<feOffset dx="0.2" dy="0.2"/>
<feGaussianBlur stdDeviation="0.2"/>
<feComposite in2="hardAlpha" operator="arithmetic" k2="-1" k3="1"/>
<feColorMatrix type="matrix" values="0 0 0 0 0.317647 0 0 0 0 0.458824 0 0 0 0 0.886275 0 0 0 1 0"/>
<feBlend mode="normal" in2="0innershadow" result="1innershadow"/>
<feColorMatrix in="SourceAlpha" type="matrix" values="0 0 0 0 0 0 0 0 0 0 0 0 0 0 0 0 0 0 127 0" result="hardAlpha"/>
<feMorphology radius="0" operator="erode" in="SourceAlpha" result="2innershadow"/>
<feOffset dx="-0.25" dy="0.25"/>
<feGaussianBlur stdDeviation="0.25"/>
<feComposite in2="hardAlpha" operator="arithmetic" k2="-1" k3="1"/>
<feColorMatrix type="matrix" values="0 0 0 0 0.372549 0 0 0 0 0.607843 0 0 0 0 0.960784 0 0 0 1 0"/>
<feBlend mode="normal" in2="1innershadow" result="2innershadow"/>
</filter>
<radialGradient id="pf_0_65_1066" cx="0" cy="0" r="1" gradientUnits="userSpaceOnUse" gradientTransform="matrix(2.575934 -4.007043 8.789457 5.650316 23.287 14.502)">
<stop stop-color="#3669D9"/>
<stop offset="1" stop-color="#3669D9" stop-opacity="0"/>
</radialGradient>
<linearGradient id="pf_0_65_1067" x1="66.954" y1="-1.68" x2="61.344" y2="12.289" gradientUnits="userSpaceOnUse">
<stop stop-color="#3D89EC"/>
<stop offset="1" stop-color="#3D89EC" stop-opacity="0"/>
</linearGradient>
<linearGradient id="pf_0_65_1068" x1="37.216" y1="14.07" x2="38.269" y2="14.655" gradientUnits="userSpaceOnUse">
<stop stop-color="#1A6DD8"/>
<stop offset="1" stop-color="#1A6DD8" stop-opacity="0"/>
</linearGradient>
<linearGradient id="pf_0_65_1069" x1="54.93" y1="43.78" x2="33.04" y2="65.23" gradientUnits="userSpaceOnUse">
<stop stop-color="#F4C654"/>
<stop offset="1" stop-color="#DC9729"/>
</linearGradient>
<linearGradient id="pf_0_65_1070" x1="27.174" y1="87.837" x2="34.255" y2="46.771" gradientUnits="userSpaceOnUse">
<stop stop-color="#FA8547"/>
<stop offset="1" stop-color="#FA8547" stop-opacity="0"/>
</linearGradient>
<linearGradient id="pf_0_65_1071" x1="62.884" y1="50.165" x2="38.146" y2="50.165" gradientUnits="userSpaceOnUse">
<stop stop-color="#F9A842"/>
<stop offset="1" stop-color="#FAA742"/>
</linearGradient>
<linearGradient id="pf_0_65_1072" x1="27.19" y1="51.904" x2="62.546" y2="51.904" gradientUnits="userSpaceOnUse">
<stop stop-color="#FAA945"/>
<stop offset="1" stop-color="#EC9936"/>
</linearGradient>
<radialGradient id="pf_0_65_1073" cx="0" cy="0" r="1" gradientUnits="userSpaceOnUse" gradientTransform="matrix(-16.446406 0 0 -14.014139 23.669 27.455)">
<stop offset="0.893" stop-color="#F7B44D" stop-opacity="0"/>
<stop offset="1" stop-color="#F7B44D"/>
</radialGradient>
<radialGradient id="pf_0_65_1074" cx="0" cy="0" r="1" gradientUnits="userSpaceOnUse" gradientTransform="matrix(15.825 0 0 13.877109 15.997 27.455)">
<stop offset="0.879" stop-color="#D2801F" stop-opacity="0"/>
<stop offset="0.983" stop-color="#D2801F"/>
</radialGradient>
<filter id="filter65_1075" x="32" y="42" width="5.106249" height="13.58125" filterUnits="userSpaceOnUse" color-interpolation-filters="sRGB">
<feFlood flood-opacity="0" result="BackgroundImageFix"/>
<feBlend mode="normal" in="SourceGraphic" in2="BackgroundImageFix" result="shape"/>
<feColorMatrix in="SourceAlpha" type="matrix" values="0 0 0 0 0 0 0 0 0 0 0 0 0 0 0 0 0 0 127 0" result="hardAlpha"/>
<feMorphology radius="0" operator="erode" in="SourceAlpha" result="0innershadow"/>
<feOffset dx="-0.3" dy="0.3"/>
<feGaussianBlur stdDeviation="0.3"/>
<feComposite in2="hardAlpha" operator="arithmetic" k2="-1" k3="1"/>
<feColorMatrix type="matrix" values="0 0 0 0 0.392157 0 0 0 0 0.164706 0 0 0 0 0.254902 0 0 0 1 0"/>
<feBlend mode="normal" in2="shape" result="0innershadow"/>
<feColorMatrix in="SourceAlpha" type="matrix" values="0 0 0 0 0 0 0 0 0 0 0 0 0 0 0 0 0 0 127 0" result="hardAlpha"/>
<feMorphology radius="0" operator="erode" in="SourceAlpha" result="1innershadow"/>
<feOffset dx="0.2" dy="-0.2"/>
<feGaussianBlur stdDeviation="0.2"/>
<feComposite in2="hardAlpha" operator="arithmetic" k2="-1" k3="1"/>
<feColorMatrix type="matrix" values="0 0 0 0 0.501961 0 0 0 0 0.333333 0 0 0 0 0.360784 0 0 0 1 0"/>
<feBlend mode="normal" in2="0innershadow" result="1innershadow"/>
</filter>
<linearGradient id="pf_0_65_1077" x1="39.322" y1="68.563" x2="39.322" y2="66.009" gradientUnits="userSpaceOnUse">
<stop stop-color="#693B2E"/>
<stop offset="1" stop-color="#693B2E" stop-opacity="0"/>
</linearGradient>
</defs>
</svg>
