<svg width="76" height="88" viewBox="0 0 76 88" fill="none" xmlns="http://www.w3.org/2000/svg" xmlns:xlink="http://www.w3.org/1999/xlink">
<g filter="url(#filter69_581)">
<path d="M31.86,3.099L45.185,25.862L26.385,31.206C13.4,26.915 5.754,18.655 1.141,10.168C-0.803,6.587 -0.787,0.012 6.941,0.012L26.466,0.012C27.556,0.012 28.628,0.297 29.574,0.839C30.521,1.381 31.308,2.158 31.86,3.099Z" fill="#4686EC"/>
<path d="M31.86,3.099L45.185,25.862L26.385,31.206C13.4,26.915 5.754,18.655 1.141,10.168C-0.803,6.587 -0.787,0.012 6.941,0.012L26.466,0.012C27.556,0.012 28.628,0.297 29.574,0.839C30.521,1.381 31.308,2.158 31.86,3.099Z" fill="url(#pf_0_69_583)"/>
<path d="M31.86,3.099L45.185,25.862L26.385,31.206C13.4,26.915 5.754,18.655 1.141,10.168C-0.803,6.587 -0.787,0.012 6.941,0.012L26.466,0.012C27.556,0.012 28.628,0.297 29.574,0.839C30.521,1.381 31.308,2.158 31.86,3.099Z" fill="url(#pf_0_69_584)"/>
</g>
<g filter="url(#filter69_585)">
<path d="M43.663,3.098L30.338,25.861L49.138,31.205C62.122,26.911 69.769,18.652 74.382,10.164C76.325,6.583 76.31,0.008 68.582,0.008L49.057,0.008C47.966,0.008 46.894,0.293 45.948,0.835C45.002,1.377 44.214,2.157 43.663,3.098Z" fill="#4686EC"/>
<path d="M43.663,3.098L30.338,25.861L49.138,31.205C62.122,26.911 69.769,18.652 74.382,10.164C76.325,6.583 76.31,0.008 68.582,0.008L49.057,0.008C47.966,0.008 46.894,0.293 45.948,0.835C45.002,1.377 44.214,2.157 43.663,3.098Z" fill="url(#pf_0_69_587)"/>
<path d="M43.663,3.098L30.338,25.861L49.138,31.205C62.122,26.911 69.769,18.652 74.382,10.164C76.325,6.583 76.31,0.008 68.582,0.008L49.057,0.008C47.966,0.008 46.894,0.293 45.948,0.835C45.002,1.377 44.214,2.157 43.663,3.098Z" fill="url(#pf_0_69_588)"/>
</g>
<path d="M43.663,3.098L30.338,25.861L49.138,31.205C62.122,26.911 69.769,18.652 74.382,10.164C76.325,6.583 76.31,0.008 68.582,0.008L49.057,0.008C47.966,0.008 46.894,0.293 45.948,0.835C45.002,1.377 44.214,2.157 43.663,3.098Z" fill="url(#pf_0_69_589)"/>
<path d="M38.147,86.312C55.489,86.312 69.547,72.254 69.547,54.912C69.547,37.57 55.489,23.512 38.147,23.512C20.805,23.512 6.747,37.57 6.747,54.912C6.747,72.254 20.805,86.312 38.147,86.312Z" fill="url(#pf_0_69_590)"/>
<path d="M38.147,86.312C55.489,86.312 69.547,72.254 69.547,54.912C69.547,37.57 55.489,23.512 38.147,23.512C20.805,23.512 6.747,37.57 6.747,54.912C6.747,72.254 20.805,86.312 38.147,86.312Z" fill="url(#pf_0_69_591)"/>
<path d="M38.147,82.062C53.142,82.062 65.297,69.906 65.297,54.912C65.297,39.917 53.142,27.762 38.147,27.762C23.153,27.762 10.997,39.917 10.997,54.912C10.997,69.906 23.153,82.062 38.147,82.062Z" fill="url(#pf_0_69_592)"/>
<path d="M38.148,78.613C51.238,78.613 61.851,68.001 61.851,54.91C61.851,41.819 51.238,31.207 38.148,31.207C25.057,31.207 14.444,41.819 14.444,54.91C14.444,68.001 25.057,78.613 38.148,78.613Z" fill="url(#pf_0_69_593)"/>
<path d="M38.148,78.613C51.238,78.613 61.851,68.001 61.851,54.91C61.851,41.819 51.238,31.207 38.148,31.207C25.057,31.207 14.444,41.819 14.444,54.91C14.444,68.001 25.057,78.613 38.148,78.613Z" fill="url(#pf_0_69_594)"/>
<path d="M38.148,78.613C51.238,78.613 61.851,68.001 61.851,54.91C61.851,41.819 51.238,31.207 38.148,31.207C25.057,31.207 14.444,41.819 14.444,54.91C14.444,68.001 25.057,78.613 38.148,78.613Z" fill="url(#pf_0_69_595)"/>
<path d="M38.148,78.613C51.238,78.613 61.851,68.001 61.851,54.91C61.851,41.819 51.238,31.207 38.148,31.207C25.057,31.207 14.444,41.819 14.444,54.91C14.444,68.001 25.057,78.613 38.148,78.613Z" fill="url(#pf_0_69_596)"/>
<g filter="url(#filter69_597)">
<path d="M42.563,50.359L45.832,44.703C46.097,44.239 46.237,43.713 46.237,43.178C46.237,42.643 46.097,42.118 45.832,41.653C45.567,41.189 45.183,40.803 44.72,40.534C44.258,40.266 43.732,40.125 43.197,40.125L33.532,40.125C32.722,40.125 31.946,40.447 31.374,41.019C30.802,41.591 30.48,42.367 30.48,43.177C30.48,43.986 30.802,44.762 31.374,45.334C31.946,45.907 32.722,46.228 33.532,46.228L36.569,46.228C36.706,46.228 36.84,46.264 36.959,46.332C37.078,46.401 37.176,46.499 37.245,46.617C37.313,46.736 37.35,46.87 37.35,47.007C37.351,47.144 37.315,47.278 37.247,47.397L35.566,50.328C35.136,50.859 34.9,51.52 34.897,52.203C34.897,53.887 36.266,55.253 37.95,55.253C39.857,55.253 41.413,56.809 41.413,58.716C41.413,60.622 39.857,62.181 37.95,62.181C37.24,62.182 36.546,61.963 35.965,61.553C35.384,61.143 34.945,60.564 34.707,59.894C34.435,59.137 33.875,58.519 33.149,58.174C32.423,57.829 31.59,57.784 30.832,58.05C30.455,58.182 30.108,58.387 29.811,58.653C29.514,58.92 29.273,59.242 29.101,59.603C28.93,59.963 28.832,60.354 28.812,60.753C28.793,61.151 28.852,61.55 28.988,61.925C29.652,63.771 30.868,65.368 32.471,66.5C34.074,67.631 35.986,68.242 37.947,68.25C40.475,68.248 42.899,67.244 44.686,65.457C46.474,63.67 47.479,61.246 47.482,58.719C47.478,57.013 47.019,55.34 46.153,53.871C45.288,52.402 44.046,51.19 42.557,50.359Z" fill="#6C3F48"/>
</g>
<defs>
<filter id="filter69_581" x="0.063477" y="0.011719" width="22.760648" height="15.846874" filterUnits="userSpaceOnUse" color-interpolation-filters="sRGB">
<feFlood flood-opacity="0" result="BackgroundImageFix"/>
<feBlend mode="normal" in="SourceGraphic" in2="BackgroundImageFix" result="shape"/>
<feColorMatrix in="SourceAlpha" type="matrix" values="0 0 0 0 0 0 0 0 0 0 0 0 0 0 0 0 0 0 127 0" result="hardAlpha"/>
<feMorphology radius="0" operator="erode" in="SourceAlpha" result="0innershadow"/>
<feOffset dx="-0.2" dy="-0.2"/>
<feGaussianBlur stdDeviation="0.2"/>
<feComposite in2="hardAlpha" operator="arithmetic" k2="-1" k3="1"/>
<feColorMatrix type="matrix" values="0 0 0 0 0.317647 0 0 0 0 0.458824 0 0 0 0 0.886275 0 0 0 1 0"/>
<feBlend mode="normal" in2="shape" result="0innershadow"/>
<feColorMatrix in="SourceAlpha" type="matrix" values="0 0 0 0 0 0 0 0 0 0 0 0 0 0 0 0 0 0 127 0" result="hardAlpha"/>
<feMorphology radius="0" operator="erode" in="SourceAlpha" result="1innershadow"/>
<feOffset dx="0.2" dy="0.2"/>
<feGaussianBlur stdDeviation="0.2"/>
<feComposite in2="hardAlpha" operator="arithmetic" k2="-1" k3="1"/>
<feColorMatrix type="matrix" values="0 0 0 0 0.317647 0 0 0 0 0.458824 0 0 0 0 0.886275 0 0 0 1 0"/>
<feBlend mode="normal" in2="0innershadow" result="1innershadow"/>
<feColorMatrix in="SourceAlpha" type="matrix" values="0 0 0 0 0 0 0 0 0 0 0 0 0 0 0 0 0 0 127 0" result="hardAlpha"/>
<feMorphology radius="0" operator="erode" in="SourceAlpha" result="2innershadow"/>
<feOffset dx="-0.25" dy="0.25"/>
<feGaussianBlur stdDeviation="0.25"/>
<feComposite in2="hardAlpha" operator="arithmetic" k2="-1" k3="1"/>
<feColorMatrix type="matrix" values="0 0 0 0 0.372549 0 0 0 0 0.607843 0 0 0 0 0.960784 0 0 0 1 0"/>
<feBlend mode="normal" in2="1innershadow" result="2innershadow"/>
</filter>
<radialGradient id="pf_0_69_583" cx="0" cy="0" r="1" gradientUnits="userSpaceOnUse" gradientTransform="matrix(-3.951324 -6.010514 22.44686 -14.756611 14.475 14.502)">
<stop stop-color="#3669D9"/>
<stop offset="1" stop-color="#3669D9" stop-opacity="0"/>
</radialGradient>
<linearGradient id="pf_0_69_584" x1="8.569" y1="-1.679" x2="14.179" y2="12.29" gradientUnits="userSpaceOnUse">
<stop stop-color="#3D89EC"/>
<stop offset="1" stop-color="#3D89EC" stop-opacity="0"/>
</linearGradient>
<filter id="filter69_585" x="30.337891" y="0.007813" width="22.760648" height="15.848437" filterUnits="userSpaceOnUse" color-interpolation-filters="sRGB">
<feFlood flood-opacity="0" result="BackgroundImageFix"/>
<feBlend mode="normal" in="SourceGraphic" in2="BackgroundImageFix" result="shape"/>
<feColorMatrix in="SourceAlpha" type="matrix" values="0 0 0 0 0 0 0 0 0 0 0 0 0 0 0 0 0 0 127 0" result="hardAlpha"/>
<feMorphology radius="0" operator="erode" in="SourceAlpha" result="0innershadow"/>
<feOffset dx="-0.2" dy="-0.2"/>
<feGaussianBlur stdDeviation="0.2"/>
<feComposite in2="hardAlpha" operator="arithmetic" k2="-1" k3="1"/>
<feColorMatrix type="matrix" values="0 0 0 0 0.317647 0 0 0 0 0.458824 0 0 0 0 0.886275 0 0 0 1 0"/>
<feBlend mode="normal" in2="shape" result="0innershadow"/>
<feColorMatrix in="SourceAlpha" type="matrix" values="0 0 0 0 0 0 0 0 0 0 0 0 0 0 0 0 0 0 127 0" result="hardAlpha"/>
<feMorphology radius="0" operator="erode" in="SourceAlpha" result="1innershadow"/>
<feOffset dx="0.2" dy="0.2"/>
<feGaussianBlur stdDeviation="0.2"/>
<feComposite in2="hardAlpha" operator="arithmetic" k2="-1" k3="1"/>
<feColorMatrix type="matrix" values="0 0 0 0 0.317647 0 0 0 0 0.458824 0 0 0 0 0.886275 0 0 0 1 0"/>
<feBlend mode="normal" in2="0innershadow" result="1innershadow"/>
<feColorMatrix in="SourceAlpha" type="matrix" values="0 0 0 0 0 0 0 0 0 0 0 0 0 0 0 0 0 0 127 0" result="hardAlpha"/>
<feMorphology radius="0" operator="erode" in="SourceAlpha" result="2innershadow"/>
<feOffset dx="-0.25" dy="0.25"/>
<feGaussianBlur stdDeviation="0.25"/>
<feComposite in2="hardAlpha" operator="arithmetic" k2="-1" k3="1"/>
<feColorMatrix type="matrix" values="0 0 0 0 0.372549 0 0 0 0 0.607843 0 0 0 0 0.960784 0 0 0 1 0"/>
<feBlend mode="normal" in2="1innershadow" result="2innershadow"/>
</filter>
<radialGradient id="pf_0_69_587" cx="0" cy="0" r="1" gradientUnits="userSpaceOnUse" gradientTransform="matrix(2.575934 -4.007043 8.789457 5.650316 23.287 14.502)">
<stop stop-color="#3669D9"/>
<stop offset="1" stop-color="#3669D9" stop-opacity="0"/>
</radialGradient>
<linearGradient id="pf_0_69_588" x1="66.954" y1="-1.68" x2="61.344" y2="12.289" gradientUnits="userSpaceOnUse">
<stop stop-color="#3D89EC"/>
<stop offset="1" stop-color="#3D89EC" stop-opacity="0"/>
</linearGradient>
<linearGradient id="pf_0_69_589" x1="37.216" y1="14.07" x2="38.269" y2="14.655" gradientUnits="userSpaceOnUse">
<stop stop-color="#1A6DD8"/>
<stop offset="1" stop-color="#1A6DD8" stop-opacity="0"/>
</linearGradient>
<linearGradient id="pf_0_69_590" x1="62.366" y1="38.68" x2="33.156" y2="65.387" gradientUnits="userSpaceOnUse">
<stop stop-color="#F6BC7F"/>
<stop offset="1" stop-color="#A76740"/>
</linearGradient>
<linearGradient id="pf_0_69_591" x1="27.175" y1="87.837" x2="34.256" y2="46.771" gradientUnits="userSpaceOnUse">
<stop stop-color="#B05B5B"/>
<stop offset="1" stop-color="#B05B5B" stop-opacity="0"/>
</linearGradient>
<linearGradient id="pf_0_69_592" x1="62.885" y1="50.165" x2="38.147" y2="50.165" gradientUnits="userSpaceOnUse">
<stop stop-color="#CD8858"/>
<stop offset="1" stop-color="#D28D59"/>
</linearGradient>
<linearGradient id="pf_0_69_593" x1="23.269" y1="61.07" x2="62.716" y2="49.132" gradientUnits="userSpaceOnUse">
<stop stop-color="#D38E5F"/>
<stop offset="1" stop-color="#BE794E"/>
</linearGradient>
<radialGradient id="pf_0_69_594" cx="0" cy="0" r="1" gradientUnits="userSpaceOnUse" gradientTransform="matrix(-16.348629 7.059782 -6.0157 -13.930803 23.571 25.659)">
<stop offset="0.837" stop-color="#E5AC75" stop-opacity="0"/>
<stop offset="1" stop-color="#E5AC75"/>
</radialGradient>
<radialGradient id="pf_0_69_595" cx="0" cy="0" r="1" gradientUnits="userSpaceOnUse" gradientTransform="matrix(10.523338 -9.243025 8.875098 10.104445 17.56 28.86)">
<stop offset="0.91" stop-color="#B36441" stop-opacity="0"/>
<stop offset="1" stop-color="#B36441"/>
</radialGradient>
<radialGradient id="pf_0_69_596" cx="0" cy="0" r="1" gradientUnits="userSpaceOnUse" gradientTransform="matrix(10.400391 8.105468 -9.185419 11.78611 18.732 26.468)">
<stop offset="0.926" stop-color="#AB662B" stop-opacity="0"/>
<stop offset="1" stop-color="#AB662B"/>
</radialGradient>
<filter id="filter69_597" x="28.808594" y="40.125" width="9.536576" height="14.3625" filterUnits="userSpaceOnUse" color-interpolation-filters="sRGB">
<feFlood flood-opacity="0" result="BackgroundImageFix"/>
<feBlend mode="normal" in="SourceGraphic" in2="BackgroundImageFix" result="shape"/>
<feColorMatrix in="SourceAlpha" type="matrix" values="0 0 0 0 0 0 0 0 0 0 0 0 0 0 0 0 0 0 127 0" result="hardAlpha"/>
<feMorphology radius="0" operator="erode" in="SourceAlpha" result="0innershadow"/>
<feOffset dx="-0.3" dy="0.3"/>
<feGaussianBlur stdDeviation="0.3"/>
<feComposite in2="hardAlpha" operator="arithmetic" k2="-1" k3="1"/>
<feColorMatrix type="matrix" values="0 0 0 0 0.270588 0 0 0 0 0.113725 0 0 0 0 0.07451 0 0 0 1 0"/>
<feBlend mode="normal" in2="shape" result="0innershadow"/>
<feColorMatrix in="SourceAlpha" type="matrix" values="0 0 0 0 0 0 0 0 0 0 0 0 0 0 0 0 0 0 127 0" result="hardAlpha"/>
<feMorphology radius="0" operator="erode" in="SourceAlpha" result="1innershadow"/>
<feOffset dx="0.2" dy="-0.2"/>
<feGaussianBlur stdDeviation="0.2"/>
<feComposite in2="hardAlpha" operator="arithmetic" k2="-1" k3="1"/>
<feColorMatrix type="matrix" values="0 0 0 0 0.490196 0 0 0 0 0.352941 0 0 0 0 0.321569 0 0 0 1 0"/>
<feBlend mode="normal" in2="0innershadow" result="1innershadow"/>
<feColorMatrix in="SourceAlpha" type="matrix" values="0 0 0 0 0 0 0 0 0 0 0 0 0 0 0 0 0 0 127 0" result="hardAlpha"/>
<feMorphology radius="0" operator="erode" in="SourceAlpha" result="2innershadow"/>
<feOffset dx="0.2" dy="0.2"/>
<feGaussianBlur stdDeviation="0.2"/>
<feComposite in2="hardAlpha" operator="arithmetic" k2="-1" k3="1"/>
<feColorMatrix type="matrix" values="0 0 0 0 0.270588 0 0 0 0 0.113725 0 0 0 0 0.07451 0 0 0 1 0"/>
<feBlend mode="normal" in2="1innershadow" result="2innershadow"/>
</filter>
</defs>
</svg>
