<svg width="76" height="88" viewBox="0 0 76 88" fill="none" xmlns="http://www.w3.org/2000/svg" xmlns:xlink="http://www.w3.org/1999/xlink">
<g filter="url(#filter53_804)">
<path d="M31.859,3.101L45.184,25.864L26.384,31.207C13.399,26.917 5.753,18.657 1.14,10.17C-0.804,6.589 -0.788,0.014 6.94,0.014L26.465,0.014C27.555,0.013 28.627,0.299 29.573,0.841C30.52,1.383 31.307,2.16 31.859,3.101Z" fill="#4686EC"/>
<path d="M31.859,3.101L45.184,25.864L26.384,31.207C13.399,26.917 5.753,18.657 1.14,10.17C-0.804,6.589 -0.788,0.014 6.94,0.014L26.465,0.014C27.555,0.013 28.627,0.299 29.573,0.841C30.52,1.383 31.307,2.16 31.859,3.101Z" fill="url(#pf_0_53_806)"/>
<path d="M31.859,3.101L45.184,25.864L26.384,31.207C13.399,26.917 5.753,18.657 1.14,10.17C-0.804,6.589 -0.788,0.014 6.94,0.014L26.465,0.014C27.555,0.013 28.627,0.299 29.573,0.841C30.52,1.383 31.307,2.16 31.859,3.101Z" fill="url(#pf_0_53_807)"/>
</g>
<g filter="url(#filter53_808)">
<path d="M43.663,3.1L30.338,25.863L49.138,31.207C62.122,26.913 69.769,18.654 74.382,10.166C76.325,6.585 76.31,0.01 68.582,0.01L49.057,0.01C47.966,0.01 46.894,0.295 45.948,0.837C45.002,1.379 44.214,2.159 43.663,3.1Z" fill="#4686EC"/>
<path d="M43.663,3.1L30.338,25.863L49.138,31.207C62.122,26.913 69.769,18.654 74.382,10.166C76.325,6.585 76.31,0.01 68.582,0.01L49.057,0.01C47.966,0.01 46.894,0.295 45.948,0.837C45.002,1.379 44.214,2.159 43.663,3.1Z" fill="url(#pf_0_53_810)"/>
<path d="M43.663,3.1L30.338,25.863L49.138,31.207C62.122,26.913 69.769,18.654 74.382,10.166C76.325,6.585 76.31,0.01 68.582,0.01L49.057,0.01C47.966,0.01 46.894,0.295 45.948,0.837C45.002,1.379 44.214,2.159 43.663,3.1Z" fill="url(#pf_0_53_811)"/>
</g>
<path d="M43.663,3.1L30.338,25.863L49.138,31.207C62.122,26.913 69.769,18.654 74.382,10.166C76.325,6.585 76.31,0.01 68.582,0.01L49.057,0.01C47.966,0.01 46.894,0.295 45.948,0.837C45.002,1.379 44.214,2.159 43.663,3.1Z" fill="url(#pf_0_53_812)"/>
<path d="M38.146,86.314C55.488,86.314 69.546,72.255 69.546,54.914C69.546,37.572 55.488,23.514 38.146,23.514C20.804,23.514 6.746,37.572 6.746,54.914C6.746,72.255 20.804,86.314 38.146,86.314Z" fill="url(#pf_0_53_813)"/>
<path d="M38.146,86.314C55.488,86.314 69.546,72.255 69.546,54.914C69.546,37.572 55.488,23.514 38.146,23.514C20.804,23.514 6.746,37.572 6.746,54.914C6.746,72.255 20.804,86.314 38.146,86.314Z" fill="url(#pf_0_53_814)"/>
<path d="M38.146,82.064C53.141,82.064 65.296,69.908 65.296,54.914C65.296,39.919 53.141,27.764 38.146,27.764C23.152,27.764 10.996,39.919 10.996,54.914C10.996,69.908 23.152,82.064 38.146,82.064Z" fill="url(#pf_0_53_815)"/>
<path d="M38.147,78.615C51.237,78.615 61.85,68.003 61.85,54.912C61.85,41.821 51.237,31.209 38.147,31.209C25.056,31.209 14.443,41.821 14.443,54.912C14.443,68.003 25.056,78.615 38.147,78.615Z" fill="url(#pf_0_53_816)"/>
<path d="M38.147,78.615C51.237,78.615 61.85,68.003 61.85,54.912C61.85,41.821 51.237,31.209 38.147,31.209C25.056,31.209 14.443,41.821 14.443,54.912C14.443,68.003 25.056,78.615 38.147,78.615Z" fill="url(#pf_0_53_817)"/>
<path d="M38.147,78.615C51.237,78.615 61.85,68.003 61.85,54.912C61.85,41.821 51.237,31.209 38.147,31.209C25.056,31.209 14.443,41.821 14.443,54.912C14.443,68.003 25.056,78.615 38.147,78.615Z" fill="url(#pf_0_53_818)"/>
<path d="M38.147,78.615C51.237,78.615 61.85,68.003 61.85,54.912C61.85,41.821 51.237,31.209 38.147,31.209C25.056,31.209 14.443,41.821 14.443,54.912C14.443,68.003 25.056,78.615 38.147,78.615Z" fill="url(#pf_0_53_819)"/>
<g filter="url(#filter53_820)">
<path d="M42.561,50.359L45.83,44.703C46.095,44.239 46.235,43.713 46.235,43.178C46.235,42.643 46.095,42.118 45.83,41.653C45.565,41.189 45.181,40.803 44.718,40.534C44.256,40.266 43.73,40.125 43.195,40.125L33.53,40.125C32.72,40.125 31.944,40.447 31.372,41.019C30.8,41.591 30.478,42.367 30.478,43.177C30.478,43.986 30.8,44.762 31.372,45.334C31.944,45.907 32.72,46.228 33.53,46.228L36.567,46.228C36.704,46.228 36.839,46.264 36.957,46.332C37.076,46.401 37.174,46.499 37.243,46.617C37.311,46.736 37.348,46.87 37.348,47.007C37.349,47.144 37.313,47.278 37.245,47.397L35.564,50.328C35.134,50.859 34.898,51.52 34.895,52.203C34.895,53.888 36.264,55.253 37.949,55.253C39.855,55.253 41.411,56.809 41.411,58.716C41.411,60.622 39.855,62.181 37.949,62.181C37.238,62.182 36.544,61.963 35.963,61.553C35.382,61.143 34.943,60.564 34.705,59.894C34.433,59.137 33.873,58.519 33.147,58.174C32.421,57.829 31.588,57.784 30.83,58.05C30.453,58.182 30.106,58.387 29.809,58.653C29.512,58.92 29.271,59.242 29.099,59.603C28.928,59.963 28.83,60.354 28.81,60.753C28.791,61.151 28.851,61.55 28.986,61.925C29.65,63.771 30.866,65.368 32.469,66.5C34.072,67.631 35.984,68.242 37.945,68.25C40.473,68.248 42.897,67.244 44.684,65.457C46.472,63.67 47.477,61.246 47.48,58.719C47.476,57.013 47.017,55.34 46.151,53.871C45.286,52.402 44.044,51.19 42.555,50.359Z" fill="#6C3F48"/>
</g>
<defs>
<filter id="filter53_804" x="0.0625" y="0.013672" width="22.760648" height="15.846874" filterUnits="userSpaceOnUse" color-interpolation-filters="sRGB">
<feFlood flood-opacity="0" result="BackgroundImageFix"/>
<feBlend mode="normal" in="SourceGraphic" in2="BackgroundImageFix" result="shape"/>
<feColorMatrix in="SourceAlpha" type="matrix" values="0 0 0 0 0 0 0 0 0 0 0 0 0 0 0 0 0 0 127 0" result="hardAlpha"/>
<feMorphology radius="0" operator="erode" in="SourceAlpha" result="0innershadow"/>
<feOffset dx="-0.2" dy="-0.2"/>
<feGaussianBlur stdDeviation="0.2"/>
<feComposite in2="hardAlpha" operator="arithmetic" k2="-1" k3="1"/>
<feColorMatrix type="matrix" values="0 0 0 0 0.317647 0 0 0 0 0.458824 0 0 0 0 0.886275 0 0 0 1 0"/>
<feBlend mode="normal" in2="shape" result="0innershadow"/>
<feColorMatrix in="SourceAlpha" type="matrix" values="0 0 0 0 0 0 0 0 0 0 0 0 0 0 0 0 0 0 127 0" result="hardAlpha"/>
<feMorphology radius="0" operator="erode" in="SourceAlpha" result="1innershadow"/>
<feOffset dx="0.2" dy="0.2"/>
<feGaussianBlur stdDeviation="0.2"/>
<feComposite in2="hardAlpha" operator="arithmetic" k2="-1" k3="1"/>
<feColorMatrix type="matrix" values="0 0 0 0 0.317647 0 0 0 0 0.458824 0 0 0 0 0.886275 0 0 0 1 0"/>
<feBlend mode="normal" in2="0innershadow" result="1innershadow"/>
<feColorMatrix in="SourceAlpha" type="matrix" values="0 0 0 0 0 0 0 0 0 0 0 0 0 0 0 0 0 0 127 0" result="hardAlpha"/>
<feMorphology radius="0" operator="erode" in="SourceAlpha" result="2innershadow"/>
<feOffset dx="-0.25" dy="0.25"/>
<feGaussianBlur stdDeviation="0.25"/>
<feComposite in2="hardAlpha" operator="arithmetic" k2="-1" k3="1"/>
<feColorMatrix type="matrix" values="0 0 0 0 0.372549 0 0 0 0 0.607843 0 0 0 0 0.960784 0 0 0 1 0"/>
<feBlend mode="normal" in2="1innershadow" result="2innershadow"/>
</filter>
<radialGradient id="pf_0_53_806" cx="0" cy="0" r="1" gradientUnits="userSpaceOnUse" gradientTransform="matrix(-3.951324 -6.010514 22.44686 -14.756611 14.474 14.503)">
<stop stop-color="#3669D9"/>
<stop offset="1" stop-color="#3669D9" stop-opacity="0"/>
</radialGradient>
<linearGradient id="pf_0_53_807" x1="8.568" y1="-1.677" x2="14.178" y2="12.292" gradientUnits="userSpaceOnUse">
<stop stop-color="#3D89EC"/>
<stop offset="1" stop-color="#3D89EC" stop-opacity="0"/>
</linearGradient>
<filter id="filter53_808" x="30.337891" y="0.009766" width="22.760648" height="15.848437" filterUnits="userSpaceOnUse" color-interpolation-filters="sRGB">
<feFlood flood-opacity="0" result="BackgroundImageFix"/>
<feBlend mode="normal" in="SourceGraphic" in2="BackgroundImageFix" result="shape"/>
<feColorMatrix in="SourceAlpha" type="matrix" values="0 0 0 0 0 0 0 0 0 0 0 0 0 0 0 0 0 0 127 0" result="hardAlpha"/>
<feMorphology radius="0" operator="erode" in="SourceAlpha" result="0innershadow"/>
<feOffset dx="-0.2" dy="-0.2"/>
<feGaussianBlur stdDeviation="0.2"/>
<feComposite in2="hardAlpha" operator="arithmetic" k2="-1" k3="1"/>
<feColorMatrix type="matrix" values="0 0 0 0 0.317647 0 0 0 0 0.458824 0 0 0 0 0.886275 0 0 0 1 0"/>
<feBlend mode="normal" in2="shape" result="0innershadow"/>
<feColorMatrix in="SourceAlpha" type="matrix" values="0 0 0 0 0 0 0 0 0 0 0 0 0 0 0 0 0 0 127 0" result="hardAlpha"/>
<feMorphology radius="0" operator="erode" in="SourceAlpha" result="1innershadow"/>
<feOffset dx="0.2" dy="0.2"/>
<feGaussianBlur stdDeviation="0.2"/>
<feComposite in2="hardAlpha" operator="arithmetic" k2="-1" k3="1"/>
<feColorMatrix type="matrix" values="0 0 0 0 0.317647 0 0 0 0 0.458824 0 0 0 0 0.886275 0 0 0 1 0"/>
<feBlend mode="normal" in2="0innershadow" result="1innershadow"/>
<feColorMatrix in="SourceAlpha" type="matrix" values="0 0 0 0 0 0 0 0 0 0 0 0 0 0 0 0 0 0 127 0" result="hardAlpha"/>
<feMorphology radius="0" operator="erode" in="SourceAlpha" result="2innershadow"/>
<feOffset dx="-0.25" dy="0.25"/>
<feGaussianBlur stdDeviation="0.25"/>
<feComposite in2="hardAlpha" operator="arithmetic" k2="-1" k3="1"/>
<feColorMatrix type="matrix" values="0 0 0 0 0.372549 0 0 0 0 0.607843 0 0 0 0 0.960784 0 0 0 1 0"/>
<feBlend mode="normal" in2="1innershadow" result="2innershadow"/>
</filter>
<radialGradient id="pf_0_53_810" cx="0" cy="0" r="1" gradientUnits="userSpaceOnUse" gradientTransform="matrix(2.575934 -4.007043 8.789457 5.650316 23.287 14.503)">
<stop stop-color="#3669D9"/>
<stop offset="1" stop-color="#3669D9" stop-opacity="0"/>
</radialGradient>
<linearGradient id="pf_0_53_811" x1="66.954" y1="-1.678" x2="61.344" y2="12.291" gradientUnits="userSpaceOnUse">
<stop stop-color="#3D89EC"/>
<stop offset="1" stop-color="#3D89EC" stop-opacity="0"/>
</linearGradient>
<linearGradient id="pf_0_53_812" x1="37.216" y1="14.072" x2="38.269" y2="14.657" gradientUnits="userSpaceOnUse">
<stop stop-color="#1A6DD8"/>
<stop offset="1" stop-color="#1A6DD8" stop-opacity="0"/>
</linearGradient>
<linearGradient id="pf_0_53_813" x1="62.365" y1="38.682" x2="33.155" y2="65.389" gradientUnits="userSpaceOnUse">
<stop stop-color="#F6BC7F"/>
<stop offset="1" stop-color="#A76740"/>
</linearGradient>
<linearGradient id="pf_0_53_814" x1="27.174" y1="87.839" x2="34.255" y2="46.773" gradientUnits="userSpaceOnUse">
<stop stop-color="#B05B5B"/>
<stop offset="1" stop-color="#B05B5B" stop-opacity="0"/>
</linearGradient>
<linearGradient id="pf_0_53_815" x1="62.884" y1="50.167" x2="38.146" y2="50.167" gradientUnits="userSpaceOnUse">
<stop stop-color="#CD8858"/>
<stop offset="1" stop-color="#D28D59"/>
</linearGradient>
<linearGradient id="pf_0_53_816" x1="23.268" y1="61.071" x2="62.715" y2="49.134" gradientUnits="userSpaceOnUse">
<stop stop-color="#D38E5F"/>
<stop offset="1" stop-color="#BE794E"/>
</linearGradient>
<radialGradient id="pf_0_53_817" cx="0" cy="0" r="1" gradientUnits="userSpaceOnUse" gradientTransform="matrix(-16.348629 7.059782 -6.0157 -13.930803 23.571 25.66)">
<stop offset="0.837" stop-color="#E5AC75" stop-opacity="0"/>
<stop offset="1" stop-color="#E5AC75"/>
</radialGradient>
<radialGradient id="pf_0_53_818" cx="0" cy="0" r="1" gradientUnits="userSpaceOnUse" gradientTransform="matrix(10.523338 -9.243025 8.875098 10.104445 17.56 28.861)">
<stop offset="0.91" stop-color="#B36441" stop-opacity="0"/>
<stop offset="1" stop-color="#B36441"/>
</radialGradient>
<radialGradient id="pf_0_53_819" cx="0" cy="0" r="1" gradientUnits="userSpaceOnUse" gradientTransform="matrix(10.400391 8.105468 -9.185419 11.78611 18.731 26.469)">
<stop offset="0.926" stop-color="#AB662B" stop-opacity="0"/>
<stop offset="1" stop-color="#AB662B"/>
</radialGradient>
<filter id="filter53_820" x="28.806641" y="40.125" width="9.536576" height="14.3625" filterUnits="userSpaceOnUse" color-interpolation-filters="sRGB">
<feFlood flood-opacity="0" result="BackgroundImageFix"/>
<feBlend mode="normal" in="SourceGraphic" in2="BackgroundImageFix" result="shape"/>
<feColorMatrix in="SourceAlpha" type="matrix" values="0 0 0 0 0 0 0 0 0 0 0 0 0 0 0 0 0 0 127 0" result="hardAlpha"/>
<feMorphology radius="0" operator="erode" in="SourceAlpha" result="0innershadow"/>
<feOffset dx="-0.3" dy="0.3"/>
<feGaussianBlur stdDeviation="0.3"/>
<feComposite in2="hardAlpha" operator="arithmetic" k2="-1" k3="1"/>
<feColorMatrix type="matrix" values="0 0 0 0 0.270588 0 0 0 0 0.113725 0 0 0 0 0.07451 0 0 0 1 0"/>
<feBlend mode="normal" in2="shape" result="0innershadow"/>
<feColorMatrix in="SourceAlpha" type="matrix" values="0 0 0 0 0 0 0 0 0 0 0 0 0 0 0 0 0 0 127 0" result="hardAlpha"/>
<feMorphology radius="0" operator="erode" in="SourceAlpha" result="1innershadow"/>
<feOffset dx="0.2" dy="-0.2"/>
<feGaussianBlur stdDeviation="0.2"/>
<feComposite in2="hardAlpha" operator="arithmetic" k2="-1" k3="1"/>
<feColorMatrix type="matrix" values="0 0 0 0 0.490196 0 0 0 0 0.352941 0 0 0 0 0.321569 0 0 0 1 0"/>
<feBlend mode="normal" in2="0innershadow" result="1innershadow"/>
<feColorMatrix in="SourceAlpha" type="matrix" values="0 0 0 0 0 0 0 0 0 0 0 0 0 0 0 0 0 0 127 0" result="hardAlpha"/>
<feMorphology radius="0" operator="erode" in="SourceAlpha" result="2innershadow"/>
<feOffset dx="0.2" dy="0.2"/>
<feGaussianBlur stdDeviation="0.2"/>
<feComposite in2="hardAlpha" operator="arithmetic" k2="-1" k3="1"/>
<feColorMatrix type="matrix" values="0 0 0 0 0.270588 0 0 0 0 0.113725 0 0 0 0 0.07451 0 0 0 1 0"/>
<feBlend mode="normal" in2="1innershadow" result="2innershadow"/>
</filter>
</defs>
</svg>
