<svg width="76" height="138" viewBox="0 0 76 138" fill="none" xmlns="http://www.w3.org/2000/svg" xmlns:xlink="http://www.w3.org/1999/xlink">
<g filter="url(#filter68_144)">
<path d="M31.859,5.536L45.184,41.501L26.384,49.944C13.399,43.165 5.753,30.115 1.14,16.705C-0.804,11.047 -0.788,0.658 6.94,0.658L26.465,0.658C27.555,0.658 28.627,1.108 29.573,1.965C30.52,2.822 31.307,4.05 31.859,5.536Z" fill="#4686EC"/>
<path d="M31.859,5.536L45.184,41.501L26.384,49.944C13.399,43.165 5.753,30.115 1.14,16.705C-0.804,11.047 -0.788,0.658 6.94,0.658L26.465,0.658C27.555,0.658 28.627,1.108 29.573,1.965C30.52,2.822 31.307,4.05 31.859,5.536Z" fill="url(#pf_0_68_146)"/>
<path d="M31.859,5.536L45.184,41.501L26.384,49.944C13.399,43.165 5.753,30.115 1.14,16.705C-0.804,11.047 -0.788,0.658 6.94,0.658L26.465,0.658C27.555,0.658 28.627,1.108 29.573,1.965C30.52,2.822 31.307,4.05 31.859,5.536Z" fill="url(#pf_0_68_147)"/>
</g>
<g filter="url(#filter68_148)">
<path d="M43.663,5.537L30.338,41.502L49.138,49.945C62.122,43.161 69.769,30.111 74.382,16.701C76.325,11.043 76.31,0.654 68.582,0.654L49.057,0.654C47.966,0.654 46.894,1.105 45.948,1.961C45.002,2.818 44.214,4.051 43.663,5.537Z" fill="#4686EC"/>
<path d="M43.663,5.537L30.338,41.502L49.138,49.945C62.122,43.161 69.769,30.111 74.382,16.701C76.325,11.043 76.31,0.654 68.582,0.654L49.057,0.654C47.966,0.654 46.894,1.105 45.948,1.961C45.002,2.818 44.214,4.051 43.663,5.537Z" fill="url(#pf_0_68_150)"/>
<path d="M43.663,5.537L30.338,41.502L49.138,49.945C62.122,43.161 69.769,30.111 74.382,16.701C76.325,11.043 76.31,0.654 68.582,0.654L49.057,0.654C47.966,0.654 46.894,1.105 45.948,1.961C45.002,2.818 44.214,4.051 43.663,5.537Z" fill="url(#pf_0_68_151)"/>
</g>
<path d="M43.663,5.537L30.338,41.502L49.138,49.945C62.122,43.161 69.769,30.111 74.382,16.701C76.325,11.043 76.31,0.654 68.582,0.654L49.057,0.654C47.966,0.654 46.894,1.105 45.948,1.961C45.002,2.818 44.214,4.051 43.663,5.537Z" fill="url(#pf_0_68_152)"/>
<path d="M38.146,137.013C55.488,137.013 69.546,114.801 69.546,87.401C69.546,60.001 55.488,37.789 38.146,37.789C20.804,37.789 6.746,60.001 6.746,87.401C6.746,114.801 20.804,137.013 38.146,137.013Z" fill="url(#pf_0_68_153)"/>
<path d="M38.146,137.013C55.488,137.013 69.546,114.801 69.546,87.401C69.546,60.001 55.488,37.789 38.146,37.789C20.804,37.789 6.746,60.001 6.746,87.401C6.746,114.801 20.804,137.013 38.146,137.013Z" fill="url(#pf_0_68_154)"/>
<path d="M38.146,130.298C53.141,130.298 65.296,111.092 65.296,87.401C65.296,63.71 53.141,44.504 38.146,44.504C23.152,44.504 10.996,63.71 10.996,87.401C10.996,111.092 23.152,130.298 38.146,130.298Z" fill="url(#pf_0_68_155)"/>
<path d="M38.147,124.853C51.237,124.853 61.85,108.086 61.85,87.402C61.85,66.719 51.237,49.951 38.147,49.951C25.056,49.951 14.443,66.719 14.443,87.402C14.443,108.086 25.056,124.853 38.147,124.853Z" fill="url(#pf_0_68_156)"/>
<path d="M38.147,124.853C51.237,124.853 61.85,108.086 61.85,87.402C61.85,66.719 51.237,49.951 38.147,49.951C25.056,49.951 14.443,66.719 14.443,87.402C14.443,108.086 25.056,124.853 38.147,124.853Z" fill="url(#pf_0_68_157)"/>
<path d="M38.147,124.853C51.237,124.853 61.85,108.086 61.85,87.402C61.85,66.719 51.237,49.951 38.147,49.951C25.056,49.951 14.443,66.719 14.443,87.402C14.443,108.086 25.056,124.853 38.147,124.853Z" fill="url(#pf_0_68_158)"/>
<path d="M38.147,124.853C51.237,124.853 61.85,108.086 61.85,87.402C61.85,66.719 51.237,49.951 38.147,49.951C25.056,49.951 14.443,66.719 14.443,87.402C14.443,108.086 25.056,124.853 38.147,124.853Z" fill="url(#pf_0_68_159)"/>
<g filter="url(#filter68_160)">
<path d="M44.364,109.324L31.958,109.324C31.36,109.326 30.775,109.057 30.271,108.55C29.767,108.042 29.365,107.317 29.114,106.46C28.854,105.611 28.753,104.661 28.825,103.724C28.897,102.787 29.139,101.903 29.521,101.177L39.833,81.18C40.646,79.6 40.271,77.921 40.146,77.427C40,76.852 39.751,76.358 39.428,76.007C39.106,75.656 38.725,75.463 38.333,75.452L38.177,75.452C37.177,75.452 36.271,76.193 35.677,77.477C34.677,79.699 32.708,80.242 31.271,78.662C30.932,78.283 30.643,77.802 30.422,77.247C30.201,76.692 30.051,76.073 29.981,75.427C29.912,74.78 29.923,74.118 30.016,73.478C30.108,72.839 30.28,72.234 30.521,71.7C32.271,67.799 35.114,65.479 38.146,65.479L38.552,65.479C41.739,65.725 44.521,68.737 45.833,73.329C47.177,78.069 46.739,83.451 44.677,87.45L38.583,99.3L44.333,99.3C46.083,99.3 47.489,101.522 47.489,104.287C47.489,107.052 46.114,109.324 44.364,109.324Z" fill="#6A6372"/>
</g>
<defs>
<filter id="filter68_144" x="0.0625" y="0.658203" width="22.760648" height="24.893057" filterUnits="userSpaceOnUse" color-interpolation-filters="sRGB">
<feFlood flood-opacity="0" result="BackgroundImageFix"/>
<feBlend mode="normal" in="SourceGraphic" in2="BackgroundImageFix" result="shape"/>
<feColorMatrix in="SourceAlpha" type="matrix" values="0 0 0 0 0 0 0 0 0 0 0 0 0 0 0 0 0 0 127 0" result="hardAlpha"/>
<feMorphology radius="0" operator="erode" in="SourceAlpha" result="0innershadow"/>
<feOffset dx="-0.2" dy="-0.2"/>
<feGaussianBlur stdDeviation="0.2"/>
<feComposite in2="hardAlpha" operator="arithmetic" k2="-1" k3="1"/>
<feColorMatrix type="matrix" values="0 0 0 0 0.317647 0 0 0 0 0.458824 0 0 0 0 0.886275 0 0 0 1 0"/>
<feBlend mode="normal" in2="shape" result="0innershadow"/>
<feColorMatrix in="SourceAlpha" type="matrix" values="0 0 0 0 0 0 0 0 0 0 0 0 0 0 0 0 0 0 127 0" result="hardAlpha"/>
<feMorphology radius="0" operator="erode" in="SourceAlpha" result="1innershadow"/>
<feOffset dx="0.2" dy="0.2"/>
<feGaussianBlur stdDeviation="0.2"/>
<feComposite in2="hardAlpha" operator="arithmetic" k2="-1" k3="1"/>
<feColorMatrix type="matrix" values="0 0 0 0 0.317647 0 0 0 0 0.458824 0 0 0 0 0.886275 0 0 0 1 0"/>
<feBlend mode="normal" in2="0innershadow" result="1innershadow"/>
<feColorMatrix in="SourceAlpha" type="matrix" values="0 0 0 0 0 0 0 0 0 0 0 0 0 0 0 0 0 0 127 0" result="hardAlpha"/>
<feMorphology radius="0" operator="erode" in="SourceAlpha" result="2innershadow"/>
<feOffset dx="-0.25" dy="0.25"/>
<feGaussianBlur stdDeviation="0.25"/>
<feComposite in2="hardAlpha" operator="arithmetic" k2="-1" k3="1"/>
<feColorMatrix type="matrix" values="0 0 0 0 0.372549 0 0 0 0 0.607843 0 0 0 0 0.960784 0 0 0 1 0"/>
<feBlend mode="normal" in2="1innershadow" result="2innershadow"/>
</filter>
<radialGradient id="pf_0_68_146" cx="0" cy="0" r="1" gradientUnits="userSpaceOnUse" gradientTransform="matrix(-3.951324 -9.496611 22.44686 -23.315441 14.474 23.232)">
<stop stop-color="#3669D9"/>
<stop offset="1" stop-color="#3669D9" stop-opacity="0"/>
</radialGradient>
<linearGradient id="pf_0_68_147" x1="8.568" y1="-2.013" x2="14.178" y2="20.058" gradientUnits="userSpaceOnUse">
<stop stop-color="#3D89EC"/>
<stop offset="1" stop-color="#3D89EC" stop-opacity="0"/>
</linearGradient>
<filter id="filter68_148" x="30.337891" y="0.654297" width="22.760648" height="24.895506" filterUnits="userSpaceOnUse" color-interpolation-filters="sRGB">
<feFlood flood-opacity="0" result="BackgroundImageFix"/>
<feBlend mode="normal" in="SourceGraphic" in2="BackgroundImageFix" result="shape"/>
<feColorMatrix in="SourceAlpha" type="matrix" values="0 0 0 0 0 0 0 0 0 0 0 0 0 0 0 0 0 0 127 0" result="hardAlpha"/>
<feMorphology radius="0" operator="erode" in="SourceAlpha" result="0innershadow"/>
<feOffset dx="-0.2" dy="-0.2"/>
<feGaussianBlur stdDeviation="0.2"/>
<feComposite in2="hardAlpha" operator="arithmetic" k2="-1" k3="1"/>
<feColorMatrix type="matrix" values="0 0 0 0 0.317647 0 0 0 0 0.458824 0 0 0 0 0.886275 0 0 0 1 0"/>
<feBlend mode="normal" in2="shape" result="0innershadow"/>
<feColorMatrix in="SourceAlpha" type="matrix" values="0 0 0 0 0 0 0 0 0 0 0 0 0 0 0 0 0 0 127 0" result="hardAlpha"/>
<feMorphology radius="0" operator="erode" in="SourceAlpha" result="1innershadow"/>
<feOffset dx="0.2" dy="0.2"/>
<feGaussianBlur stdDeviation="0.2"/>
<feComposite in2="hardAlpha" operator="arithmetic" k2="-1" k3="1"/>
<feColorMatrix type="matrix" values="0 0 0 0 0.317647 0 0 0 0 0.458824 0 0 0 0 0.886275 0 0 0 1 0"/>
<feBlend mode="normal" in2="0innershadow" result="1innershadow"/>
<feColorMatrix in="SourceAlpha" type="matrix" values="0 0 0 0 0 0 0 0 0 0 0 0 0 0 0 0 0 0 127 0" result="hardAlpha"/>
<feMorphology radius="0" operator="erode" in="SourceAlpha" result="2innershadow"/>
<feOffset dx="-0.25" dy="0.25"/>
<feGaussianBlur stdDeviation="0.25"/>
<feComposite in2="hardAlpha" operator="arithmetic" k2="-1" k3="1"/>
<feColorMatrix type="matrix" values="0 0 0 0 0.372549 0 0 0 0 0.607843 0 0 0 0 0.960784 0 0 0 1 0"/>
<feBlend mode="normal" in2="1innershadow" result="2innershadow"/>
</filter>
<radialGradient id="pf_0_68_150" cx="0" cy="0" r="1" gradientUnits="userSpaceOnUse" gradientTransform="matrix(2.575934 -6.331121 8.789457 8.927491 23.287 23.234)">
<stop stop-color="#3669D9"/>
<stop offset="1" stop-color="#3669D9" stop-opacity="0"/>
</radialGradient>
<linearGradient id="pf_0_68_151" x1="66.954" y1="-2.012" x2="61.344" y2="20.059" gradientUnits="userSpaceOnUse">
<stop stop-color="#3D89EC"/>
<stop offset="1" stop-color="#3D89EC" stop-opacity="0"/>
</linearGradient>
<linearGradient id="pf_0_68_152" x1="37.216" y1="22.873" x2="38.269" y2="23.796" gradientUnits="userSpaceOnUse">
<stop stop-color="#1A6DD8"/>
<stop offset="1" stop-color="#1A6DD8" stop-opacity="0"/>
</linearGradient>
<linearGradient id="pf_0_68_153" x1="62.365" y1="61.756" x2="33.155" y2="103.952" gradientUnits="userSpaceOnUse">
<stop stop-color="#EFEAF6"/>
<stop offset="1" stop-color="#B5A8C3"/>
</linearGradient>
<linearGradient id="pf_0_68_154" x1="27.174" y1="139.422" x2="34.255" y2="74.539" gradientUnits="userSpaceOnUse">
<stop stop-color="#D0A9F4"/>
<stop offset="1" stop-color="#D0A9F4" stop-opacity="0"/>
</linearGradient>
<linearGradient id="pf_0_68_155" x1="62.884" y1="79.901" x2="38.146" y2="79.901" gradientUnits="userSpaceOnUse">
<stop stop-color="#D3C6E2"/>
<stop offset="1" stop-color="#D6C6E8"/>
</linearGradient>
<linearGradient id="pf_0_68_156" x1="23.268" y1="97.134" x2="62.715" y2="78.273" gradientUnits="userSpaceOnUse">
<stop stop-color="#E0D3EF"/>
<stop offset="1" stop-color="#C1B0D4"/>
</linearGradient>
<radialGradient id="pf_0_68_157" cx="0" cy="0" r="1" gradientUnits="userSpaceOnUse" gradientTransform="matrix(-16.348629 11.154458 -6.0157 -22.010674 23.571 40.863)">
<stop offset="0.837" stop-color="#F6ECFE" stop-opacity="0"/>
<stop offset="1" stop-color="#F6ECFE"/>
</radialGradient>
<radialGradient id="pf_0_68_158" cx="0" cy="0" r="1" gradientUnits="userSpaceOnUse" gradientTransform="matrix(10.523338 -14.603983 8.875098 15.965027 17.56 45.921)">
<stop offset="0.91" stop-color="#B396CF" stop-opacity="0"/>
<stop offset="0.992" stop-color="#B796D5"/>
</radialGradient>
<radialGradient id="pf_0_68_159" cx="0" cy="0" r="1" gradientUnits="userSpaceOnUse" gradientTransform="matrix(10.400391 12.806642 -9.185419 18.622058 18.731 42.141)">
<stop offset="0.926" stop-color="#AB9CBB" stop-opacity="0"/>
<stop offset="1" stop-color="#AB9CBB"/>
</radialGradient>
<filter id="filter68_160" x="28.802734" y="65.478516" width="9.543283" height="22.222508" filterUnits="userSpaceOnUse" color-interpolation-filters="sRGB">
<feFlood flood-opacity="0" result="BackgroundImageFix"/>
<feBlend mode="normal" in="SourceGraphic" in2="BackgroundImageFix" result="shape"/>
<feColorMatrix in="SourceAlpha" type="matrix" values="0 0 0 0 0 0 0 0 0 0 0 0 0 0 0 0 0 0 127 0" result="hardAlpha"/>
<feMorphology radius="0" operator="erode" in="SourceAlpha" result="0innershadow"/>
<feOffset dx="-0.3" dy="0.3"/>
<feGaussianBlur stdDeviation="0.3"/>
<feComposite in2="hardAlpha" operator="arithmetic" k2="-1" k3="1"/>
<feColorMatrix type="matrix" values="0 0 0 0 0.286275 0 0 0 0 0.223529 0 0 0 0 0.345098 0 0 0 1 0"/>
<feBlend mode="normal" in2="shape" result="0innershadow"/>
<feColorMatrix in="SourceAlpha" type="matrix" values="0 0 0 0 0 0 0 0 0 0 0 0 0 0 0 0 0 0 127 0" result="hardAlpha"/>
<feMorphology radius="0" operator="erode" in="SourceAlpha" result="1innershadow"/>
<feOffset dx="0.2" dy="-0.2"/>
<feGaussianBlur stdDeviation="0.2"/>
<feComposite in2="hardAlpha" operator="arithmetic" k2="-1" k3="1"/>
<feColorMatrix type="matrix" values="0 0 0 0 0.482353 0 0 0 0 0.47451 0 0 0 0 0.490196 0 0 0 1 0"/>
<feBlend mode="normal" in2="0innershadow" result="1innershadow"/>
</filter>
</defs>
</svg>
