<svg width="22" height="18" viewBox="0 0 22 18" fill="none" xmlns="http://www.w3.org/2000/svg" xmlns:xlink="http://www.w3.org/1999/xlink">
<path d="M20.608,7.256L0.584,7.256C0.045,7.256 -0.392,7.693 -0.392,8.233C-0.392,8.772 0.045,9.209 0.584,9.209L20.608,9.209C21.147,9.209 21.585,8.772 21.585,8.233C21.585,7.693 21.147,7.256 20.608,7.256Z" transform="rotate(-90.294 10.596 8.233)" fill="#747474"/>
<path d="M20.528,7.261L0.504,7.261C-0.035,7.261 -0.473,7.698 -0.473,8.238C-0.473,8.777 -0.035,9.214 0.504,9.214L20.528,9.214C21.067,9.214 21.505,8.777 21.505,8.238C21.505,7.698 21.067,7.261 20.528,7.261Z" transform="rotate(90.206 10.516 8.238)" fill="#747474"/>
</svg>
