<svg width="76" height="138" viewBox="0 0 76 138" fill="none" xmlns="http://www.w3.org/2000/svg" xmlns:xlink="http://www.w3.org/1999/xlink">
<g filter="url(#filter69_601)">
<path d="M31.86,5.536L45.185,41.501L26.385,49.944C13.4,43.165 5.754,30.115 1.141,16.705C-0.803,11.047 -0.787,0.658 6.941,0.658L26.466,0.658C27.556,0.658 28.628,1.108 29.574,1.965C30.521,2.822 31.308,4.05 31.86,5.536Z" fill="#4686EC"/>
<path d="M31.86,5.536L45.185,41.501L26.385,49.944C13.4,43.165 5.754,30.115 1.141,16.705C-0.803,11.047 -0.787,0.658 6.941,0.658L26.466,0.658C27.556,0.658 28.628,1.108 29.574,1.965C30.521,2.822 31.308,4.05 31.86,5.536Z" fill="url(#pf_0_69_603)"/>
<path d="M31.86,5.536L45.185,41.501L26.385,49.944C13.4,43.165 5.754,30.115 1.141,16.705C-0.803,11.047 -0.787,0.658 6.941,0.658L26.466,0.658C27.556,0.658 28.628,1.108 29.574,1.965C30.521,2.822 31.308,4.05 31.86,5.536Z" fill="url(#pf_0_69_604)"/>
</g>
<g filter="url(#filter69_605)">
<path d="M43.663,5.537L30.338,41.502L49.138,49.945C62.122,43.161 69.769,30.111 74.382,16.701C76.325,11.043 76.31,0.654 68.582,0.654L49.057,0.654C47.966,0.654 46.894,1.105 45.948,1.961C45.002,2.818 44.214,4.051 43.663,5.537Z" fill="#4686EC"/>
<path d="M43.663,5.537L30.338,41.502L49.138,49.945C62.122,43.161 69.769,30.111 74.382,16.701C76.325,11.043 76.31,0.654 68.582,0.654L49.057,0.654C47.966,0.654 46.894,1.105 45.948,1.961C45.002,2.818 44.214,4.051 43.663,5.537Z" fill="url(#pf_0_69_607)"/>
<path d="M43.663,5.537L30.338,41.502L49.138,49.945C62.122,43.161 69.769,30.111 74.382,16.701C76.325,11.043 76.31,0.654 68.582,0.654L49.057,0.654C47.966,0.654 46.894,1.105 45.948,1.961C45.002,2.818 44.214,4.051 43.663,5.537Z" fill="url(#pf_0_69_608)"/>
</g>
<path d="M43.663,5.537L30.338,41.502L49.138,49.945C62.122,43.161 69.769,30.111 74.382,16.701C76.325,11.043 76.31,0.654 68.582,0.654L49.057,0.654C47.966,0.654 46.894,1.105 45.948,1.961C45.002,2.818 44.214,4.051 43.663,5.537Z" fill="url(#pf_0_69_609)"/>
<path d="M38.147,137.013C55.489,137.013 69.547,114.801 69.547,87.401C69.547,60.001 55.489,37.789 38.147,37.789C20.805,37.789 6.747,60.001 6.747,87.401C6.747,114.801 20.805,137.013 38.147,137.013Z" fill="url(#pf_0_69_610)"/>
<path d="M38.147,137.013C55.489,137.013 69.547,114.801 69.547,87.401C69.547,60.001 55.489,37.789 38.147,37.789C20.805,37.789 6.747,60.001 6.747,87.401C6.747,114.801 20.805,137.013 38.147,137.013Z" fill="url(#pf_0_69_611)"/>
<path d="M38.147,130.298C53.142,130.298 65.297,111.092 65.297,87.401C65.297,63.71 53.142,44.504 38.147,44.504C23.153,44.504 10.997,63.71 10.997,87.401C10.997,111.092 23.153,130.298 38.147,130.298Z" fill="url(#pf_0_69_612)"/>
<path d="M38.148,124.853C51.238,124.853 61.851,108.086 61.851,87.402C61.851,66.719 51.238,49.951 38.148,49.951C25.057,49.951 14.444,66.719 14.444,87.402C14.444,108.086 25.057,124.853 38.148,124.853Z" fill="url(#pf_0_69_613)"/>
<path d="M38.148,124.853C51.238,124.853 61.851,108.086 61.851,87.402C61.851,66.719 51.238,49.951 38.148,49.951C25.057,49.951 14.444,66.719 14.444,87.402C14.444,108.086 25.057,124.853 38.148,124.853Z" fill="url(#pf_0_69_614)"/>
<path d="M38.148,124.853C51.238,124.853 61.851,108.086 61.851,87.402C61.851,66.719 51.238,49.951 38.148,49.951C25.057,49.951 14.444,66.719 14.444,87.402C14.444,108.086 25.057,124.853 38.148,124.853Z" fill="url(#pf_0_69_615)"/>
<path d="M38.148,124.853C51.238,124.853 61.851,108.086 61.851,87.402C61.851,66.719 51.238,49.951 38.148,49.951C25.057,49.951 14.444,66.719 14.444,87.402C14.444,108.086 25.057,124.853 38.148,124.853Z" fill="url(#pf_0_69_616)"/>
<g filter="url(#filter69_617)">
<path d="M42.563,80.207L45.832,71.271C46.097,70.537 46.237,69.706 46.237,68.861C46.237,68.016 46.097,67.185 45.832,66.452C45.567,65.718 45.183,65.108 44.72,64.684C44.258,64.26 43.732,64.037 43.197,64.037L33.532,64.037C32.722,64.037 31.946,64.545 31.374,65.449C30.802,66.353 30.48,67.58 30.48,68.859C30.48,70.137 30.802,71.364 31.374,72.268C31.946,73.172 32.722,73.68 33.532,73.68L36.569,73.68C36.706,73.68 36.84,73.737 36.959,73.845C37.078,73.953 37.176,74.108 37.245,74.295C37.313,74.482 37.35,74.694 37.35,74.91C37.351,75.126 37.315,75.339 37.247,75.527L35.566,80.158C35.136,80.997 34.9,82.042 34.897,83.121C34.897,85.782 36.266,87.94 37.95,87.94C39.857,87.94 41.413,90.399 41.413,93.41C41.413,96.422 39.857,98.886 37.95,98.886C37.24,98.887 36.546,98.541 35.965,97.893C35.384,97.246 34.945,96.33 34.707,95.272C34.435,94.077 33.875,93.1 33.149,92.555C32.423,92.009 31.59,91.939 30.832,92.359C30.455,92.567 30.108,92.891 29.811,93.312C29.514,93.733 29.273,94.243 29.101,94.812C28.93,95.382 28.832,95.999 28.812,96.629C28.793,97.259 28.852,97.888 28.988,98.481C29.652,101.398 30.868,103.921 32.471,105.709C34.074,107.497 35.986,108.462 37.947,108.475C40.475,108.472 42.899,106.885 44.686,104.061C46.474,101.238 47.479,97.409 47.482,93.415C47.478,90.721 47.019,88.077 46.153,85.756C45.288,83.434 44.046,81.519 42.557,80.207Z" fill="#6C3F48"/>
</g>
<defs>
<filter id="filter69_601" x="0.063477" y="0.658203" width="22.760648" height="24.893057" filterUnits="userSpaceOnUse" color-interpolation-filters="sRGB">
<feFlood flood-opacity="0" result="BackgroundImageFix"/>
<feBlend mode="normal" in="SourceGraphic" in2="BackgroundImageFix" result="shape"/>
<feColorMatrix in="SourceAlpha" type="matrix" values="0 0 0 0 0 0 0 0 0 0 0 0 0 0 0 0 0 0 127 0" result="hardAlpha"/>
<feMorphology radius="0" operator="erode" in="SourceAlpha" result="0innershadow"/>
<feOffset dx="-0.2" dy="-0.2"/>
<feGaussianBlur stdDeviation="0.2"/>
<feComposite in2="hardAlpha" operator="arithmetic" k2="-1" k3="1"/>
<feColorMatrix type="matrix" values="0 0 0 0 0.317647 0 0 0 0 0.458824 0 0 0 0 0.886275 0 0 0 1 0"/>
<feBlend mode="normal" in2="shape" result="0innershadow"/>
<feColorMatrix in="SourceAlpha" type="matrix" values="0 0 0 0 0 0 0 0 0 0 0 0 0 0 0 0 0 0 127 0" result="hardAlpha"/>
<feMorphology radius="0" operator="erode" in="SourceAlpha" result="1innershadow"/>
<feOffset dx="0.2" dy="0.2"/>
<feGaussianBlur stdDeviation="0.2"/>
<feComposite in2="hardAlpha" operator="arithmetic" k2="-1" k3="1"/>
<feColorMatrix type="matrix" values="0 0 0 0 0.317647 0 0 0 0 0.458824 0 0 0 0 0.886275 0 0 0 1 0"/>
<feBlend mode="normal" in2="0innershadow" result="1innershadow"/>
<feColorMatrix in="SourceAlpha" type="matrix" values="0 0 0 0 0 0 0 0 0 0 0 0 0 0 0 0 0 0 127 0" result="hardAlpha"/>
<feMorphology radius="0" operator="erode" in="SourceAlpha" result="2innershadow"/>
<feOffset dx="-0.25" dy="0.25"/>
<feGaussianBlur stdDeviation="0.25"/>
<feComposite in2="hardAlpha" operator="arithmetic" k2="-1" k3="1"/>
<feColorMatrix type="matrix" values="0 0 0 0 0.372549 0 0 0 0 0.607843 0 0 0 0 0.960784 0 0 0 1 0"/>
<feBlend mode="normal" in2="1innershadow" result="2innershadow"/>
</filter>
<radialGradient id="pf_0_69_603" cx="0" cy="0" r="1" gradientUnits="userSpaceOnUse" gradientTransform="matrix(-3.951324 -9.496611 22.44686 -23.315441 14.475 23.232)">
<stop stop-color="#3669D9"/>
<stop offset="1" stop-color="#3669D9" stop-opacity="0"/>
</radialGradient>
<linearGradient id="pf_0_69_604" x1="8.569" y1="-2.013" x2="14.179" y2="20.058" gradientUnits="userSpaceOnUse">
<stop stop-color="#3D89EC"/>
<stop offset="1" stop-color="#3D89EC" stop-opacity="0"/>
</linearGradient>
<filter id="filter69_605" x="30.337891" y="0.654297" width="22.760648" height="24.895506" filterUnits="userSpaceOnUse" color-interpolation-filters="sRGB">
<feFlood flood-opacity="0" result="BackgroundImageFix"/>
<feBlend mode="normal" in="SourceGraphic" in2="BackgroundImageFix" result="shape"/>
<feColorMatrix in="SourceAlpha" type="matrix" values="0 0 0 0 0 0 0 0 0 0 0 0 0 0 0 0 0 0 127 0" result="hardAlpha"/>
<feMorphology radius="0" operator="erode" in="SourceAlpha" result="0innershadow"/>
<feOffset dx="-0.2" dy="-0.2"/>
<feGaussianBlur stdDeviation="0.2"/>
<feComposite in2="hardAlpha" operator="arithmetic" k2="-1" k3="1"/>
<feColorMatrix type="matrix" values="0 0 0 0 0.317647 0 0 0 0 0.458824 0 0 0 0 0.886275 0 0 0 1 0"/>
<feBlend mode="normal" in2="shape" result="0innershadow"/>
<feColorMatrix in="SourceAlpha" type="matrix" values="0 0 0 0 0 0 0 0 0 0 0 0 0 0 0 0 0 0 127 0" result="hardAlpha"/>
<feMorphology radius="0" operator="erode" in="SourceAlpha" result="1innershadow"/>
<feOffset dx="0.2" dy="0.2"/>
<feGaussianBlur stdDeviation="0.2"/>
<feComposite in2="hardAlpha" operator="arithmetic" k2="-1" k3="1"/>
<feColorMatrix type="matrix" values="0 0 0 0 0.317647 0 0 0 0 0.458824 0 0 0 0 0.886275 0 0 0 1 0"/>
<feBlend mode="normal" in2="0innershadow" result="1innershadow"/>
<feColorMatrix in="SourceAlpha" type="matrix" values="0 0 0 0 0 0 0 0 0 0 0 0 0 0 0 0 0 0 127 0" result="hardAlpha"/>
<feMorphology radius="0" operator="erode" in="SourceAlpha" result="2innershadow"/>
<feOffset dx="-0.25" dy="0.25"/>
<feGaussianBlur stdDeviation="0.25"/>
<feComposite in2="hardAlpha" operator="arithmetic" k2="-1" k3="1"/>
<feColorMatrix type="matrix" values="0 0 0 0 0.372549 0 0 0 0 0.607843 0 0 0 0 0.960784 0 0 0 1 0"/>
<feBlend mode="normal" in2="1innershadow" result="2innershadow"/>
</filter>
<radialGradient id="pf_0_69_607" cx="0" cy="0" r="1" gradientUnits="userSpaceOnUse" gradientTransform="matrix(2.575934 -6.331121 8.789457 8.927491 23.287 23.234)">
<stop stop-color="#3669D9"/>
<stop offset="1" stop-color="#3669D9" stop-opacity="0"/>
</radialGradient>
<linearGradient id="pf_0_69_608" x1="66.954" y1="-2.012" x2="61.344" y2="20.059" gradientUnits="userSpaceOnUse">
<stop stop-color="#3D89EC"/>
<stop offset="1" stop-color="#3D89EC" stop-opacity="0"/>
</linearGradient>
<linearGradient id="pf_0_69_609" x1="37.216" y1="22.873" x2="38.269" y2="23.796" gradientUnits="userSpaceOnUse">
<stop stop-color="#1A6DD8"/>
<stop offset="1" stop-color="#1A6DD8" stop-opacity="0"/>
</linearGradient>
<linearGradient id="pf_0_69_610" x1="62.366" y1="61.756" x2="33.156" y2="103.952" gradientUnits="userSpaceOnUse">
<stop stop-color="#F6BC7F"/>
<stop offset="1" stop-color="#A76740"/>
</linearGradient>
<linearGradient id="pf_0_69_611" x1="27.175" y1="139.422" x2="34.256" y2="74.539" gradientUnits="userSpaceOnUse">
<stop stop-color="#B05B5B"/>
<stop offset="1" stop-color="#B05B5B" stop-opacity="0"/>
</linearGradient>
<linearGradient id="pf_0_69_612" x1="62.885" y1="79.901" x2="38.147" y2="79.901" gradientUnits="userSpaceOnUse">
<stop stop-color="#CD8858"/>
<stop offset="1" stop-color="#D28D59"/>
</linearGradient>
<linearGradient id="pf_0_69_613" x1="23.269" y1="97.134" x2="62.716" y2="78.273" gradientUnits="userSpaceOnUse">
<stop stop-color="#D38E5F"/>
<stop offset="1" stop-color="#BE794E"/>
</linearGradient>
<radialGradient id="pf_0_69_614" cx="0" cy="0" r="1" gradientUnits="userSpaceOnUse" gradientTransform="matrix(-16.348629 11.154458 -6.0157 -22.010674 23.571 40.863)">
<stop offset="0.837" stop-color="#E5AC75" stop-opacity="0"/>
<stop offset="1" stop-color="#E5AC75"/>
</radialGradient>
<radialGradient id="pf_0_69_615" cx="0" cy="0" r="1" gradientUnits="userSpaceOnUse" gradientTransform="matrix(10.523338 -14.603983 8.875098 15.965027 17.56 45.921)">
<stop offset="0.91" stop-color="#B36441" stop-opacity="0"/>
<stop offset="1" stop-color="#B36441"/>
</radialGradient>
<radialGradient id="pf_0_69_616" cx="0" cy="0" r="1" gradientUnits="userSpaceOnUse" gradientTransform="matrix(10.400391 12.806642 -9.185419 18.622058 18.732 42.141)">
<stop offset="0.926" stop-color="#AB662B" stop-opacity="0"/>
<stop offset="1" stop-color="#AB662B"/>
</radialGradient>
<filter id="filter69_617" x="28.808594" y="64.037109" width="9.536576" height="22.51875" filterUnits="userSpaceOnUse" color-interpolation-filters="sRGB">
<feFlood flood-opacity="0" result="BackgroundImageFix"/>
<feBlend mode="normal" in="SourceGraphic" in2="BackgroundImageFix" result="shape"/>
<feColorMatrix in="SourceAlpha" type="matrix" values="0 0 0 0 0 0 0 0 0 0 0 0 0 0 0 0 0 0 127 0" result="hardAlpha"/>
<feMorphology radius="0" operator="erode" in="SourceAlpha" result="0innershadow"/>
<feOffset dx="-0.3" dy="0.3"/>
<feGaussianBlur stdDeviation="0.3"/>
<feComposite in2="hardAlpha" operator="arithmetic" k2="-1" k3="1"/>
<feColorMatrix type="matrix" values="0 0 0 0 0.270588 0 0 0 0 0.113725 0 0 0 0 0.07451 0 0 0 1 0"/>
<feBlend mode="normal" in2="shape" result="0innershadow"/>
<feColorMatrix in="SourceAlpha" type="matrix" values="0 0 0 0 0 0 0 0 0 0 0 0 0 0 0 0 0 0 127 0" result="hardAlpha"/>
<feMorphology radius="0" operator="erode" in="SourceAlpha" result="1innershadow"/>
<feOffset dx="0.2" dy="-0.2"/>
<feGaussianBlur stdDeviation="0.2"/>
<feComposite in2="hardAlpha" operator="arithmetic" k2="-1" k3="1"/>
<feColorMatrix type="matrix" values="0 0 0 0 0.490196 0 0 0 0 0.352941 0 0 0 0 0.321569 0 0 0 1 0"/>
<feBlend mode="normal" in2="0innershadow" result="1innershadow"/>
<feColorMatrix in="SourceAlpha" type="matrix" values="0 0 0 0 0 0 0 0 0 0 0 0 0 0 0 0 0 0 127 0" result="hardAlpha"/>
<feMorphology radius="0" operator="erode" in="SourceAlpha" result="2innershadow"/>
<feOffset dx="0.2" dy="0.2"/>
<feGaussianBlur stdDeviation="0.2"/>
<feComposite in2="hardAlpha" operator="arithmetic" k2="-1" k3="1"/>
<feColorMatrix type="matrix" values="0 0 0 0 0.270588 0 0 0 0 0.113725 0 0 0 0 0.07451 0 0 0 1 0"/>
<feBlend mode="normal" in2="1innershadow" result="2innershadow"/>
</filter>
</defs>
</svg>
