<svg width="24" height="18" viewBox="0 0 24 18" fill="none" xmlns="http://www.w3.org/2000/svg" xmlns:xlink="http://www.w3.org/1999/xlink">
<path d="M21.493,7.878L1.192,7.878C0.645,7.878 0.202,8.322 0.202,8.869C0.202,9.416 0.645,9.859 1.192,9.859L21.493,9.859C22.04,9.859 22.484,9.416 22.484,8.869C22.484,8.322 22.04,7.878 21.493,7.878Z" transform="rotate(-91.565 11.343 8.869)" fill="#747474"/>
<path d="M21.412,7.884L1.112,7.884C0.565,7.884 0.121,8.327 0.121,8.874C0.121,9.421 0.565,9.864 1.112,9.864L21.412,9.864C21.959,9.864 22.402,9.421 22.402,8.874C22.402,8.327 21.959,7.884 21.412,7.884Z" transform="rotate(91.477 11.262 8.874)" fill="#747474"/>
</svg>
