<svg width="76" height="138" viewBox="0 0 76 138" fill="none" xmlns="http://www.w3.org/2000/svg" xmlns:xlink="http://www.w3.org/1999/xlink">
<g filter="url(#filter68_124)">
<path d="M31.859,5.536L45.184,41.501L26.384,49.944C13.399,43.165 5.753,30.115 1.14,16.705C-0.804,11.047 -0.788,0.658 6.94,0.658L26.465,0.658C27.555,0.658 28.627,1.108 29.573,1.965C30.52,2.822 31.307,4.05 31.859,5.536Z" fill="#4686EC"/>
<path d="M31.859,5.536L45.184,41.501L26.384,49.944C13.399,43.165 5.753,30.115 1.14,16.705C-0.804,11.047 -0.788,0.658 6.94,0.658L26.465,0.658C27.555,0.658 28.627,1.108 29.573,1.965C30.52,2.822 31.307,4.05 31.859,5.536Z" fill="url(#pf_0_68_126)"/>
<path d="M31.859,5.536L45.184,41.501L26.384,49.944C13.399,43.165 5.753,30.115 1.14,16.705C-0.804,11.047 -0.788,0.658 6.94,0.658L26.465,0.658C27.555,0.658 28.627,1.108 29.573,1.965C30.52,2.822 31.307,4.05 31.859,5.536Z" fill="url(#pf_0_68_127)"/>
</g>
<g filter="url(#filter68_128)">
<path d="M43.663,5.537L30.338,41.502L49.138,49.945C62.122,43.161 69.769,30.111 74.382,16.701C76.325,11.043 76.31,0.654 68.582,0.654L49.057,0.654C47.966,0.654 46.894,1.105 45.948,1.961C45.002,2.818 44.214,4.051 43.663,5.537Z" fill="#4686EC"/>
<path d="M43.663,5.537L30.338,41.502L49.138,49.945C62.122,43.161 69.769,30.111 74.382,16.701C76.325,11.043 76.31,0.654 68.582,0.654L49.057,0.654C47.966,0.654 46.894,1.105 45.948,1.961C45.002,2.818 44.214,4.051 43.663,5.537Z" fill="url(#pf_0_68_130)"/>
<path d="M43.663,5.537L30.338,41.502L49.138,49.945C62.122,43.161 69.769,30.111 74.382,16.701C76.325,11.043 76.31,0.654 68.582,0.654L49.057,0.654C47.966,0.654 46.894,1.105 45.948,1.961C45.002,2.818 44.214,4.051 43.663,5.537Z" fill="url(#pf_0_68_131)"/>
</g>
<path d="M43.663,5.537L30.338,41.502L49.138,49.945C62.122,43.161 69.769,30.111 74.382,16.701C76.325,11.043 76.31,0.654 68.582,0.654L49.057,0.654C47.966,0.654 46.894,1.105 45.948,1.961C45.002,2.818 44.214,4.051 43.663,5.537Z" fill="url(#pf_0_68_132)"/>
<path d="M38.146,137.013C55.488,137.013 69.546,114.801 69.546,87.401C69.546,60.001 55.488,37.789 38.146,37.789C20.804,37.789 6.746,60.001 6.746,87.401C6.746,114.801 20.804,137.013 38.146,137.013Z" fill="url(#pf_0_68_133)"/>
<path d="M38.146,137.013C55.488,137.013 69.546,114.801 69.546,87.401C69.546,60.001 55.488,37.789 38.146,37.789C20.804,37.789 6.746,60.001 6.746,87.401C6.746,114.801 20.804,137.013 38.146,137.013Z" fill="url(#pf_0_68_134)"/>
<path d="M38.146,130.298C53.141,130.298 65.296,111.092 65.296,87.401C65.296,63.71 53.141,44.504 38.146,44.504C23.152,44.504 10.996,63.71 10.996,87.401C10.996,111.092 23.152,130.298 38.146,130.298Z" fill="url(#pf_0_68_135)"/>
<path d="M38.147,124.853C51.237,124.853 61.85,108.086 61.85,87.402C61.85,66.719 51.237,49.951 38.147,49.951C25.056,49.951 14.443,66.719 14.443,87.402C14.443,108.086 25.056,124.853 38.147,124.853Z" fill="url(#pf_0_68_136)"/>
<path d="M38.147,124.853C51.237,124.853 61.85,108.086 61.85,87.402C61.85,66.719 51.237,49.951 38.147,49.951C25.056,49.951 14.443,66.719 14.443,87.402C14.443,108.086 25.056,124.853 38.147,124.853Z" fill="url(#pf_0_68_137)"/>
<path d="M38.147,124.853C51.237,124.853 61.85,108.086 61.85,87.402C61.85,66.719 51.237,49.951 38.147,49.951C25.056,49.951 14.443,66.719 14.443,87.402C14.443,108.086 25.056,124.853 38.147,124.853Z" fill="url(#pf_0_68_138)"/>
<g filter="url(#filter68_139)">
<path d="M41.813,70.95C41.813,69.902 41.549,68.898 41.08,68.157C40.611,67.416 39.976,67 39.313,67L33.25,67C32.918,67 32.601,67.208 32.366,67.578C32.132,67.949 32,68.451 32,68.975L32,74.786C32,75.873 32.556,76.761 33.25,76.761L34.634,76.761C34.842,76.761 35.04,76.891 35.187,77.123C35.333,77.354 35.416,77.668 35.416,77.996L35.416,106.5C35.416,107.155 35.58,107.783 35.873,108.246C36.166,108.709 36.564,108.969 36.978,108.969L40.25,108.969C40.664,108.969 41.062,108.709 41.355,108.246C41.648,107.783 41.813,107.155 41.813,106.5L41.813,70.95Z" fill="#6F3955"/>
</g>
<path d="M41.813,70.95C41.813,69.902 41.549,68.898 41.08,68.157C40.611,67.416 39.976,67 39.313,67L33.25,67C32.918,67 32.601,67.208 32.366,67.578C32.132,67.949 32,68.451 32,68.975L32,74.786C32,75.873 32.556,76.761 33.25,76.761L34.634,76.761C34.842,76.761 35.04,76.891 35.187,77.123C35.333,77.354 35.416,77.668 35.416,77.996L35.416,106.5C35.416,107.155 35.58,107.783 35.873,108.246C36.166,108.709 36.564,108.969 36.978,108.969L40.25,108.969C40.664,108.969 41.062,108.709 41.355,108.246C41.648,107.783 41.813,107.155 41.813,106.5L41.813,70.95Z" fill="url(#pf_0_68_141)"/>
<defs>
<filter id="filter68_124" x="0.0625" y="0.658203" width="22.760648" height="24.893057" filterUnits="userSpaceOnUse" color-interpolation-filters="sRGB">
<feFlood flood-opacity="0" result="BackgroundImageFix"/>
<feBlend mode="normal" in="SourceGraphic" in2="BackgroundImageFix" result="shape"/>
<feColorMatrix in="SourceAlpha" type="matrix" values="0 0 0 0 0 0 0 0 0 0 0 0 0 0 0 0 0 0 127 0" result="hardAlpha"/>
<feMorphology radius="0" operator="erode" in="SourceAlpha" result="0innershadow"/>
<feOffset dx="-0.2" dy="-0.2"/>
<feGaussianBlur stdDeviation="0.2"/>
<feComposite in2="hardAlpha" operator="arithmetic" k2="-1" k3="1"/>
<feColorMatrix type="matrix" values="0 0 0 0 0.317647 0 0 0 0 0.458824 0 0 0 0 0.886275 0 0 0 1 0"/>
<feBlend mode="normal" in2="shape" result="0innershadow"/>
<feColorMatrix in="SourceAlpha" type="matrix" values="0 0 0 0 0 0 0 0 0 0 0 0 0 0 0 0 0 0 127 0" result="hardAlpha"/>
<feMorphology radius="0" operator="erode" in="SourceAlpha" result="1innershadow"/>
<feOffset dx="0.2" dy="0.2"/>
<feGaussianBlur stdDeviation="0.2"/>
<feComposite in2="hardAlpha" operator="arithmetic" k2="-1" k3="1"/>
<feColorMatrix type="matrix" values="0 0 0 0 0.317647 0 0 0 0 0.458824 0 0 0 0 0.886275 0 0 0 1 0"/>
<feBlend mode="normal" in2="0innershadow" result="1innershadow"/>
<feColorMatrix in="SourceAlpha" type="matrix" values="0 0 0 0 0 0 0 0 0 0 0 0 0 0 0 0 0 0 127 0" result="hardAlpha"/>
<feMorphology radius="0" operator="erode" in="SourceAlpha" result="2innershadow"/>
<feOffset dx="-0.25" dy="0.25"/>
<feGaussianBlur stdDeviation="0.25"/>
<feComposite in2="hardAlpha" operator="arithmetic" k2="-1" k3="1"/>
<feColorMatrix type="matrix" values="0 0 0 0 0.372549 0 0 0 0 0.607843 0 0 0 0 0.960784 0 0 0 1 0"/>
<feBlend mode="normal" in2="1innershadow" result="2innershadow"/>
</filter>
<radialGradient id="pf_0_68_126" cx="0" cy="0" r="1" gradientUnits="userSpaceOnUse" gradientTransform="matrix(-3.951324 -9.496611 22.44686 -23.315441 14.474 23.232)">
<stop stop-color="#3669D9"/>
<stop offset="1" stop-color="#3669D9" stop-opacity="0"/>
</radialGradient>
<linearGradient id="pf_0_68_127" x1="8.568" y1="-2.013" x2="14.178" y2="20.058" gradientUnits="userSpaceOnUse">
<stop stop-color="#3D89EC"/>
<stop offset="1" stop-color="#3D89EC" stop-opacity="0"/>
</linearGradient>
<filter id="filter68_128" x="30.337891" y="0.654297" width="22.760648" height="24.895506" filterUnits="userSpaceOnUse" color-interpolation-filters="sRGB">
<feFlood flood-opacity="0" result="BackgroundImageFix"/>
<feBlend mode="normal" in="SourceGraphic" in2="BackgroundImageFix" result="shape"/>
<feColorMatrix in="SourceAlpha" type="matrix" values="0 0 0 0 0 0 0 0 0 0 0 0 0 0 0 0 0 0 127 0" result="hardAlpha"/>
<feMorphology radius="0" operator="erode" in="SourceAlpha" result="0innershadow"/>
<feOffset dx="-0.2" dy="-0.2"/>
<feGaussianBlur stdDeviation="0.2"/>
<feComposite in2="hardAlpha" operator="arithmetic" k2="-1" k3="1"/>
<feColorMatrix type="matrix" values="0 0 0 0 0.317647 0 0 0 0 0.458824 0 0 0 0 0.886275 0 0 0 1 0"/>
<feBlend mode="normal" in2="shape" result="0innershadow"/>
<feColorMatrix in="SourceAlpha" type="matrix" values="0 0 0 0 0 0 0 0 0 0 0 0 0 0 0 0 0 0 127 0" result="hardAlpha"/>
<feMorphology radius="0" operator="erode" in="SourceAlpha" result="1innershadow"/>
<feOffset dx="0.2" dy="0.2"/>
<feGaussianBlur stdDeviation="0.2"/>
<feComposite in2="hardAlpha" operator="arithmetic" k2="-1" k3="1"/>
<feColorMatrix type="matrix" values="0 0 0 0 0.317647 0 0 0 0 0.458824 0 0 0 0 0.886275 0 0 0 1 0"/>
<feBlend mode="normal" in2="0innershadow" result="1innershadow"/>
<feColorMatrix in="SourceAlpha" type="matrix" values="0 0 0 0 0 0 0 0 0 0 0 0 0 0 0 0 0 0 127 0" result="hardAlpha"/>
<feMorphology radius="0" operator="erode" in="SourceAlpha" result="2innershadow"/>
<feOffset dx="-0.25" dy="0.25"/>
<feGaussianBlur stdDeviation="0.25"/>
<feComposite in2="hardAlpha" operator="arithmetic" k2="-1" k3="1"/>
<feColorMatrix type="matrix" values="0 0 0 0 0.372549 0 0 0 0 0.607843 0 0 0 0 0.960784 0 0 0 1 0"/>
<feBlend mode="normal" in2="1innershadow" result="2innershadow"/>
</filter>
<radialGradient id="pf_0_68_130" cx="0" cy="0" r="1" gradientUnits="userSpaceOnUse" gradientTransform="matrix(2.575934 -6.331121 8.789457 8.927491 23.287 23.234)">
<stop stop-color="#3669D9"/>
<stop offset="1" stop-color="#3669D9" stop-opacity="0"/>
</radialGradient>
<linearGradient id="pf_0_68_131" x1="66.954" y1="-2.012" x2="61.344" y2="20.059" gradientUnits="userSpaceOnUse">
<stop stop-color="#3D89EC"/>
<stop offset="1" stop-color="#3D89EC" stop-opacity="0"/>
</linearGradient>
<linearGradient id="pf_0_68_132" x1="37.216" y1="22.873" x2="38.269" y2="23.796" gradientUnits="userSpaceOnUse">
<stop stop-color="#1A6DD8"/>
<stop offset="1" stop-color="#1A6DD8" stop-opacity="0"/>
</linearGradient>
<linearGradient id="pf_0_68_133" x1="54.93" y1="69.814" x2="33.04" y2="103.705" gradientUnits="userSpaceOnUse">
<stop stop-color="#F4C654"/>
<stop offset="1" stop-color="#DC9729"/>
</linearGradient>
<linearGradient id="pf_0_68_134" x1="27.174" y1="139.422" x2="34.255" y2="74.539" gradientUnits="userSpaceOnUse">
<stop stop-color="#FA8547"/>
<stop offset="1" stop-color="#FA8547" stop-opacity="0"/>
</linearGradient>
<linearGradient id="pf_0_68_135" x1="62.884" y1="79.901" x2="38.146" y2="79.901" gradientUnits="userSpaceOnUse">
<stop stop-color="#F9A842"/>
<stop offset="1" stop-color="#FAA742"/>
</linearGradient>
<linearGradient id="pf_0_68_136" x1="27.19" y1="82.652" x2="62.546" y2="82.652" gradientUnits="userSpaceOnUse">
<stop stop-color="#FAA945"/>
<stop offset="1" stop-color="#EC9936"/>
</linearGradient>
<radialGradient id="pf_0_68_137" cx="0" cy="0" r="1" gradientUnits="userSpaceOnUse" gradientTransform="matrix(-16.446406 0 0 -22.142345 23.669 43.701)">
<stop offset="0.893" stop-color="#F7B44D" stop-opacity="0"/>
<stop offset="1" stop-color="#F7B44D"/>
</radialGradient>
<radialGradient id="pf_0_68_138" cx="0" cy="0" r="1" gradientUnits="userSpaceOnUse" gradientTransform="matrix(15.825 0 0 21.925837 15.997 43.701)">
<stop offset="0.879" stop-color="#D2801F" stop-opacity="0"/>
<stop offset="0.983" stop-color="#D2801F"/>
</radialGradient>
<filter id="filter68_139" x="32" y="67" width="5.106249" height="21.284375" filterUnits="userSpaceOnUse" color-interpolation-filters="sRGB">
<feFlood flood-opacity="0" result="BackgroundImageFix"/>
<feBlend mode="normal" in="SourceGraphic" in2="BackgroundImageFix" result="shape"/>
<feColorMatrix in="SourceAlpha" type="matrix" values="0 0 0 0 0 0 0 0 0 0 0 0 0 0 0 0 0 0 127 0" result="hardAlpha"/>
<feMorphology radius="0" operator="erode" in="SourceAlpha" result="0innershadow"/>
<feOffset dx="-0.3" dy="0.3"/>
<feGaussianBlur stdDeviation="0.3"/>
<feComposite in2="hardAlpha" operator="arithmetic" k2="-1" k3="1"/>
<feColorMatrix type="matrix" values="0 0 0 0 0.392157 0 0 0 0 0.164706 0 0 0 0 0.254902 0 0 0 1 0"/>
<feBlend mode="normal" in2="shape" result="0innershadow"/>
<feColorMatrix in="SourceAlpha" type="matrix" values="0 0 0 0 0 0 0 0 0 0 0 0 0 0 0 0 0 0 127 0" result="hardAlpha"/>
<feMorphology radius="0" operator="erode" in="SourceAlpha" result="1innershadow"/>
<feOffset dx="0.2" dy="-0.2"/>
<feGaussianBlur stdDeviation="0.2"/>
<feComposite in2="hardAlpha" operator="arithmetic" k2="-1" k3="1"/>
<feColorMatrix type="matrix" values="0 0 0 0 0.501961 0 0 0 0 0.333333 0 0 0 0 0.360784 0 0 0 1 0"/>
<feBlend mode="normal" in2="0innershadow" result="1innershadow"/>
</filter>
<linearGradient id="pf_0_68_141" x1="39.322" y1="108.969" x2="39.322" y2="104.935" gradientUnits="userSpaceOnUse">
<stop stop-color="#693B2E"/>
<stop offset="1" stop-color="#693B2E" stop-opacity="0"/>
</linearGradient>
</defs>
</svg>
