<svg width="96" height="106" viewBox="0 0 96 106" fill="none" xmlns="http://www.w3.org/2000/svg" xmlns:xlink="http://www.w3.org/1999/xlink">
<rect  x="0" y="10" width="96" height="96" rx="16" fill="#ABDCD8"/>
<path d="M67.346,71.107C66.061,69.96 64.935,68.646 64,67.2C62.979,65.203 62.367,63.023 62.2,60.787L62.2,54.2C62.209,50.688 60.934,47.293 58.617,44.653C56.299,42.014 53.097,40.312 49.613,39.867L49.613,38.147C49.613,37.675 49.426,37.222 49.092,36.888C48.758,36.554 48.305,36.367 47.833,36.367C47.361,36.367 46.908,36.554 46.574,36.888C46.241,37.222 46.053,37.675 46.053,38.147L46.053,39.893C42.6,40.371 39.437,42.083 37.15,44.713C34.863,47.344 33.606,50.714 33.613,54.2L33.613,60.787C33.446,63.023 32.834,65.203 31.813,67.2C30.894,68.643 29.787,69.957 28.52,71.107C28.378,71.232 28.264,71.385 28.185,71.558C28.107,71.73 28.067,71.917 28.066,72.107L28.066,73.92C28.066,74.274 28.207,74.613 28.457,74.863C28.707,75.113 29.046,75.253 29.4,75.253L66.466,75.253C66.82,75.253 67.159,75.113 67.409,74.863C67.659,74.613 67.8,74.274 67.8,73.92L67.8,72.107C67.799,71.917 67.759,71.73 67.681,71.558C67.603,71.385 67.489,71.232 67.346,71.107ZM30.84,72.587C32.08,71.388 33.173,70.045 34.093,68.587C35.379,66.175 36.13,63.515 36.293,60.787L36.293,54.2C36.24,52.637 36.502,51.08 37.064,49.621C37.625,48.162 38.475,46.83 39.561,45.706C40.648,44.582 41.95,43.688 43.389,43.078C44.829,42.467 46.376,42.153 47.94,42.153C49.503,42.153 51.051,42.467 52.49,43.078C53.93,43.688 55.231,44.582 56.318,45.706C57.405,46.83 58.254,48.162 58.816,49.621C59.377,51.08 59.639,52.637 59.586,54.2L59.586,60.787C59.75,63.515 60.5,66.175 61.786,68.587C62.707,70.045 63.799,71.388 65.04,72.587L30.84,72.587Z" fill="#666666"/>
<path d="M47.999,79.707C48.839,79.687 49.645,79.371 50.275,78.815C50.904,78.259 51.317,77.498 51.439,76.667L44.426,76.667C44.552,77.52 44.984,78.299 45.641,78.858C46.298,79.418 47.136,79.719 47.999,79.707L47.999,79.707Z" fill="#666666"/>
<path d="M76.667,11.435C80.349,11.435 83.333,9.019 83.333,6.039C83.333,3.059 80.349,0.644 76.667,0.644C72.985,0.644 70,3.059 70,6.039C70,9.019 72.985,11.435 76.667,11.435Z" fill="#EB5757"/>
</svg>
