<svg width="68" height="48" viewBox="0 0 68 48" fill="none" xmlns="http://www.w3.org/2000/svg" xmlns:xlink="http://www.w3.org/1999/xlink">
<path d="M63.651,21.054L65.004,19.582L63.651,21.054ZM63.651,26.946L65.004,28.418L63.651,26.946ZM65.901,24L63.901,24L65.901,24ZM3.443,44.414L4.857,43L3.443,44.414ZM45.148,43.946L43.795,42.473L45.148,43.946ZM43.947,44.864L44.673,46.727L43.947,44.864ZM45.148,4.054L43.795,5.527L45.148,4.054ZM43.947,3.136L44.673,1.273L43.947,3.136ZM3.443,3.586L2.029,2.172L3.443,3.586ZM6.857,5L42.442,5L42.442,1L6.857,1L6.857,5ZM42.442,43L6.857,43L6.857,47L42.442,47L42.442,43ZM4.857,41L4.857,7L0.857,7L0.857,41L4.857,41ZM43.795,5.527L62.298,22.527L65.004,19.582L46.501,2.582L43.795,5.527ZM62.298,25.473L43.795,42.473L46.501,45.418L65.004,28.418L62.298,25.473ZM62.298,22.527C63.091,23.256 63.53,23.665 63.796,23.988C64.026,24.266 63.901,24.217 63.901,24L67.901,24C67.901,22.905 67.402,22.072 66.881,21.441C66.397,20.855 65.711,20.231 65.004,19.582L62.298,22.527ZM65.004,28.418C65.711,27.769 66.397,27.145 66.881,26.559C67.402,25.928 67.901,25.095 67.901,24L63.901,24C63.901,23.783 64.026,23.734 63.796,24.012C63.53,24.335 63.091,24.744 62.298,25.473L65.004,28.418ZM6.857,43C5.858,43 5.309,42.996 4.929,42.945C4.606,42.901 4.716,42.859 4.857,43L2.029,45.828C2.755,46.555 3.63,46.806 4.396,46.909C5.105,47.004 5.971,47 6.857,47L6.857,43ZM0.857,41C0.857,41.886 0.853,42.752 0.948,43.461C1.051,44.227 1.302,45.102 2.029,45.828L4.857,43C4.998,43.141 4.956,43.251 4.913,42.928C4.861,42.548 4.857,41.999 4.857,41L0.857,41ZM42.442,47C43.059,47 43.891,47.032 44.673,46.727L43.221,43C43.294,42.971 43.324,42.98 43.208,42.988C43.06,42.999 42.854,43 42.442,43L42.442,47ZM43.795,42.473C43.491,42.752 43.339,42.89 43.222,42.982C43.131,43.055 43.147,43.029 43.221,43L44.673,46.727C45.455,46.423 46.046,45.836 46.501,45.418L43.795,42.473ZM42.442,5C42.854,5 43.06,5.001 43.208,5.012C43.324,5.02 43.294,5.029 43.221,5L44.673,1.273C43.891,0.968 43.059,1 42.442,1L42.442,5ZM46.501,2.582C46.046,2.164 45.455,1.577 44.673,1.273L43.221,5C43.147,4.971 43.131,4.945 43.222,5.018C43.339,5.11 43.491,5.248 43.795,5.527L46.501,2.582ZM6.857,1C5.971,1 5.105,0.996 4.396,1.091C3.63,1.194 2.755,1.445 2.029,2.172L4.857,5C4.716,5.141 4.606,5.099 4.929,5.055C5.309,5.004 5.858,5 6.857,5L6.857,1ZM4.857,7C4.857,6.001 4.861,5.452 4.913,5.072C4.956,4.749 4.998,4.859 4.857,5L2.029,2.172C1.302,2.898 1.051,3.773 0.948,4.539C0.853,5.248 0.857,6.114 0.857,7L4.857,7Z" fill="#39BAAA"/>
</svg>
