<svg width="64" height="30" viewBox="0 0 64 30" fill="none" xmlns="http://www.w3.org/2000/svg" xmlns:xlink="http://www.w3.org/1999/xlink">
<path d="M56.434,11.238L55.42,12.962L56.434,11.238ZM2.628,26.762L1.214,28.176L2.628,26.762ZM40.756,27.277L41.281,29.207L40.756,27.277ZM41.714,2.576L42.728,0.852L41.714,2.576ZM40.756,2.094L41.281,0.164L40.756,2.094ZM6.042,4.023L39.685,4.023L39.685,0.023L6.042,0.023L6.042,4.023ZM39.685,25.348L6.042,25.348L6.042,29.348L39.685,29.348L39.685,25.348ZM4.042,23.348L4.042,6.023L0.042,6.023L0.042,23.348L4.042,23.348ZM40.7,4.3L55.42,12.962L57.449,9.514L42.728,0.852L40.7,4.3ZM55.42,16.409L40.7,25.071L42.728,28.519L57.449,19.857L55.42,16.409ZM55.42,12.962C56.783,13.764 57.605,14.254 58.114,14.665C58.607,15.063 58.349,15.028 58.349,14.686L62.349,14.686C62.349,13.2 61.44,12.209 60.627,11.553C59.832,10.91 58.696,10.248 57.449,9.514L55.42,12.962ZM57.449,19.857C58.696,19.123 59.832,18.461 60.627,17.818C61.44,17.162 62.349,16.171 62.349,14.686L58.349,14.686C58.349,14.343 58.607,14.308 58.114,14.706C57.605,15.117 56.783,15.607 55.42,16.409L57.449,19.857ZM6.042,25.348C5.043,25.348 4.494,25.343 4.114,25.292C3.791,25.249 3.901,25.207 4.042,25.348L1.214,28.176C1.94,28.902 2.815,29.153 3.581,29.256C4.29,29.352 5.156,29.348 6.042,29.348L6.042,25.348ZM0.042,23.348C0.042,24.234 0.038,25.1 0.133,25.809C0.236,26.575 0.487,27.45 1.214,28.176L4.042,25.348C4.183,25.488 4.141,25.598 4.097,25.276C4.046,24.895 4.042,24.347 4.042,23.348L0.042,23.348ZM39.685,29.348C40.122,29.348 40.706,29.364 41.281,29.207L40.23,25.348C40.284,25.333 40.303,25.337 40.222,25.341C40.119,25.347 39.976,25.348 39.685,25.348L39.685,29.348ZM40.7,25.071C40.449,25.219 40.326,25.291 40.234,25.338C40.162,25.376 40.177,25.362 40.23,25.348L41.281,29.207C41.857,29.05 42.351,28.74 42.728,28.519L40.7,25.071ZM39.685,4.023C39.976,4.023 40.119,4.024 40.222,4.029C40.303,4.034 40.284,4.038 40.23,4.023L41.281,0.164C40.706,0.007 40.122,0.023 39.685,0.023L39.685,4.023ZM42.728,0.852C42.351,0.631 41.857,0.321 41.281,0.164L40.23,4.023C40.177,4.009 40.162,3.995 40.234,4.033C40.326,4.08 40.449,4.152 40.7,4.3L42.728,0.852ZM6.042,0.023C5.156,0.023 4.29,0.019 3.581,0.114C2.815,0.218 1.94,0.469 1.214,1.195L4.042,4.023C3.901,4.164 3.791,4.122 4.114,4.079C4.494,4.028 5.043,4.023 6.042,4.023L6.042,0.023ZM4.042,6.023C4.042,5.024 4.046,4.476 4.097,4.095C4.141,3.773 4.183,3.883 4.042,4.023L1.214,1.195C0.487,1.921 0.236,2.796 0.133,3.562C0.038,4.271 0.042,5.137 0.042,6.023L4.042,6.023Z" fill="#39BAAA"/>
</svg>
