<svg width="64" height="30" viewBox="0 0 64 30" fill="none" xmlns="http://www.w3.org/2000/svg" xmlns:xlink="http://www.w3.org/1999/xlink">
<path d="M56.392,11.215L55.378,12.938L56.392,11.215ZM2.586,26.738L1.172,28.153L2.586,26.738ZM40.714,27.254L41.239,29.184L40.714,27.254ZM41.672,2.553L42.686,0.829L41.672,2.553ZM40.714,2.07L41.239,0.141L40.714,2.07ZM6,4L39.643,4L39.643,0L6,0L6,4ZM39.643,25.324L6,25.324L6,29.324L39.643,29.324L39.643,25.324ZM4,23.324L4,6L0,6L0,23.324L4,23.324ZM40.658,4.276L55.378,12.938L57.407,9.491L42.686,0.829L40.658,4.276ZM55.378,16.386L40.658,25.048L42.686,28.495L57.407,19.833L55.378,16.386ZM55.378,12.938C56.741,13.74 57.563,14.23 58.072,14.641C58.565,15.039 58.307,15.004 58.307,14.662L62.307,14.662C62.307,13.176 61.398,12.185 60.585,11.529C59.79,10.887 58.654,10.225 57.407,9.491L55.378,12.938ZM57.407,19.833C58.654,19.099 59.79,18.437 60.585,17.795C61.398,17.139 62.307,16.148 62.307,14.662L58.307,14.662C58.307,14.32 58.565,14.285 58.072,14.683C57.563,15.094 56.741,15.584 55.378,16.386L57.407,19.833ZM6,25.324C5.001,25.324 4.452,25.32 4.072,25.269C3.749,25.225 3.859,25.183 4,25.324L1.172,28.153C1.898,28.879 2.773,29.13 3.539,29.233C4.248,29.328 5.114,29.324 6,29.324L6,25.324ZM0,23.324C0,24.21 -0.004,25.076 0.091,25.785C0.194,26.552 0.445,27.426 1.172,28.153L4,25.324C4.141,25.465 4.099,25.575 4.055,25.252C4.004,24.872 4,24.323 4,23.324L0,23.324ZM39.643,29.324C40.08,29.324 40.664,29.34 41.239,29.184L40.188,25.324C40.242,25.31 40.261,25.314 40.18,25.318C40.077,25.324 39.934,25.324 39.643,25.324L39.643,29.324ZM40.658,25.048C40.407,25.195 40.284,25.267 40.192,25.315C40.12,25.352 40.135,25.339 40.188,25.324L41.239,29.184C41.815,29.027 42.309,28.717 42.686,28.495L40.658,25.048ZM39.643,4C39.934,4 40.077,4.001 40.18,4.006C40.261,4.01 40.242,4.015 40.188,4L41.239,0.141C40.664,-0.016 40.08,0 39.643,0L39.643,4ZM42.686,0.829C42.309,0.607 41.815,0.297 41.239,0.141L40.188,4C40.135,3.985 40.12,3.972 40.192,4.009C40.284,4.057 40.407,4.129 40.658,4.276L42.686,0.829ZM6,0C5.114,0 4.248,-0.004 3.539,0.091C2.773,0.194 1.898,0.445 1.172,1.172L4,4C3.859,4.141 3.749,4.099 4.072,4.055C4.452,4.004 5.001,4 6,4L6,0ZM4,6C4,5.001 4.004,4.452 4.055,4.072C4.099,3.749 4.141,3.859 4,4L1.172,1.172C0.445,1.898 0.194,2.773 0.091,3.539C-0.004,4.248 0,5.114 0,6L4,6Z" fill="#39BAAA"/>
</svg>
