<svg width="64" height="30" viewBox="0 0 64 30" fill="none" xmlns="http://www.w3.org/2000/svg" xmlns:xlink="http://www.w3.org/1999/xlink">
<path d="M56.433,11.238L55.419,12.962L56.433,11.238ZM2.627,26.762L1.213,28.176L2.627,26.762ZM40.755,27.277L41.28,29.207L40.755,27.277ZM41.713,2.576L42.727,0.852L41.713,2.576ZM40.755,2.094L41.28,0.164L40.755,2.094ZM6.041,4.023L39.684,4.023L39.684,0.023L6.041,0.023L6.041,4.023ZM39.684,25.348L6.041,25.348L6.041,29.348L39.684,29.348L39.684,25.348ZM4.041,23.348L4.041,6.023L0.041,6.023L0.041,23.348L4.041,23.348ZM40.699,4.3L55.419,12.962L57.448,9.514L42.727,0.852L40.699,4.3ZM55.419,16.409L40.699,25.071L42.727,28.519L57.448,19.857L55.419,16.409ZM55.419,12.962C56.782,13.764 57.604,14.254 58.113,14.665C58.606,15.063 58.348,15.028 58.348,14.686L62.348,14.686C62.348,13.2 61.439,12.209 60.626,11.553C59.831,10.91 58.695,10.248 57.448,9.514L55.419,12.962ZM57.448,19.857C58.695,19.123 59.831,18.461 60.626,17.818C61.439,17.162 62.348,16.171 62.348,14.686L58.348,14.686C58.348,14.343 58.606,14.308 58.113,14.706C57.604,15.117 56.782,15.607 55.419,16.409L57.448,19.857ZM6.041,25.348C5.042,25.348 4.493,25.343 4.113,25.292C3.79,25.249 3.9,25.207 4.041,25.348L1.213,28.176C1.939,28.902 2.814,29.153 3.58,29.256C4.289,29.352 5.155,29.348 6.041,29.348L6.041,25.348ZM0.041,23.348C0.041,24.234 0.037,25.1 0.132,25.809C0.235,26.575 0.486,27.45 1.213,28.176L4.041,25.348C4.182,25.488 4.14,25.598 4.096,25.276C4.045,24.895 4.041,24.347 4.041,23.348L0.041,23.348ZM39.684,29.348C40.121,29.348 40.705,29.364 41.28,29.207L40.229,25.348C40.283,25.333 40.302,25.337 40.221,25.341C40.118,25.347 39.975,25.348 39.684,25.348L39.684,29.348ZM40.699,25.071C40.448,25.219 40.325,25.291 40.233,25.338C40.161,25.376 40.176,25.362 40.229,25.348L41.28,29.207C41.856,29.05 42.35,28.74 42.727,28.519L40.699,25.071ZM39.684,4.023C39.975,4.023 40.118,4.024 40.221,4.029C40.302,4.034 40.283,4.038 40.229,4.023L41.28,0.164C40.705,0.007 40.121,0.023 39.684,0.023L39.684,4.023ZM42.727,0.852C42.35,0.631 41.856,0.321 41.28,0.164L40.229,4.023C40.176,4.009 40.161,3.995 40.233,4.033C40.325,4.08 40.448,4.152 40.699,4.3L42.727,0.852ZM6.041,0.023C5.155,0.023 4.289,0.019 3.58,0.114C2.814,0.218 1.939,0.469 1.213,1.195L4.041,4.023C3.9,4.164 3.79,4.122 4.113,4.079C4.493,4.028 5.042,4.023 6.041,4.023L6.041,0.023ZM4.041,6.023C4.041,5.024 4.045,4.476 4.096,4.095C4.14,3.773 4.182,3.883 4.041,4.023L1.213,1.195C0.486,1.921 0.235,2.796 0.132,3.562C0.037,4.271 0.041,5.137 0.041,6.023L4.041,6.023Z" fill="#39BAAA"/>
</svg>
