<svg width="64" height="30" viewBox="0 0 64 30" fill="none" xmlns="http://www.w3.org/2000/svg" xmlns:xlink="http://www.w3.org/1999/xlink">
<path d="M56.525,10.242L55.511,11.966L56.525,10.242ZM2.719,25.766L1.304,27.18L2.719,25.766ZM40.846,26.281L41.372,28.211L40.846,26.281ZM41.805,1.58L42.819,-0.144L41.805,1.58ZM40.846,1.098L41.372,-0.832L40.846,1.098ZM6.133,3.027L39.776,3.027L39.776,-0.973L6.133,-0.973L6.133,3.027ZM39.776,24.352L6.133,24.352L6.133,28.352L39.776,28.352L39.776,24.352ZM4.133,22.352L4.133,5.027L0.133,5.027L0.133,22.352L4.133,22.352ZM40.79,3.304L55.511,11.966L57.539,8.518L42.819,-0.144L40.79,3.304ZM55.511,15.413L40.79,24.075L42.819,27.523L57.539,18.861L55.511,15.413ZM55.511,11.966C56.874,12.768 57.696,13.257 58.205,13.669C58.698,14.067 58.44,14.032 58.44,13.689L62.44,13.689C62.44,12.204 61.53,11.213 60.718,10.557C59.922,9.914 58.786,9.252 57.539,8.518L55.511,11.966ZM57.539,18.861C58.786,18.127 59.922,17.465 60.718,16.822C61.53,16.166 62.44,15.175 62.44,13.689L58.44,13.689C58.44,13.347 58.698,13.312 58.205,13.71C57.696,14.121 56.874,14.611 55.511,15.413L57.539,18.861ZM6.133,24.352C5.133,24.352 4.585,24.347 4.205,24.296C3.882,24.253 3.992,24.211 4.133,24.352L1.304,27.18C2.031,27.906 2.905,28.157 3.672,28.26C4.381,28.356 5.247,28.352 6.133,28.352L6.133,24.352ZM0.133,22.352C0.133,23.238 0.129,24.104 0.224,24.813C0.327,25.579 0.578,26.454 1.304,27.18L4.133,24.352C4.273,24.492 4.232,24.602 4.188,24.28C4.137,23.899 4.133,23.351 4.133,22.352L0.133,22.352ZM39.776,28.352C40.213,28.352 40.797,28.368 41.372,28.211L40.321,24.352C40.374,24.337 40.394,24.341 40.313,24.345C40.209,24.351 40.067,24.352 39.776,24.352L39.776,28.352ZM40.79,24.075C40.54,24.223 40.417,24.295 40.325,24.342C40.253,24.38 40.267,24.366 40.321,24.352L41.372,28.211C41.948,28.054 42.442,27.744 42.819,27.523L40.79,24.075ZM39.776,3.027C40.067,3.027 40.209,3.028 40.313,3.033C40.394,3.038 40.374,3.042 40.321,3.027L41.372,-0.832C40.797,-0.989 40.213,-0.973 39.776,-0.973L39.776,3.027ZM42.819,-0.144C42.442,-0.366 41.948,-0.675 41.372,-0.832L40.321,3.027C40.267,3.013 40.253,2.999 40.325,3.037C40.417,3.084 40.54,3.156 40.79,3.304L42.819,-0.144ZM6.133,-0.973C5.247,-0.973 4.381,-0.977 3.672,-0.882C2.905,-0.779 2.031,-0.528 1.304,0.199L4.133,3.027C3.992,3.168 3.882,3.126 4.205,3.083C4.585,3.032 5.133,3.027 6.133,3.027L6.133,-0.973ZM4.133,5.027C4.133,4.028 4.137,3.48 4.188,3.099C4.232,2.776 4.273,2.887 4.133,3.027L1.304,0.199C0.578,0.925 0.327,1.8 0.224,2.566C0.129,3.275 0.133,4.141 0.133,5.027L4.133,5.027Z" fill="#39BAAA"/>
</svg>
