<svg width="64" height="30" viewBox="0 0 64 30" fill="none" xmlns="http://www.w3.org/2000/svg" xmlns:xlink="http://www.w3.org/1999/xlink">
<path d="M56.434,11.482L55.42,13.206L56.434,11.482ZM2.628,27.006L1.214,28.42L2.628,27.006ZM40.756,27.521L41.281,29.451L40.756,27.521ZM41.714,2.82L42.728,1.096L41.714,2.82ZM40.756,2.338L41.281,0.408L40.756,2.338ZM6.042,4.268L39.685,4.268L39.685,0.268L6.042,0.268L6.042,4.268ZM39.685,25.592L6.042,25.592L6.042,29.592L39.685,29.592L39.685,25.592ZM4.042,23.592L4.042,6.268L0.042,6.268L0.042,23.592L4.042,23.592ZM40.7,4.544L55.42,13.206L57.449,9.758L42.728,1.096L40.7,4.544ZM55.42,16.653L40.7,25.315L42.728,28.763L57.449,20.101L55.42,16.653ZM55.42,13.206C56.783,14.008 57.605,14.498 58.114,14.909C58.607,15.307 58.349,15.272 58.349,14.93L62.349,14.93C62.349,13.444 61.44,12.453 60.627,11.797C59.832,11.154 58.696,10.492 57.449,9.758L55.42,13.206ZM57.449,20.101C58.696,19.367 59.832,18.705 60.627,18.062C61.44,17.406 62.349,16.415 62.349,14.93L58.349,14.93C58.349,14.587 58.607,14.553 58.114,14.95C57.605,15.362 56.783,15.851 55.42,16.653L57.449,20.101ZM6.042,25.592C5.043,25.592 4.494,25.587 4.114,25.536C3.791,25.493 3.901,25.451 4.042,25.592L1.214,28.42C1.94,29.147 2.815,29.398 3.581,29.501C4.29,29.596 5.156,29.592 6.042,29.592L6.042,25.592ZM0.042,23.592C0.042,24.478 0.038,25.344 0.133,26.053C0.236,26.819 0.487,27.694 1.214,28.42L4.042,25.592C4.183,25.732 4.141,25.843 4.097,25.52C4.046,25.139 4.042,24.591 4.042,23.592L0.042,23.592ZM39.685,29.592C40.122,29.592 40.706,29.608 41.281,29.451L40.23,25.592C40.284,25.577 40.303,25.581 40.222,25.586C40.119,25.591 39.976,25.592 39.685,25.592L39.685,29.592ZM40.7,25.315C40.449,25.463 40.326,25.535 40.234,25.582C40.162,25.62 40.177,25.606 40.23,25.592L41.281,29.451C41.857,29.294 42.351,28.985 42.728,28.763L40.7,25.315ZM39.685,4.268C39.976,4.268 40.119,4.268 40.222,4.274C40.303,4.278 40.284,4.282 40.23,4.268L41.281,0.408C40.706,0.251 40.122,0.268 39.685,0.268L39.685,4.268ZM42.728,1.096C42.351,0.875 41.857,0.565 41.281,0.408L40.23,4.268C40.177,4.253 40.162,4.239 40.234,4.277C40.326,4.325 40.449,4.396 40.7,4.544L42.728,1.096ZM6.042,0.268C5.156,0.268 4.29,0.263 3.581,0.359C2.815,0.462 1.94,0.713 1.214,1.439L4.042,4.268C3.901,4.408 3.791,4.366 4.114,4.323C4.494,4.272 5.043,4.268 6.042,4.268L6.042,0.268ZM4.042,6.268C4.042,5.268 4.046,4.72 4.097,4.34C4.141,4.017 4.183,4.127 4.042,4.268L1.214,1.439C0.487,2.166 0.236,3.04 0.133,3.807C0.038,4.515 0.042,5.381 0.042,6.268L4.042,6.268Z" fill="#39BAAA"/>
</svg>
