<svg width="64" height="30" viewBox="0 0 64 30" fill="none" xmlns="http://www.w3.org/2000/svg" xmlns:xlink="http://www.w3.org/1999/xlink">
<path d="M56.433,11.482L55.419,13.206L56.433,11.482ZM2.627,27.006L1.213,28.42L2.627,27.006ZM40.755,27.521L41.28,29.451L40.755,27.521ZM41.713,2.82L42.727,1.096L41.713,2.82ZM40.755,2.338L41.28,0.408L40.755,2.338ZM6.041,4.268L39.684,4.268L39.684,0.268L6.041,0.268L6.041,4.268ZM39.684,25.592L6.041,25.592L6.041,29.592L39.684,29.592L39.684,25.592ZM4.041,23.592L4.041,6.268L0.041,6.268L0.041,23.592L4.041,23.592ZM40.699,4.544L55.419,13.206L57.448,9.758L42.727,1.096L40.699,4.544ZM55.419,16.653L40.699,25.315L42.727,28.763L57.448,20.101L55.419,16.653ZM55.419,13.206C56.782,14.008 57.604,14.498 58.113,14.909C58.606,15.307 58.348,15.272 58.348,14.93L62.348,14.93C62.348,13.444 61.439,12.453 60.626,11.797C59.831,11.154 58.695,10.492 57.448,9.758L55.419,13.206ZM57.448,20.101C58.695,19.367 59.831,18.705 60.626,18.062C61.439,17.406 62.348,16.415 62.348,14.93L58.348,14.93C58.348,14.587 58.606,14.553 58.113,14.95C57.604,15.362 56.782,15.851 55.419,16.653L57.448,20.101ZM6.041,25.592C5.042,25.592 4.493,25.587 4.113,25.536C3.79,25.493 3.9,25.451 4.041,25.592L1.213,28.42C1.939,29.147 2.814,29.398 3.58,29.501C4.289,29.596 5.155,29.592 6.041,29.592L6.041,25.592ZM0.041,23.592C0.041,24.478 0.037,25.344 0.132,26.053C0.235,26.819 0.486,27.694 1.213,28.42L4.041,25.592C4.182,25.732 4.14,25.843 4.096,25.52C4.045,25.139 4.041,24.591 4.041,23.592L0.041,23.592ZM39.684,29.592C40.121,29.592 40.705,29.608 41.28,29.451L40.229,25.592C40.283,25.577 40.302,25.581 40.221,25.586C40.118,25.591 39.975,25.592 39.684,25.592L39.684,29.592ZM40.699,25.315C40.448,25.463 40.325,25.535 40.233,25.582C40.161,25.62 40.176,25.606 40.229,25.592L41.28,29.451C41.856,29.294 42.35,28.985 42.727,28.763L40.699,25.315ZM39.684,4.268C39.975,4.268 40.118,4.268 40.221,4.274C40.302,4.278 40.283,4.282 40.229,4.268L41.28,0.408C40.705,0.251 40.121,0.268 39.684,0.268L39.684,4.268ZM42.727,1.096C42.35,0.875 41.856,0.565 41.28,0.408L40.229,4.268C40.176,4.253 40.161,4.239 40.233,4.277C40.325,4.325 40.448,4.396 40.699,4.544L42.727,1.096ZM6.041,0.268C5.155,0.268 4.289,0.263 3.58,0.359C2.814,0.462 1.939,0.713 1.213,1.439L4.041,4.268C3.9,4.408 3.79,4.366 4.113,4.323C4.493,4.272 5.042,4.268 6.041,4.268L6.041,0.268ZM4.041,6.268C4.041,5.268 4.045,4.72 4.096,4.34C4.14,4.017 4.182,4.127 4.041,4.268L1.213,1.439C0.486,2.166 0.235,3.04 0.132,3.807C0.037,4.515 0.041,5.381 0.041,6.268L4.041,6.268Z" fill="#39BAAA"/>
</svg>
