<svg width="64" height="30" viewBox="0 0 64 30" fill="none" xmlns="http://www.w3.org/2000/svg" xmlns:xlink="http://www.w3.org/1999/xlink">
<path d="M56.526,10.242L55.512,11.966L56.526,10.242ZM2.72,25.766L1.305,27.18L2.72,25.766ZM40.847,26.281L41.373,28.211L40.847,26.281ZM41.806,1.58L42.82,-0.144L41.806,1.58ZM40.847,1.098L41.373,-0.832L40.847,1.098ZM6.134,3.027L39.777,3.027L39.777,-0.973L6.134,-0.973L6.134,3.027ZM39.777,24.352L6.134,24.352L6.134,28.352L39.777,28.352L39.777,24.352ZM4.134,22.352L4.134,5.027L0.134,5.027L0.134,22.352L4.134,22.352ZM40.791,3.304L55.512,11.966L57.54,8.518L42.82,-0.144L40.791,3.304ZM55.512,15.413L40.791,24.075L42.82,27.523L57.54,18.861L55.512,15.413ZM55.512,11.966C56.875,12.768 57.697,13.257 58.206,13.669C58.699,14.067 58.441,14.032 58.441,13.689L62.441,13.689C62.441,12.204 61.531,11.213 60.719,10.557C59.923,9.914 58.787,9.252 57.54,8.518L55.512,11.966ZM57.54,18.861C58.787,18.127 59.923,17.465 60.719,16.822C61.531,16.166 62.441,15.175 62.441,13.689L58.441,13.689C58.441,13.347 58.699,13.312 58.206,13.71C57.697,14.121 56.875,14.611 55.512,15.413L57.54,18.861ZM6.134,24.352C5.134,24.352 4.586,24.347 4.206,24.296C3.883,24.253 3.993,24.211 4.134,24.352L1.305,27.18C2.032,27.906 2.906,28.157 3.673,28.26C4.382,28.356 5.248,28.352 6.134,28.352L6.134,24.352ZM0.134,22.352C0.134,23.238 0.13,24.104 0.225,24.813C0.328,25.579 0.579,26.454 1.305,27.18L4.134,24.352C4.274,24.492 4.233,24.602 4.189,24.28C4.138,23.899 4.134,23.351 4.134,22.352L0.134,22.352ZM39.777,28.352C40.214,28.352 40.798,28.368 41.373,28.211L40.322,24.352C40.375,24.337 40.395,24.341 40.314,24.345C40.21,24.351 40.068,24.352 39.777,24.352L39.777,28.352ZM40.791,24.075C40.541,24.223 40.418,24.295 40.326,24.342C40.254,24.38 40.268,24.366 40.322,24.352L41.373,28.211C41.949,28.054 42.443,27.744 42.82,27.523L40.791,24.075ZM39.777,3.027C40.068,3.027 40.21,3.028 40.314,3.033C40.395,3.038 40.375,3.042 40.322,3.027L41.373,-0.832C40.798,-0.989 40.214,-0.973 39.777,-0.973L39.777,3.027ZM42.82,-0.144C42.443,-0.366 41.949,-0.675 41.373,-0.832L40.322,3.027C40.268,3.013 40.254,2.999 40.326,3.037C40.418,3.084 40.541,3.156 40.791,3.304L42.82,-0.144ZM6.134,-0.973C5.248,-0.973 4.382,-0.977 3.673,-0.882C2.906,-0.779 2.032,-0.528 1.305,0.199L4.134,3.027C3.993,3.168 3.883,3.126 4.206,3.083C4.586,3.032 5.134,3.027 6.134,3.027L6.134,-0.973ZM4.134,5.027C4.134,4.028 4.138,3.48 4.189,3.099C4.233,2.776 4.274,2.887 4.134,3.027L1.305,0.199C0.579,0.925 0.328,1.8 0.225,2.566C0.13,3.275 0.134,4.141 0.134,5.027L4.134,5.027Z" fill="#39BAAA"/>
</svg>
