<svg width="66" height="30" viewBox="0 0 66 30" fill="none" xmlns="http://www.w3.org/2000/svg" xmlns:xlink="http://www.w3.org/1999/xlink">
<path d="M58.603,11.178L57.62,12.92L58.603,11.178ZM58.603,18.146L57.62,16.404L58.603,18.146ZM62.706,14.662L60.706,14.662L62.706,14.662ZM43.253,26.808L42.27,25.066L43.253,26.808ZM42.321,27.259L42.829,29.193L42.829,29.193L42.321,27.259ZM43.253,2.516L44.236,0.775L43.253,2.516ZM42.321,2.066L42.829,0.131L42.321,2.066ZM5.949,4L41.287,4L41.287,0L5.949,0L5.949,4ZM41.287,25.324L5.949,25.324L5.949,29.324L41.287,29.324L41.287,25.324ZM3.949,23.324L3.949,6L-0.051,6L-0.051,23.324L3.949,23.324ZM42.27,4.258L57.62,12.92L59.586,9.437L44.236,0.775L42.27,4.258ZM57.62,16.404L42.27,25.066L44.236,28.55L59.586,19.887L57.62,16.404ZM57.62,12.92C59.047,13.725 59.914,14.221 60.453,14.64C60.981,15.051 60.706,15.019 60.706,14.662L64.706,14.662C64.706,13.137 63.748,12.136 62.908,11.483C62.079,10.838 60.895,10.175 59.586,9.437L57.62,12.92ZM59.586,19.887C60.895,19.149 62.079,18.486 62.908,17.842C63.748,17.188 64.706,16.187 64.706,14.662L60.706,14.662C60.706,14.305 60.981,14.274 60.453,14.684C59.914,15.103 59.047,15.599 57.62,16.404L59.586,19.887ZM5.949,25.324C4.95,25.324 4.402,25.32 4.021,25.269C3.698,25.225 3.809,25.183 3.949,25.324L1.121,28.153C1.847,28.879 2.722,29.13 3.488,29.233C4.197,29.328 5.063,29.324 5.949,29.324L5.949,25.324ZM-0.051,23.324C-0.051,24.21 -0.055,25.076 0.04,25.785C0.143,26.552 0.394,27.426 1.121,28.153L3.949,25.324C4.09,25.465 4.048,25.575 4.005,25.252C3.953,24.872 3.949,24.323 3.949,23.324L-0.051,23.324ZM41.287,29.324C41.709,29.324 42.272,29.339 42.829,29.193L41.812,25.324C41.864,25.311 41.883,25.315 41.805,25.319C41.705,25.324 41.567,25.324 41.287,25.324L41.287,29.324ZM42.27,25.066C42.026,25.204 41.906,25.271 41.816,25.315C41.746,25.35 41.761,25.338 41.812,25.324L42.829,29.193C43.386,29.047 43.868,28.757 44.236,28.55L42.27,25.066ZM41.287,4C41.567,4 41.705,4.001 41.805,4.006C41.883,4.01 41.864,4.014 41.812,4L42.829,0.131C42.272,-0.015 41.709,0 41.287,0L41.287,4ZM44.236,0.775C43.868,0.567 43.386,0.278 42.829,0.131L41.812,4C41.761,3.986 41.746,3.974 41.816,4.009C41.906,4.053 42.026,4.12 42.27,4.258L44.236,0.775ZM5.949,0C5.063,0 4.197,-0.004 3.488,0.091C2.722,0.194 1.847,0.445 1.121,1.172L3.949,4C3.809,4.141 3.698,4.099 4.021,4.055C4.402,4.004 4.95,4 5.949,4L5.949,0ZM3.949,6C3.949,5.001 3.953,4.452 4.005,4.072C4.048,3.749 4.09,3.859 3.949,4L1.121,1.172C0.394,1.898 0.143,2.773 0.04,3.539C-0.055,4.248 -0.051,5.114 -0.051,6L3.949,6Z" fill="#39BAAA"/>
</svg>
