<svg width="30" height="30" viewBox="0 0 30 30" fill="none" xmlns="http://www.w3.org/2000/svg" xmlns:xlink="http://www.w3.org/1999/xlink">
<path d="M21.119,18.675L19.831,18.675L19.375,18.235C20.972,16.377 21.934,13.965 21.934,11.342C21.934,5.492 17.192,0.75 11.342,0.75C5.492,0.75 0.75,5.492 0.75,11.342C0.75,17.192 5.492,21.934 11.342,21.934C13.965,21.934 16.377,20.972 18.235,19.375L18.675,19.831L18.675,21.119L26.822,29.25L29.25,26.822L21.119,18.675L21.119,18.675ZM11.341,18.674C7.283,18.674 4.008,15.399 4.008,11.341C4.008,7.284 7.283,4.009 11.341,4.009C15.398,4.009 18.674,7.284 18.674,11.341C18.674,15.399 15.398,18.674 11.341,18.674L11.341,18.674Z" clip-rule="evenodd" fill-rule="evenodd" fill="#898989"/>
</svg>
