<svg width="20" height="10" viewBox="0 0 20 10" fill="none" xmlns="http://www.w3.org/2000/svg" xmlns:xlink="http://www.w3.org/1999/xlink">
<path d="M3.258,-0.25C2.4,-0.945 1.14,-0.812 0.445,0.046C-0.25,0.905 -0.117,2.164 0.742,2.859L3.258,-0.25ZM10,7.779L8.742,9.334C9.476,9.928 10.524,9.928 11.258,9.334L10,7.779ZM19.258,2.859C20.117,2.164 20.25,0.905 19.555,0.046C18.86,-0.812 17.6,-0.945 16.742,-0.25L19.258,2.859ZM0.742,2.859L8.742,9.334L11.258,6.225L3.258,-0.25L0.742,2.859ZM11.258,9.334L19.258,2.859L16.742,-0.25L8.742,6.225L11.258,9.334Z" fill="#151D48"/>
</svg>
