<svg width="20" height="12" viewBox="0 0 20 12" fill="none" xmlns="http://www.w3.org/2000/svg" xmlns:xlink="http://www.w3.org/1999/xlink">
<path d="M3.414,0.586C2.633,-0.195 1.367,-0.195 0.586,0.586C-0.195,1.367 -0.195,2.633 0.586,3.414L3.414,0.586ZM10,10L8.586,11.414C9.367,12.195 10.633,12.195 11.414,11.414L10,10ZM19.414,3.414C20.195,2.633 20.195,1.367 19.414,0.586C18.633,-0.195 17.367,-0.195 16.586,0.586L19.414,3.414ZM0.586,3.414L8.586,11.414L11.414,8.586L3.414,0.586L0.586,3.414ZM11.414,11.414L19.414,3.414L16.586,0.586L8.586,8.586L11.414,11.414Z" fill="#151D48"/>
</svg>
