<svg width="498" height="2044" viewBox="0 0 498 2044" fill="none" xmlns="http://www.w3.org/2000/svg" xmlns:xlink="http://www.w3.org/1999/xlink">
<mask id="mask_0_26_194" style="mask-type:alpha" maskUnits="userSpaceOnUse" x="30.219482" y="624.404297" width="25.170378" height="124.821785">
<rect  x="30.219" y="624.404" width="50.341" height="249.644" transform="rotate(0 30.219 624.404)" fill="#C3C3C3"/>
</mask>
<rect  x="30.219" y="0" width="467.78" height="1940.474" rx="40" transform="rotate(0 30.219 0)" fill="#FFFFFF"/>
<rect  x="497.999" y="0" width="2.329" height="2042.621" transform="rotate(-360 497.999 0)" fill="#EFECEC"/>
<line x1="30.202" y1="256.04" x2="498" y2="256.04" stroke="#EFECEC" stroke-width="0.876" stroke-miterlimit="3.999327"/>
<g filter="url(#filter26_193)">
<path d="M30.219,653.908C30.219,648.348 25.712,643.84 20.151,643.84L20.151,643.84C14.591,643.84 10.083,648.348 10.083,653.908L10.083,706.262C10.083,721.128 0.015,735.271 0.015,750.138L0.015,750.138L0.015,750.138C0.015,765.004 10.083,779.148 10.083,794.014L10.083,855.474C10.083,861.036 14.591,865.542 20.151,865.542L20.151,865.542C25.712,865.542 30.219,861.036 30.219,855.474L30.219,821.507C30.219,797.187 59.251,775.616 60.396,751.322C60.414,750.93 60.424,750.535 60.424,750.138C60.424,748.187 60.198,746.284 59.769,744.449C54.802,723.217 30.219,705.128 30.219,683.323L30.219,653.908Z" clip-rule="evenodd" fill-rule="evenodd" transform="rotate(0 30.219 754.692)" fill="#39BAAA"/>
</g>
<defs>
<filter id="filter26_193" x="-53.880272" y="540.304543" width="193.369886" height="293.021294" filterUnits="userSpaceOnUse" color-interpolation-filters="sRGB">
<feFlood flood-opacity="0" result="BackgroundImageFix"/>
<feColorMatrix in="SourceAlpha" type="matrix" values="0 0 0 0 0 0 0 0 0 0 0 0 0 0 0 0 0 0 127 0" result="hardAlpha"/>
<feMorphology radius="0" operator="dilate" in="SourceAlpha" result="0dropshadow"/>
<feOffset dx="4.380196" dy="0"/>
<feGaussianBlur stdDeviation="6.833105"/>
<feComposite in2="hardAlpha" operator="out"/>
<feColorMatrix type="matrix" values="0 0 0 0 0.92549 0 0 0 0 0.094118 0 0 0 0 0.031373 0 0 0 0.24 0"/>
<feBlend mode="normal" in2="BackgroundImageFix" result="0dropshadow"/>
<feColorMatrix in="SourceAlpha" type="matrix" values="0 0 0 0 0 0 0 0 0 0 0 0 0 0 0 0 0 0 127 0" result="hardAlpha"/>
<feMorphology radius="0" operator="dilate" in="SourceAlpha" result="1dropshadow"/>
<feOffset dx="21.900978" dy="0"/>
<feGaussianBlur stdDeviation="42.049877"/>
<feComposite in2="hardAlpha" operator="out"/>
<feColorMatrix type="matrix" values="0 0 0 0 0.92549 0 0 0 0 0.094118 0 0 0 0 0.031373 0 0 0 0.12 0"/>
<feBlend mode="normal" in2="0dropshadow" result="1dropshadow"/>
<feBlend mode="normal" in="SourceGraphic" in2="1dropshadow" result="shape"/>
</filter>
</defs>
</svg>
