<svg width="48" height="50" viewBox="0 0 48 50" fill="none" xmlns="http://www.w3.org/2000/svg" xmlns:xlink="http://www.w3.org/1999/xlink">
<path d="M32.538,30.683C32.099,31.137 32.111,31.86 32.564,32.299C33.018,32.738 33.741,32.727 34.181,32.273L32.538,30.683ZM39.999,24.621L40.821,25.416C41.25,24.973 41.25,24.269 40.821,23.826L39.999,24.621ZM34.181,16.969C33.741,16.515 33.018,16.504 32.564,16.943C32.111,17.382 32.099,18.106 32.538,18.559L34.181,16.969ZM19.428,23.478C18.797,23.478 18.285,23.99 18.285,24.621C18.285,25.252 18.797,25.764 19.428,25.764L19.428,23.478ZM33.143,9.764C33.774,9.764 34.285,9.252 34.285,8.621C34.285,7.99 33.773,7.478 33.142,7.478L33.143,9.764ZM14.857,8.626L14.856,7.483L14.856,7.483L14.857,8.626ZM10.285,36.043L9.142,36.043L10.285,36.043ZM33.359,41.757C33.991,41.757 34.502,41.245 34.502,40.614C34.502,39.983 33.991,39.471 33.359,39.471L33.359,41.757ZM34.181,32.273L40.821,25.416L39.178,23.826L32.538,30.683L34.181,32.273ZM40.821,23.826L34.181,16.969L32.538,18.559L39.178,25.416L40.821,23.826ZM39.999,23.478L19.428,23.478L19.428,25.764L39.999,25.764L39.999,23.478ZM33.142,7.478L14.856,7.483L14.857,9.769L33.143,9.764L33.142,7.478ZM14.856,7.483C11.703,7.486 9.142,10.042 9.142,13.197L11.428,13.197C11.428,11.306 12.964,9.77 14.858,9.769L14.856,7.483ZM9.142,13.197L9.142,36.043L11.428,36.043L11.428,13.197L9.142,13.197ZM9.142,36.043C9.142,37.558 9.744,39.012 10.816,40.083L12.432,38.467C11.789,37.824 11.428,36.952 11.428,36.043L9.142,36.043ZM10.816,40.083C11.888,41.155 13.341,41.757 14.857,41.757L14.857,39.471C13.947,39.471 13.075,39.11 12.432,38.467L10.816,40.083ZM14.857,41.757L33.359,41.757L33.359,39.471L14.857,39.471L14.857,41.757Z" fill="#000000"/>
<path d="M33.359,31.478L32.217,31.478C32.217,31.944 32.499,32.363 32.931,32.537C33.362,32.712 33.857,32.608 34.181,32.273L33.359,31.478ZM39.999,24.621L40.821,25.416C41.25,24.973 41.25,24.269 40.821,23.826L39.999,24.621ZM33.359,17.764L34.181,16.969C33.857,16.634 33.362,16.53 32.931,16.705C32.499,16.879 32.217,17.298 32.217,17.764L33.359,17.764ZM39.999,25.764C40.631,25.764 41.142,25.252 41.142,24.621C41.142,23.99 40.631,23.478 39.999,23.478L39.999,25.764ZM19.428,23.478C18.797,23.478 18.285,23.99 18.285,24.621C18.285,25.252 18.797,25.764 19.428,25.764L19.428,23.478ZM33.143,9.764C33.774,9.764 34.285,9.252 34.285,8.621C34.285,7.99 33.773,7.478 33.142,7.478L33.143,9.764ZM14.857,8.626L14.856,7.483L14.856,7.483L14.857,8.626ZM10.285,36.043L9.142,36.043L10.285,36.043ZM33.359,41.757C33.991,41.757 34.502,41.245 34.502,40.614C34.502,39.983 33.991,39.471 33.359,39.471L33.359,41.757ZM34.181,32.273L40.821,25.416L39.178,23.826L32.538,30.683L34.181,32.273ZM40.821,23.826L34.181,16.969L32.538,18.559L39.178,25.416L40.821,23.826ZM32.217,17.764L32.217,31.478L34.502,31.478L34.502,17.764L32.217,17.764ZM39.999,23.478L19.428,23.478L19.428,25.764L39.999,25.764L39.999,23.478ZM19.428,25.764L39.999,25.764L39.999,23.478L19.428,23.478L19.428,25.764ZM33.142,7.478L14.856,7.483L14.857,9.769L33.143,9.764L33.142,7.478ZM14.856,7.483C11.703,7.486 9.142,10.042 9.142,13.197L11.428,13.197C11.428,11.306 12.964,9.77 14.858,9.769L14.856,7.483ZM9.142,13.197L9.142,36.043L11.428,36.043L11.428,13.197L9.142,13.197ZM9.142,36.043C9.142,37.558 9.744,39.012 10.816,40.083L12.432,38.467C11.789,37.824 11.428,36.952 11.428,36.043L9.142,36.043ZM10.816,40.083C11.888,41.155 13.341,41.757 14.857,41.757L14.857,39.471C13.947,39.471 13.075,39.11 12.432,38.467L10.816,40.083ZM14.857,41.757L33.359,41.757L33.359,39.471L14.857,39.471L14.857,41.757Z" fill="#000000"/>
</svg>
