<svg width="48" height="50" viewBox="0 0 48 50" fill="none" xmlns="http://www.w3.org/2000/svg" xmlns:xlink="http://www.w3.org/1999/xlink">
<path d="M32.539,30.683C32.1,31.137 32.111,31.86 32.565,32.299C33.018,32.738 33.742,32.727 34.181,32.273L32.539,30.683ZM40,24.621L40.821,25.416C41.25,24.973 41.25,24.269 40.821,23.826L40,24.621ZM34.181,16.969C33.742,16.515 33.018,16.504 32.565,16.943C32.111,17.382 32.1,18.106 32.539,18.559L34.181,16.969ZM19.429,23.478C18.797,23.478 18.286,23.99 18.286,24.621C18.286,25.252 18.797,25.764 19.429,25.764L19.429,23.478ZM33.143,9.764C33.774,9.764 34.286,9.252 34.286,8.621C34.285,7.99 33.774,7.478 33.142,7.478L33.143,9.764ZM14.857,8.626L14.857,7.483L14.856,7.483L14.857,8.626ZM10.286,36.043L9.143,36.043L10.286,36.043ZM33.36,41.757C33.991,41.757 34.503,41.245 34.503,40.614C34.503,39.983 33.991,39.471 33.36,39.471L33.36,41.757ZM34.181,32.273L40.821,25.416L39.179,23.826L32.539,30.683L34.181,32.273ZM40.821,23.826L34.181,16.969L32.539,18.559L39.179,25.416L40.821,23.826ZM40,23.478L19.429,23.478L19.429,25.764L40,25.764L40,23.478ZM33.142,7.478L14.857,7.483L14.857,9.769L33.143,9.764L33.142,7.478ZM14.856,7.483C11.703,7.486 9.143,10.042 9.143,13.197L11.429,13.197C11.429,11.306 12.964,9.77 14.858,9.769L14.856,7.483ZM9.143,13.197L9.143,36.043L11.429,36.043L11.429,13.197L9.143,13.197ZM9.143,36.043C9.143,37.558 9.745,39.012 10.816,40.083L12.433,38.467C11.79,37.824 11.429,36.952 11.429,36.043L9.143,36.043ZM10.816,40.083C11.888,41.155 13.342,41.757 14.857,41.757L14.857,39.471C13.948,39.471 13.076,39.11 12.433,38.467L10.816,40.083ZM14.857,41.757L33.36,41.757L33.36,39.471L14.857,39.471L14.857,41.757Z" fill="#000000"/>
<path d="M33.36,31.478L32.217,31.478C32.217,31.944 32.499,32.363 32.931,32.537C33.363,32.712 33.857,32.608 34.181,32.273L33.36,31.478ZM40,24.621L40.821,25.416C41.25,24.973 41.25,24.269 40.821,23.826L40,24.621ZM33.36,17.764L34.181,16.969C33.857,16.634 33.363,16.53 32.931,16.705C32.499,16.879 32.217,17.298 32.217,17.764L33.36,17.764ZM40,25.764C40.631,25.764 41.143,25.252 41.143,24.621C41.143,23.99 40.631,23.478 40,23.478L40,25.764ZM19.429,23.478C18.797,23.478 18.286,23.99 18.286,24.621C18.286,25.252 18.797,25.764 19.429,25.764L19.429,23.478ZM33.143,9.764C33.774,9.764 34.286,9.252 34.286,8.621C34.285,7.99 33.774,7.478 33.142,7.478L33.143,9.764ZM14.857,8.626L14.857,7.483L14.856,7.483L14.857,8.626ZM10.286,36.043L9.143,36.043L10.286,36.043ZM33.36,41.757C33.991,41.757 34.503,41.245 34.503,40.614C34.503,39.983 33.991,39.471 33.36,39.471L33.36,41.757ZM34.181,32.273L40.821,25.416L39.179,23.826L32.539,30.683L34.181,32.273ZM40.821,23.826L34.181,16.969L32.539,18.559L39.179,25.416L40.821,23.826ZM32.217,17.764L32.217,31.478L34.503,31.478L34.503,17.764L32.217,17.764ZM40,23.478L19.429,23.478L19.429,25.764L40,25.764L40,23.478ZM19.429,25.764L40,25.764L40,23.478L19.429,23.478L19.429,25.764ZM33.142,7.478L14.857,7.483L14.857,9.769L33.143,9.764L33.142,7.478ZM14.856,7.483C11.703,7.486 9.143,10.042 9.143,13.197L11.429,13.197C11.429,11.306 12.964,9.77 14.858,9.769L14.856,7.483ZM9.143,13.197L9.143,36.043L11.429,36.043L11.429,13.197L9.143,13.197ZM9.143,36.043C9.143,37.558 9.745,39.012 10.816,40.083L12.433,38.467C11.79,37.824 11.429,36.952 11.429,36.043L9.143,36.043ZM10.816,40.083C11.888,41.155 13.342,41.757 14.857,41.757L14.857,39.471C13.948,39.471 13.076,39.11 12.433,38.467L10.816,40.083ZM14.857,41.757L33.36,41.757L33.36,39.471L14.857,39.471L14.857,41.757Z" fill="#000000"/>
</svg>
