<svg width="48" height="48" viewBox="0 0 48 48" fill="none" xmlns="http://www.w3.org/2000/svg" xmlns:xlink="http://www.w3.org/1999/xlink">
<path d="M32.539,30.062C32.1,30.516 32.111,31.239 32.565,31.678C33.018,32.117 33.742,32.106 34.181,31.652L32.539,30.062ZM40,24L40.821,24.795C41.25,24.352 41.25,23.648 40.821,23.205L40,24ZM34.181,16.348C33.742,15.894 33.018,15.883 32.565,16.322C32.111,16.761 32.1,17.484 32.539,17.938L34.181,16.348ZM19.429,22.857C18.797,22.857 18.286,23.369 18.286,24C18.286,24.631 18.797,25.143 19.429,25.143L19.429,22.857ZM33.143,9.143C33.774,9.143 34.286,8.631 34.286,8C34.285,7.369 33.774,6.857 33.142,6.857L33.143,9.143ZM14.857,8.005L14.857,6.862L14.856,6.862L14.857,8.005ZM10.286,35.422L9.143,35.422L10.286,35.422ZM33.36,41.136C33.991,41.136 34.503,40.624 34.503,39.993C34.503,39.362 33.991,38.85 33.36,38.85L33.36,41.136ZM34.181,31.652L40.821,24.795L39.179,23.205L32.539,30.062L34.181,31.652ZM40.821,23.205L34.181,16.348L32.539,17.938L39.179,24.795L40.821,23.205ZM40,22.857L19.429,22.857L19.429,25.143L40,25.143L40,22.857ZM33.142,6.857L14.857,6.862L14.857,9.147L33.143,9.143L33.142,6.857ZM14.856,6.862C11.703,6.865 9.143,9.42 9.143,12.576L11.429,12.576C11.429,10.685 12.964,9.149 14.858,9.147L14.856,6.862ZM9.143,12.576L9.143,35.422L11.429,35.422L11.429,12.576L9.143,12.576ZM9.143,35.422C9.143,36.937 9.745,38.391 10.816,39.462L12.433,37.846C11.79,37.203 11.429,36.331 11.429,35.422L9.143,35.422ZM10.816,39.462C11.888,40.534 13.342,41.136 14.857,41.136L14.857,38.85C13.948,38.85 13.076,38.489 12.433,37.846L10.816,39.462ZM14.857,41.136L33.36,41.136L33.36,38.85L14.857,38.85L14.857,41.136Z" fill="#000000"/>
<path d="M33.36,30.857L32.217,30.857C32.217,31.323 32.499,31.742 32.931,31.916C33.363,32.091 33.857,31.987 34.181,31.652L33.36,30.857ZM40,24L40.821,24.795C41.25,24.352 41.25,23.648 40.821,23.205L40,24ZM33.36,17.143L34.181,16.348C33.857,16.013 33.363,15.909 32.931,16.084C32.499,16.258 32.217,16.677 32.217,17.143L33.36,17.143ZM40,25.143C40.631,25.143 41.143,24.631 41.143,24C41.143,23.369 40.631,22.857 40,22.857L40,25.143ZM19.429,22.857C18.797,22.857 18.286,23.369 18.286,24C18.286,24.631 18.797,25.143 19.429,25.143L19.429,22.857ZM33.143,9.143C33.774,9.143 34.286,8.631 34.286,8C34.285,7.369 33.774,6.857 33.142,6.857L33.143,9.143ZM14.857,8.005L14.857,6.862L14.856,6.862L14.857,8.005ZM10.286,35.422L9.143,35.422L10.286,35.422ZM33.36,41.136C33.991,41.136 34.503,40.624 34.503,39.993C34.503,39.362 33.991,38.85 33.36,38.85L33.36,41.136ZM34.181,31.652L40.821,24.795L39.179,23.205L32.539,30.062L34.181,31.652ZM40.821,23.205L34.181,16.348L32.539,17.938L39.179,24.795L40.821,23.205ZM32.217,17.143L32.217,30.857L34.503,30.857L34.503,17.143L32.217,17.143ZM40,22.857L19.429,22.857L19.429,25.143L40,25.143L40,22.857ZM19.429,25.143L40,25.143L40,22.857L19.429,22.857L19.429,25.143ZM33.142,6.857L14.857,6.862L14.857,9.147L33.143,9.143L33.142,6.857ZM14.856,6.862C11.703,6.865 9.143,9.42 9.143,12.576L11.429,12.576C11.429,10.685 12.964,9.149 14.858,9.147L14.856,6.862ZM9.143,12.576L9.143,35.422L11.429,35.422L11.429,12.576L9.143,12.576ZM9.143,35.422C9.143,36.937 9.745,38.391 10.816,39.462L12.433,37.846C11.79,37.203 11.429,36.331 11.429,35.422L9.143,35.422ZM10.816,39.462C11.888,40.534 13.342,41.136 14.857,41.136L14.857,38.85C13.948,38.85 13.076,38.489 12.433,37.846L10.816,39.462ZM14.857,41.136L33.36,41.136L33.36,38.85L14.857,38.85L14.857,41.136Z" fill="#000000"/>
</svg>
