<svg width="130" height="130" viewBox="0 0 130 130" fill="none" xmlns="http://www.w3.org/2000/svg" xmlns:xlink="http://www.w3.org/1999/xlink">
<path d="M130,97.499C130,101.33 128.478,105.004 125.769,107.713C123.06,110.422 119.386,111.943 115.556,111.943L14.444,111.943C10.614,111.943 6.94,110.422 4.231,107.713C1.522,105.004 0,101.33 0,97.499L0,32.499C0,28.668 1.522,24.994 4.231,22.285C6.94,19.577 10.614,18.055 14.444,18.055L115.556,18.055C119.386,18.055 123.06,19.577 125.769,22.285C128.478,24.994 130,28.668 130,32.499L130,97.499Z" fill="#DE2910"/>
<path d="M40.213,32.417L42.871,33.702L44.998,31.658L44.597,34.583L47.197,35.977L44.294,36.497L43.774,39.4L42.38,36.8L39.455,37.201L41.499,35.074L40.213,32.417ZM57.059,43.037L55.773,45.691L57.817,47.822L54.896,47.417L53.502,50.021L52.982,47.114L50.075,46.594L52.679,45.2L52.274,42.278L54.405,44.322L57.059,43.037ZM53.603,56.683L54.571,59.471L57.521,59.532L55.17,61.313L56.026,64.14L53.603,62.454L51.18,64.14L52.032,61.313L49.681,59.532L52.632,59.471L53.603,56.683ZM40.213,68.528L42.871,69.813L44.998,67.769L44.597,70.694L47.197,72.088L44.294,72.608L43.774,75.512L42.38,72.912L39.455,73.312L41.499,71.185L40.213,68.528ZM25.277,39.545L28.632,49.19L38.837,49.4L30.701,55.567L33.659,65.339L25.277,59.507L16.896,65.339L19.854,55.567L11.718,49.4L21.923,49.19L25.277,39.545Z" fill="#FFDE02"/>
</svg>
