<svg width="72" height="72" viewBox="0 0 72 72" fill="none" xmlns="http://www.w3.org/2000/svg" xmlns:xlink="http://www.w3.org/1999/xlink">
<path d="M72,54C72,56.122 71.157,58.157 69.657,59.657C68.157,61.157 66.122,62 64,62L8,62C5.878,62 3.843,61.157 2.343,59.657C0.843,58.157 0,56.122 0,54L0,18C0,15.878 0.843,13.843 2.343,12.343C3.843,10.843 5.878,10 8,10L64,10C66.122,10 68.157,10.843 69.657,12.343C71.157,13.843 72,15.878 72,18L72,54Z" fill="#DE2910"/>
<path d="M22.272,17.953L23.744,18.665L24.922,17.533L24.7,19.153L26.14,19.925L24.532,20.213L24.244,21.821L23.472,20.381L21.852,20.603L22.984,19.425L22.272,17.953ZM31.602,23.835L30.89,25.305L32.022,26.485L30.404,26.261L29.632,27.703L29.344,26.093L27.734,25.805L29.176,25.033L28.952,23.415L30.132,24.547L31.602,23.835ZM29.688,31.393L30.224,32.937L31.858,32.971L30.556,33.957L31.03,35.523L29.688,34.589L28.346,35.523L28.818,33.957L27.516,32.971L29.15,32.937L29.688,31.393ZM22.272,37.953L23.744,38.665L24.922,37.533L24.7,39.153L26.14,39.925L24.532,40.213L24.244,41.821L23.472,40.381L21.852,40.603L22.984,39.425L22.272,37.953ZM14,21.901L15.858,27.243L21.51,27.359L17.004,30.775L18.642,36.187L14,32.957L9.358,36.187L10.996,30.775L6.49,27.359L12.142,27.243L14,21.901Z" fill="#FFDE02"/>
</svg>
