<svg width="72" height="72" viewBox="0 0 72 72" fill="none" xmlns="http://www.w3.org/2000/svg" xmlns:xlink="http://www.w3.org/1999/xlink">
<path d="M72,54C72,56.122 71.157,58.157 69.657,59.657C68.157,61.157 66.122,62 64,62L8,62C5.878,62 3.843,61.157 2.343,59.657C0.843,58.157 0,56.122 0,54L0,18C0,15.878 0.843,13.843 2.343,12.343C3.843,10.843 5.878,10 8,10L64,10C66.122,10 68.157,10.843 69.657,12.343C71.157,13.843 72,15.878 72,18L72,54Z" fill="#DE2910"/>
<path d="M22.272,17.955L23.744,18.667L24.922,17.535L24.7,19.155L26.14,19.927L24.532,20.215L24.244,21.823L23.472,20.383L21.852,20.605L22.984,19.427L22.272,17.955ZM31.602,23.837L30.89,25.307L32.022,26.487L30.404,26.263L29.632,27.705L29.344,26.095L27.734,25.807L29.176,25.035L28.952,23.417L30.132,24.549L31.602,23.837ZM29.688,31.395L30.224,32.939L31.858,32.973L30.556,33.959L31.03,35.525L29.688,34.591L28.346,35.525L28.818,33.959L27.516,32.973L29.15,32.939L29.688,31.395ZM22.272,37.955L23.744,38.667L24.922,37.535L24.7,39.155L26.14,39.927L24.532,40.215L24.244,41.823L23.472,40.383L21.852,40.605L22.984,39.427L22.272,37.955ZM14,21.903L15.858,27.245L21.51,27.361L17.004,30.777L18.642,36.189L14,32.959L9.358,36.189L10.996,30.777L6.49,27.361L12.142,27.245L14,21.903Z" fill="#FFDE02"/>
</svg>
