<svg width="72" height="72" viewBox="0 0 72 72" fill="none" xmlns="http://www.w3.org/2000/svg" xmlns:xlink="http://www.w3.org/1999/xlink">
<g filter="url(#filter69_703)">
<path d="M8,10C5.878,10 3.843,10.843 2.343,12.343C0.843,13.843 0,15.878 0,18L0,54C0,56.122 0.843,58.157 2.343,59.657C3.843,61.157 5.878,62 8,62L36,62L36,10L8,10Z" fill="#006233"/>
<path d="M64,10L36,10L36,62L64,62C66.122,62 68.157,61.157 69.657,59.657C71.157,58.157 72,56.122 72,54L72,18C72,15.878 71.157,13.843 69.657,12.343C68.157,10.843 66.122,10 64,10Z" fill="#EEEEEE"/>
<path d="M40,47.999C33.37,47.999 28,42.629 28,35.999C28,29.371 33.37,23.999 40,23.999C42.62,23.999 45.04,24.849 47.014,26.275C45.638,24.709 43.943,23.455 42.044,22.596C40.145,21.737 38.084,21.293 36,21.293C32.1,21.293 28.359,22.842 25.601,25.6C22.843,28.358 21.294,32.099 21.294,35.999C21.294,37.93 21.674,39.843 22.413,41.627C23.152,43.412 24.235,45.033 25.601,46.399C26.966,47.765 28.587,48.848 30.372,49.587C32.156,50.327 34.069,50.707 36,50.707C40.39,50.707 44.32,48.773 47.014,45.723C44.975,47.204 42.52,48 40,47.999Z" fill="#D20F34"/>
<path d="M50.604,36.46L45.724,37.584L45.284,42.57L42.708,38.278L37.828,39.4L41.116,35.624L38.542,31.33L43.148,33.29L46.436,29.512L45.996,34.5L50.604,36.46Z" fill="#D20F34"/>
</g>
<defs>
<filter id="filter69_703" x="-20" y="-20" width="76" height="76" filterUnits="userSpaceOnUse" color-interpolation-filters="sRGB">
<feFlood flood-opacity="0" result="BackgroundImageFix"/>
<feBlend mode="normal" in="SourceGraphic" in2="BackgroundImageFix" result="shape"/>
<feGaussianBlur stdDeviation="10" result="0foregroundblur"/>
</filter>
</defs>
</svg>
