<svg width="72" height="72" viewBox="0 0 72 72" fill="none" xmlns="http://www.w3.org/2000/svg" xmlns:xlink="http://www.w3.org/1999/xlink">
<path d="M8,10C5.878,10 3.843,10.843 2.343,12.343C0.843,13.843 0,15.878 0,18L0,54C0,56.122 0.843,58.157 2.343,59.657C3.843,61.157 5.878,62 8,62L36,62L36,10L8,10Z" fill="#006233"/>
<path d="M64,10L36,10L36,62L64,62C66.122,62 68.157,61.157 69.657,59.657C71.157,58.157 72,56.122 72,54L72,18C72,15.878 71.157,13.843 69.657,12.343C68.157,10.843 66.122,10 64,10Z" fill="#EEEEEE"/>
<path d="M40.001,48.001C33.371,48.001 28.001,42.631 28.001,36.001C28.001,29.373 33.371,24.001 40.001,24.001C42.621,24.001 45.041,24.851 47.015,26.277C45.639,24.711 43.944,23.457 42.045,22.598C40.146,21.739 38.085,21.295 36.001,21.295C32.101,21.295 28.36,22.844 25.602,25.602C22.844,28.36 21.295,32.101 21.295,36.001C21.295,37.932 21.675,39.845 22.414,41.629C23.153,43.414 24.236,45.035 25.602,46.401C26.967,47.767 28.588,48.85 30.373,49.589C32.157,50.329 34.07,50.709 36.001,50.709C40.391,50.709 44.321,48.775 47.015,45.725C44.976,47.206 42.521,48.002 40.001,48.001Z" fill="#D20F34"/>
<path d="M50.604,36.46L45.724,37.584L45.284,42.57L42.708,38.278L37.828,39.4L41.116,35.624L38.542,31.33L43.148,33.29L46.436,29.512L45.996,34.5L50.604,36.46Z" fill="#D20F34"/>
</svg>
