<svg width="130" height="130" viewBox="0 0 130 130" fill="none" xmlns="http://www.w3.org/2000/svg" xmlns:xlink="http://www.w3.org/1999/xlink">
<path d="M14.444,18.055C10.614,18.055 6.94,19.577 4.231,22.285C1.522,24.994 0,28.668 0,32.499L0,97.499C0,101.33 1.522,105.004 4.231,107.713C6.94,110.422 10.614,111.943 14.444,111.943L65,111.943L65,18.055L14.444,18.055Z" fill="#006233"/>
<path d="M115.556,18.055L65,18.055L65,111.943L115.556,111.943C119.386,111.943 123.06,110.422 125.769,107.713C128.478,105.004 130,101.33 130,97.499L130,32.499C130,28.668 128.478,24.994 125.769,22.285C123.06,19.577 119.386,18.055 115.556,18.055Z" fill="#EEEEEE"/>
<path d="M72.222,86.666C60.251,86.666 50.555,76.971 50.555,65C50.555,53.033 60.251,43.333 72.222,43.333C76.952,43.333 81.322,44.868 84.886,47.443C82.401,44.616 79.342,42.352 75.913,40.8C72.484,39.249 68.763,38.447 65,38.447C57.958,38.447 51.204,41.245 46.224,46.224C41.245,51.204 38.447,57.958 38.447,65C38.447,68.487 39.133,71.94 40.467,75.162C41.802,78.384 43.757,81.311 46.223,83.777C48.689,86.243 51.616,88.2 54.838,89.534C58.059,90.869 61.512,91.556 65,91.556C72.926,91.556 80.022,88.064 84.886,82.557C81.205,85.23 76.771,86.669 72.222,86.666Z" fill="#D20F34"/>
<path d="M91.369,65.83L82.557,67.86L81.763,76.862L77.112,69.113L68.301,71.138L74.237,64.321L69.59,56.568L77.906,60.107L83.843,53.285L83.049,62.291L91.369,65.83Z" fill="#D20F34"/>
</svg>
