<svg width="130" height="130" viewBox="0 0 130 130" fill="none" xmlns="http://www.w3.org/2000/svg" xmlns:xlink="http://www.w3.org/1999/xlink">
<path d="M130,97.499C130,101.33 128.478,105.004 125.769,107.713C123.06,110.422 119.386,111.943 115.556,111.943L14.444,111.943C10.614,111.943 6.94,110.422 4.231,107.713C1.522,105.004 0,101.33 0,97.499L0,32.499C0,28.668 1.522,24.994 4.231,22.285C6.94,19.577 10.614,18.055 14.444,18.055L115.556,18.055C119.386,18.055 123.06,19.577 125.769,22.285C128.478,24.994 130,28.668 130,32.499L130,97.499Z" fill="#006600"/>
<path d="M115.556,18.055L54.167,18.055L54.167,111.943L115.556,111.943C119.387,111.943 123.061,110.422 125.77,107.713C128.479,105.004 130,101.33 130,97.499L130,32.499C130,28.668 128.479,24.994 125.77,22.285C123.061,19.577 119.387,18.055 115.556,18.055Z" fill="#D52B1E"/>
<path d="M54.166,36.111C46.504,36.111 39.156,39.155 33.739,44.573C28.321,49.99 25.277,57.338 25.277,65C25.277,72.662 28.321,80.01 33.739,85.428C39.156,90.846 46.504,93.889 54.166,93.889C61.828,93.889 69.176,90.846 74.594,85.428C80.012,80.01 83.055,72.662 83.055,65C83.055,57.338 80.012,49.99 74.594,44.573C69.176,39.155 61.828,36.111 54.166,36.111ZM32.092,52.701L37.877,58.486L28.993,62.928C29.28,59.336 30.337,55.848 32.092,52.701ZM28.993,67.069L44.882,75.039L35.11,81.554L35.161,81.629C31.593,77.566 29.43,72.46 28.993,67.069ZM50.555,89.989C47.245,89.517 44.062,88.387 41.195,86.667L50.555,86.667L50.555,89.989ZM50.555,83.056L39.364,83.056L50.555,75.595L50.555,83.056ZM50.555,71.255L48.363,72.717L32.926,65L40.567,61.18L50.555,71.164L50.555,71.255ZM50.555,66.058L37.761,53.264L50.555,55.395L50.555,66.058ZM50.555,51.643L34.551,49.068C38.555,44.142 44.27,40.908 50.555,40.011L50.555,51.643ZM76.241,52.701C77.996,55.849 79.053,59.338 79.339,62.931L70.456,58.489L76.241,52.701ZM57.777,40.011C64.062,40.909 69.776,44.143 73.782,49.068L57.777,51.643L57.777,40.011ZM57.777,55.395L70.572,53.26L57.777,66.058L57.777,55.395ZM57.777,71.164L67.762,61.18L75.407,65L59.973,72.717L57.777,71.255L57.777,71.164ZM57.777,89.989L57.777,86.667L67.137,86.667C64.27,88.387 61.088,89.517 57.777,89.989ZM57.777,83.056L57.777,75.595L68.968,83.056L57.777,83.056ZM73.175,81.629L73.226,81.554L63.454,75.039L79.343,67.069C78.903,72.459 76.741,77.564 73.175,81.629Z" fill="#FFCC4D"/>
<path d="M39.723,46.945L39.723,72.223C39.723,76.054 41.244,79.728 43.953,82.437C46.662,85.146 50.336,86.668 54.167,86.668C57.998,86.668 61.672,85.146 64.381,82.437C67.09,79.728 68.611,76.054 68.611,72.223L68.611,46.945L39.723,46.945Z" fill="#D52B1E"/>
<path d="M43.333,50.555L43.333,72.221C43.333,75.094 44.474,77.85 46.506,79.882C48.538,81.913 51.293,83.055 54.166,83.055C57.04,83.055 59.795,81.913 61.827,79.882C63.858,77.85 65,75.094 65,72.221L65,50.555L43.333,50.555Z" fill="#FFFFFF"/>
<rect  x="46.944" y="61.389" width="14.444" height="7.222" fill="#829ACD"/>
<rect  x="50.556" y="57.777" width="7.222" height="14.444" fill="#829ACD"/>
<path d="M43.333,61.388L46.944,61.388L46.944,68.61L43.333,68.61L43.333,61.388ZM50.555,61.388L57.777,61.388L57.777,68.61L50.555,68.61L50.555,61.388ZM61.389,61.388L65,61.388L65,68.61L61.389,68.61L61.389,61.388ZM50.555,72.221L57.777,72.221L57.777,79.443L50.555,79.443L50.555,72.221ZM50.555,50.555L57.777,50.555L57.777,57.777L50.555,57.777L50.555,50.555Z" fill="#003399"/>
</svg>
