<svg width="48" height="50" viewBox="0 0 48 50" fill="none" xmlns="http://www.w3.org/2000/svg" xmlns:xlink="http://www.w3.org/1999/xlink">
<path d="M23.001,2.5C18.763,2.503 14.613,3.703 11.027,5.962L34.941,5.962C31.365,3.709 27.227,2.51 23.001,2.5L23.001,2.5Z" fill="#B22234"/>
<path d="M11.026,5.962C9.482,6.939 8.062,8.102 6.799,9.423L39.227,9.423C37.945,8.098 36.505,6.935 34.94,5.962L11.026,5.962Z" fill="#FFFFFF"/>
<path d="M6.799,9.423C5.777,10.485 4.863,11.644 4.068,12.885L41.956,12.885C41.162,11.644 40.248,10.485 39.227,9.423L6.799,9.423Z" fill="#B22234"/>
<path d="M4.068,12.885C3.358,13.983 2.745,15.141 2.236,16.346L43.746,16.346C43.251,15.143 42.652,13.985 41.957,12.885L4.068,12.885Z" fill="#FFFFFF"/>
<path d="M2.237,16.346C1.776,17.468 1.407,18.626 1.133,19.808L44.866,19.808C44.587,18.626 44.213,17.468 43.747,16.346L2.237,16.346Z" fill="#B22234"/>
<path d="M1.132,19.808C0.86,20.946 0.678,22.103 0.586,23.269L45.426,23.269C45.329,22.103 45.142,20.945 44.865,19.808L1.132,19.808Z" fill="#FFFFFF"/>
<path d="M0.587,23.27C0.536,23.845 0.507,24.422 0.5,25C0.502,25.578 0.527,26.155 0.573,26.731L45.413,26.731C45.464,26.155 45.493,25.578 45.5,25C45.498,24.423 45.473,23.845 45.427,23.27L0.587,23.27Z" fill="#B22234"/>
<path d="M0.574,26.73C0.671,27.897 0.859,29.055 1.135,30.192L44.868,30.192C45.14,29.054 45.323,27.897 45.414,26.73L0.574,26.73Z" fill="#FFFFFF"/>
<path d="M1.135,30.192C1.414,31.375 1.788,32.532 2.254,33.654L43.764,33.654C44.224,32.532 44.593,31.374 44.868,30.192L1.135,30.192Z" fill="#B22234"/>
<path d="M2.254,33.654C2.749,34.857 3.348,36.015 4.044,37.115L41.932,37.115C42.642,36.017 43.255,34.859 43.764,33.654L2.254,33.654Z" fill="#FFFFFF"/>
<path d="M4.043,37.115C4.837,38.356 5.752,39.515 6.773,40.577L39.201,40.577C40.222,39.515 41.136,38.356 41.931,37.115L4.043,37.115Z" fill="#B22234"/>
<path d="M6.773,40.577C8.055,41.902 9.495,43.065 11.06,44.038L34.974,44.038C36.519,43.061 37.938,41.898 39.202,40.577L6.773,40.577Z" fill="#FFFFFF"/>
<path d="M11.059,44.038C14.635,46.291 18.773,47.49 22.999,47.5C27.237,47.497 31.387,46.297 34.972,44.038L11.059,44.038Z" fill="#B22234"/>
<path d="M23,2.5C17.033,2.5 11.31,4.871 7.09,9.09C2.871,13.31 0.5,19.033 0.5,25C0.503,25.595 0.529,26.189 0.579,26.781L24.781,26.781L24.781,2.589C24.189,2.536 23.595,2.506 23,2.5L23,2.5Z" fill="#3C3B6E"/>
<path d="M14.948,4.017C14.648,4.126 14.351,4.242 14.056,4.364L14.384,4.614L14.162,5.332L14.751,4.893L15.357,5.353L15.13,4.61L15.736,4.158L14.991,4.158L14.948,4.017ZM18.764,3.402L18.531,4.157L17.789,4.157L18.389,4.614L18.167,5.332L18.756,4.893L19.362,5.353L19.134,4.61L19.74,4.157L18.996,4.157L18.764,3.402L18.764,3.402ZM22.769,3.402L22.536,4.157L21.793,4.157L22.394,4.614L22.172,5.332L22.761,4.893L23.367,5.353L23.139,4.61L23.745,4.157L23.001,4.157L22.769,3.402ZM9.159,7.295C9.053,7.373 8.948,7.453 8.844,7.534L9.35,7.919L9.159,7.295ZM12.757,5.968L12.524,6.723L11.781,6.723L12.382,7.18L12.16,7.898L12.749,7.458L13.355,7.919L13.127,7.176L13.733,6.723L12.989,6.723L12.757,5.968ZM16.762,5.968L16.528,6.723L15.786,6.723L16.387,7.18L16.165,7.898L16.753,7.458L17.36,7.919L17.132,7.176L17.738,6.723L16.993,6.723L16.762,5.968L16.762,5.968ZM20.767,5.968L20.533,6.723L19.791,6.723L20.392,7.18L20.169,7.898L20.758,7.458L21.364,7.919L21.137,7.176L21.743,6.723L20.998,6.723L20.767,5.968L20.767,5.968ZM6.963,9.228C6.741,9.463 6.524,9.703 6.312,9.947L6.153,10.464L6.741,10.024L7.348,10.485L7.12,9.741L7.726,9.289L6.981,9.289L6.963,9.228ZM10.755,8.534L10.521,9.289L9.779,9.289L10.38,9.745L10.157,10.464L10.746,10.024L11.352,10.485L11.125,9.741L11.731,9.289L10.986,9.289L10.755,8.534L10.755,8.534ZM14.76,8.534L14.526,9.289L13.784,9.289L14.385,9.745L14.162,10.464L14.751,10.024L15.357,10.485L15.13,9.741L15.736,9.289L14.991,9.289L14.76,8.534L14.76,8.534ZM18.764,8.534L18.531,9.289L17.789,9.289L18.389,9.745L18.167,10.464L18.756,10.024L19.362,10.485L19.134,9.741L19.74,9.289L18.996,9.289L18.764,8.534L18.764,8.534ZM22.769,8.534L22.536,9.289L21.793,9.289L22.394,9.745L22.172,10.464L22.761,10.024L23.367,10.485L23.139,9.741L23.745,9.289L23.001,9.289L22.769,8.534L22.769,8.534ZM4.918,11.654C4.71,11.93 4.51,12.211 4.315,12.497L4.15,13.029L4.739,12.59L5.345,13.05L5.118,12.307L5.724,11.854L4.979,11.854L4.918,11.654ZM8.753,11.099L8.519,11.854L7.777,11.854L8.377,12.311L8.155,13.029L8.744,12.59L9.35,13.05L9.122,12.307L9.728,11.854L8.984,11.854L8.753,11.099L8.753,11.099ZM12.757,11.099L12.524,11.854L11.781,11.854L12.382,12.311L12.16,13.029L12.749,12.59L13.355,13.05L13.127,12.307L13.733,11.854L12.989,11.854L12.757,11.099L12.757,11.099ZM16.762,11.099L16.528,11.854L15.786,11.854L16.387,12.311L16.165,13.029L16.753,12.59L17.36,13.05L17.132,12.307L17.738,11.854L16.993,11.854L16.762,11.099L16.762,11.099ZM20.767,11.099L20.533,11.854L19.791,11.854L20.392,12.311L20.169,13.029L20.758,12.59L21.364,13.05L21.137,12.307L21.743,11.854L20.998,11.854L20.767,11.099L20.767,11.099ZM3.163,14.42C3.028,14.672 2.899,14.927 2.774,15.184L3.343,15.616L3.115,14.873L3.721,14.42L3.163,14.42ZM6.75,13.665L6.516,14.42L5.774,14.42L6.375,14.877L6.153,15.595L6.742,15.155L7.348,15.616L7.12,14.873L7.726,14.42L6.981,14.42L6.75,13.665ZM10.755,13.665L10.521,14.42L9.779,14.42L10.38,14.877L10.157,15.595L10.746,15.155L11.352,15.616L11.125,14.873L11.731,14.42L10.986,14.42L10.755,13.665L10.755,13.665ZM14.76,13.665L14.526,14.42L13.784,14.42L14.385,14.877L14.162,15.595L14.751,15.155L15.357,15.616L15.13,14.873L15.736,14.42L14.991,14.42L14.76,13.665ZM18.764,13.665L18.531,14.42L17.789,14.42L18.389,14.877L18.167,15.595L18.756,15.155L19.362,15.616L19.134,14.873L19.74,14.42L18.996,14.42L18.764,13.665L18.764,13.665ZM22.769,13.665L22.536,14.42L21.793,14.42L22.394,14.877L22.172,15.595L22.761,15.155L23.367,15.616L23.139,14.873L23.745,14.42L23.001,14.42L22.769,13.665ZM4.748,16.23L4.514,16.986L3.772,16.986L4.373,17.442L4.15,18.16L4.739,17.721L5.345,18.181L5.118,17.438L5.724,16.986L4.979,16.986L4.748,16.23L4.748,16.23ZM8.753,16.23L8.519,16.986L7.777,16.986L8.377,17.442L8.155,18.16L8.744,17.721L9.35,18.181L9.122,17.438L9.728,16.986L8.984,16.986L8.753,16.23ZM12.757,16.23L12.524,16.986L11.781,16.986L12.382,17.442L12.16,18.16L12.749,17.721L13.355,18.181L13.127,17.438L13.733,16.986L12.989,16.986L12.757,16.23ZM16.762,16.23L16.528,16.986L15.786,16.986L16.387,17.442L16.165,18.16L16.753,17.721L17.36,18.181L17.132,17.438L17.738,16.986L16.993,16.986L16.762,16.23L16.762,16.23ZM20.767,16.23L20.533,16.986L19.791,16.986L20.392,17.442L20.169,18.16L20.758,17.721L21.364,18.181L21.137,17.438L21.743,16.986L20.998,16.986L20.767,16.23L20.767,16.23ZM2.745,18.796L2.512,19.551L1.77,19.551L2.37,20.008L2.148,20.726L2.737,20.286L3.343,20.747L3.115,20.004L3.721,19.551L2.977,19.551L2.745,18.796ZM6.75,18.796L6.516,19.551L5.774,19.551L6.375,20.008L6.153,20.726L6.742,20.286L7.348,20.747L7.12,20.004L7.726,19.551L6.981,19.551L6.75,18.796ZM10.755,18.796L10.521,19.551L9.779,19.551L10.38,20.008L10.157,20.726L10.746,20.286L11.352,20.747L11.125,20.004L11.731,19.551L10.986,19.551L10.755,18.796L10.755,18.796ZM14.76,18.796L14.526,19.551L13.784,19.551L14.385,20.008L14.162,20.726L14.751,20.286L15.357,20.747L15.13,20.004L15.736,19.551L14.991,19.551L14.76,18.796ZM18.764,18.796L18.531,19.551L17.789,19.551L18.389,20.008L18.167,20.726L18.756,20.286L19.362,20.747L19.134,20.004L19.74,19.551L18.996,19.551L18.764,18.796L18.764,18.796ZM22.769,18.796L22.536,19.551L21.793,19.551L22.394,20.008L22.172,20.726L22.761,20.286L23.367,20.747L23.139,20.004L23.745,19.551L23.001,19.551L22.769,18.796ZM4.748,21.362L4.514,22.117L3.772,22.117L4.373,22.573L4.15,23.292L4.739,22.852L5.345,23.313L5.118,22.57L5.724,22.117L4.979,22.117L4.748,21.362L4.748,21.362ZM8.753,21.362L8.519,22.117L7.777,22.117L8.377,22.573L8.155,23.292L8.744,22.852L9.35,23.313L9.122,22.57L9.728,22.117L8.984,22.117L8.753,21.362ZM12.757,21.362L12.524,22.117L11.781,22.117L12.382,22.573L12.16,23.292L12.749,22.852L13.355,23.313L13.127,22.57L13.733,22.117L12.989,22.117L12.757,21.362ZM16.762,21.362L16.528,22.117L15.786,22.117L16.387,22.573L16.165,23.292L16.753,22.852L17.36,23.313L17.132,22.57L17.738,22.117L16.993,22.117L16.762,21.362L16.762,21.362ZM20.767,21.362L20.533,22.117L19.791,22.117L20.392,22.573L20.169,23.292L20.758,22.852L21.364,23.313L21.137,22.57L21.743,22.117L20.998,22.117L20.767,21.362L20.767,21.362ZM2.745,23.927L2.512,24.683L1.77,24.683L2.37,25.139L2.148,25.857L2.737,25.418L3.343,25.878L3.115,25.135L3.721,24.683L2.977,24.683L2.745,23.927L2.745,23.927ZM6.75,23.927L6.516,24.683L5.774,24.683L6.375,25.139L6.153,25.857L6.742,25.418L7.348,25.878L7.12,25.135L7.726,24.683L6.981,24.683L6.75,23.927L6.75,23.927ZM10.755,23.927L10.521,24.683L9.779,24.683L10.38,25.139L10.157,25.857L10.746,25.418L11.352,25.878L11.125,25.135L11.731,24.683L10.986,24.683L10.755,23.927L10.755,23.927ZM14.76,23.927L14.526,24.683L13.784,24.683L14.385,25.139L14.162,25.857L14.751,25.418L15.357,25.878L15.13,25.135L15.736,24.683L14.991,24.683L14.76,23.927L14.76,23.927ZM18.764,23.927L18.531,24.683L17.789,24.683L18.389,25.139L18.167,25.857L18.756,25.418L19.362,25.878L19.134,25.135L19.74,24.683L18.996,24.683L18.764,23.927L18.764,23.927ZM22.769,23.927L22.536,24.683L21.793,24.683L22.394,25.139L22.172,25.857L22.761,25.418L23.367,25.878L23.139,25.135L23.745,24.683L23.001,24.683L22.769,23.927L22.769,23.927Z" fill="#FFFFFF"/>
</svg>
