<svg width="48" height="48" viewBox="0 0 48 48" fill="none" xmlns="http://www.w3.org/2000/svg" xmlns:xlink="http://www.w3.org/1999/xlink">
<path d="M23,0.5C18.762,0.503 14.612,1.703 11.026,3.962L34.94,3.962C31.364,1.709 27.226,0.51 23,0.5L23,0.5Z" fill="#B22234"/>
<path d="M11.026,3.962C9.482,4.939 8.062,6.102 6.799,7.423L39.227,7.423C37.945,6.098 36.505,4.935 34.94,3.962L11.026,3.962Z" fill="#FFFFFF"/>
<path d="M6.8,7.423C5.778,8.485 4.864,9.644 4.069,10.885L41.957,10.885C41.163,9.644 40.249,8.485 39.228,7.423L6.8,7.423Z" fill="#B22234"/>
<path d="M4.068,10.885C3.358,11.983 2.745,13.141 2.236,14.346L43.746,14.346C43.251,13.143 42.652,11.985 41.957,10.885L4.068,10.885Z" fill="#FFFFFF"/>
<path d="M2.237,14.346C1.776,15.468 1.407,16.626 1.133,17.808L44.866,17.808C44.587,16.626 44.213,15.468 43.747,14.346L2.237,14.346Z" fill="#B22234"/>
<path d="M1.133,17.808C0.861,18.946 0.679,20.103 0.587,21.269L45.427,21.269C45.33,20.103 45.143,18.945 44.866,17.808L1.133,17.808Z" fill="#FFFFFF"/>
<path d="M0.587,21.27C0.536,21.845 0.507,22.422 0.5,23C0.502,23.578 0.527,24.155 0.573,24.731L45.413,24.731C45.464,24.155 45.493,23.578 45.5,23C45.498,22.423 45.473,21.845 45.427,21.27L0.587,21.27Z" fill="#B22234"/>
<path d="M0.573,24.73C0.67,25.897 0.858,27.055 1.134,28.192L44.867,28.192C45.139,27.054 45.322,25.897 45.413,24.73L0.573,24.73Z" fill="#FFFFFF"/>
<path d="M1.135,28.192C1.414,29.375 1.788,30.532 2.254,31.654L43.764,31.654C44.224,30.532 44.593,29.374 44.868,28.192L1.135,28.192Z" fill="#B22234"/>
<path d="M2.253,31.654C2.748,32.857 3.347,34.015 4.043,35.115L41.931,35.115C42.641,34.017 43.254,32.859 43.763,31.654L2.253,31.654Z" fill="#FFFFFF"/>
<path d="M4.043,35.115C4.837,36.356 5.752,37.515 6.773,38.577L39.201,38.577C40.222,37.515 41.136,36.356 41.931,35.115L4.043,35.115Z" fill="#B22234"/>
<path d="M6.772,38.577C8.054,39.902 9.494,41.065 11.059,42.038L34.973,42.038C36.518,41.061 37.937,39.898 39.201,38.577L6.772,38.577Z" fill="#FFFFFF"/>
<path d="M11.06,42.038C14.636,44.291 18.774,45.49 23,45.5C27.237,45.497 31.388,44.297 34.973,42.038L11.06,42.038Z" fill="#B22234"/>
<path d="M23,0.5C17.033,0.5 11.31,2.871 7.09,7.09C2.871,11.31 0.5,17.033 0.5,23C0.503,23.595 0.529,24.189 0.579,24.781L24.781,24.781L24.781,0.589C24.189,0.536 23.595,0.506 23,0.5L23,0.5Z" fill="#3C3B6E"/>
<path d="M14.948,2.017C14.648,2.126 14.351,2.242 14.056,2.364L14.384,2.614L14.162,3.332L14.751,2.893L15.357,3.353L15.13,2.61L15.736,2.158L14.991,2.158L14.948,2.017ZM18.764,1.402L18.531,2.157L17.789,2.157L18.389,2.614L18.167,3.332L18.756,2.893L19.362,3.353L19.134,2.61L19.74,2.157L18.996,2.157L18.764,1.402L18.764,1.402ZM22.769,1.402L22.536,2.157L21.793,2.157L22.394,2.614L22.172,3.332L22.761,2.893L23.367,3.353L23.139,2.61L23.745,2.157L23.001,2.157L22.769,1.402ZM9.159,5.295C9.053,5.373 8.948,5.453 8.844,5.534L9.35,5.919L9.159,5.295ZM12.757,3.968L12.524,4.723L11.781,4.723L12.382,5.18L12.16,5.898L12.749,5.458L13.355,5.919L13.127,5.176L13.733,4.723L12.989,4.723L12.757,3.968ZM16.762,3.968L16.528,4.723L15.786,4.723L16.387,5.18L16.165,5.898L16.753,5.458L17.36,5.919L17.132,5.176L17.738,4.723L16.993,4.723L16.762,3.968L16.762,3.968ZM20.767,3.968L20.533,4.723L19.791,4.723L20.392,5.18L20.169,5.898L20.758,5.458L21.364,5.919L21.137,5.176L21.743,4.723L20.998,4.723L20.767,3.968L20.767,3.968ZM6.963,7.228C6.741,7.463 6.524,7.703 6.312,7.947L6.153,8.464L6.741,8.024L7.348,8.485L7.12,7.741L7.726,7.289L6.981,7.289L6.963,7.228ZM10.755,6.534L10.521,7.289L9.779,7.289L10.38,7.745L10.157,8.464L10.746,8.024L11.352,8.485L11.125,7.741L11.731,7.289L10.986,7.289L10.755,6.534L10.755,6.534ZM14.76,6.534L14.526,7.289L13.784,7.289L14.385,7.745L14.162,8.464L14.751,8.024L15.357,8.485L15.13,7.741L15.736,7.289L14.991,7.289L14.76,6.534L14.76,6.534ZM18.764,6.534L18.531,7.289L17.789,7.289L18.389,7.745L18.167,8.464L18.756,8.024L19.362,8.485L19.134,7.741L19.74,7.289L18.996,7.289L18.764,6.534L18.764,6.534ZM22.769,6.534L22.536,7.289L21.793,7.289L22.394,7.745L22.172,8.464L22.761,8.024L23.367,8.485L23.139,7.741L23.745,7.289L23.001,7.289L22.769,6.534L22.769,6.534ZM4.918,9.654C4.71,9.93 4.51,10.211 4.315,10.497L4.15,11.029L4.739,10.59L5.345,11.05L5.118,10.307L5.724,9.854L4.979,9.854L4.918,9.654ZM8.753,9.099L8.519,9.854L7.777,9.854L8.377,10.311L8.155,11.029L8.744,10.59L9.35,11.05L9.122,10.307L9.728,9.854L8.984,9.854L8.753,9.099L8.753,9.099ZM12.757,9.099L12.524,9.854L11.781,9.854L12.382,10.311L12.16,11.029L12.749,10.59L13.355,11.05L13.127,10.307L13.733,9.854L12.989,9.854L12.757,9.099L12.757,9.099ZM16.762,9.099L16.528,9.854L15.786,9.854L16.387,10.311L16.165,11.029L16.753,10.59L17.36,11.05L17.132,10.307L17.738,9.854L16.993,9.854L16.762,9.099L16.762,9.099ZM20.767,9.099L20.533,9.854L19.791,9.854L20.392,10.311L20.169,11.029L20.758,10.59L21.364,11.05L21.137,10.307L21.743,9.854L20.998,9.854L20.767,9.099L20.767,9.099ZM3.163,12.42C3.028,12.672 2.899,12.927 2.774,13.184L3.343,13.616L3.115,12.873L3.721,12.42L3.163,12.42ZM6.75,11.665L6.516,12.42L5.774,12.42L6.375,12.877L6.153,13.595L6.742,13.155L7.348,13.616L7.12,12.873L7.726,12.42L6.981,12.42L6.75,11.665ZM10.755,11.665L10.521,12.42L9.779,12.42L10.38,12.877L10.157,13.595L10.746,13.155L11.352,13.616L11.125,12.873L11.731,12.42L10.986,12.42L10.755,11.665L10.755,11.665ZM14.76,11.665L14.526,12.42L13.784,12.42L14.385,12.877L14.162,13.595L14.751,13.155L15.357,13.616L15.13,12.873L15.736,12.42L14.991,12.42L14.76,11.665ZM18.764,11.665L18.531,12.42L17.789,12.42L18.389,12.877L18.167,13.595L18.756,13.155L19.362,13.616L19.134,12.873L19.74,12.42L18.996,12.42L18.764,11.665L18.764,11.665ZM22.769,11.665L22.536,12.42L21.793,12.42L22.394,12.877L22.172,13.595L22.761,13.155L23.367,13.616L23.139,12.873L23.745,12.42L23.001,12.42L22.769,11.665ZM4.748,14.23L4.514,14.986L3.772,14.986L4.373,15.442L4.15,16.16L4.739,15.721L5.345,16.181L5.118,15.438L5.724,14.986L4.979,14.986L4.748,14.23L4.748,14.23ZM8.753,14.23L8.519,14.986L7.777,14.986L8.377,15.442L8.155,16.16L8.744,15.721L9.35,16.181L9.122,15.438L9.728,14.986L8.984,14.986L8.753,14.23ZM12.757,14.23L12.524,14.986L11.781,14.986L12.382,15.442L12.16,16.16L12.749,15.721L13.355,16.181L13.127,15.438L13.733,14.986L12.989,14.986L12.757,14.23ZM16.762,14.23L16.528,14.986L15.786,14.986L16.387,15.442L16.165,16.16L16.753,15.721L17.36,16.181L17.132,15.438L17.738,14.986L16.993,14.986L16.762,14.23L16.762,14.23ZM20.767,14.23L20.533,14.986L19.791,14.986L20.392,15.442L20.169,16.16L20.758,15.721L21.364,16.181L21.137,15.438L21.743,14.986L20.998,14.986L20.767,14.23L20.767,14.23ZM2.745,16.796L2.512,17.551L1.77,17.551L2.37,18.008L2.148,18.726L2.737,18.286L3.343,18.747L3.115,18.004L3.721,17.551L2.977,17.551L2.745,16.796ZM6.75,16.796L6.516,17.551L5.774,17.551L6.375,18.008L6.153,18.726L6.742,18.286L7.348,18.747L7.12,18.004L7.726,17.551L6.981,17.551L6.75,16.796ZM10.755,16.796L10.521,17.551L9.779,17.551L10.38,18.008L10.157,18.726L10.746,18.286L11.352,18.747L11.125,18.004L11.731,17.551L10.986,17.551L10.755,16.796L10.755,16.796ZM14.76,16.796L14.526,17.551L13.784,17.551L14.385,18.008L14.162,18.726L14.751,18.286L15.357,18.747L15.13,18.004L15.736,17.551L14.991,17.551L14.76,16.796ZM18.764,16.796L18.531,17.551L17.789,17.551L18.389,18.008L18.167,18.726L18.756,18.286L19.362,18.747L19.134,18.004L19.74,17.551L18.996,17.551L18.764,16.796L18.764,16.796ZM22.769,16.796L22.536,17.551L21.793,17.551L22.394,18.008L22.172,18.726L22.761,18.286L23.367,18.747L23.139,18.004L23.745,17.551L23.001,17.551L22.769,16.796ZM4.748,19.362L4.514,20.117L3.772,20.117L4.373,20.573L4.15,21.292L4.739,20.852L5.345,21.313L5.118,20.57L5.724,20.117L4.979,20.117L4.748,19.362L4.748,19.362ZM8.753,19.362L8.519,20.117L7.777,20.117L8.377,20.573L8.155,21.292L8.744,20.852L9.35,21.313L9.122,20.57L9.728,20.117L8.984,20.117L8.753,19.362ZM12.757,19.362L12.524,20.117L11.781,20.117L12.382,20.573L12.16,21.292L12.749,20.852L13.355,21.313L13.127,20.57L13.733,20.117L12.989,20.117L12.757,19.362ZM16.762,19.362L16.528,20.117L15.786,20.117L16.387,20.573L16.165,21.292L16.753,20.852L17.36,21.313L17.132,20.57L17.738,20.117L16.993,20.117L16.762,19.362L16.762,19.362ZM20.767,19.362L20.533,20.117L19.791,20.117L20.392,20.573L20.169,21.292L20.758,20.852L21.364,21.313L21.137,20.57L21.743,20.117L20.998,20.117L20.767,19.362L20.767,19.362ZM2.745,21.927L2.512,22.683L1.77,22.683L2.37,23.139L2.148,23.857L2.737,23.418L3.343,23.878L3.115,23.135L3.721,22.683L2.977,22.683L2.745,21.927L2.745,21.927ZM6.75,21.927L6.516,22.683L5.774,22.683L6.375,23.139L6.153,23.857L6.742,23.418L7.348,23.878L7.12,23.135L7.726,22.683L6.981,22.683L6.75,21.927L6.75,21.927ZM10.755,21.927L10.521,22.683L9.779,22.683L10.38,23.139L10.157,23.857L10.746,23.418L11.352,23.878L11.125,23.135L11.731,22.683L10.986,22.683L10.755,21.927L10.755,21.927ZM14.76,21.927L14.526,22.683L13.784,22.683L14.385,23.139L14.162,23.857L14.751,23.418L15.357,23.878L15.13,23.135L15.736,22.683L14.991,22.683L14.76,21.927L14.76,21.927ZM18.764,21.927L18.531,22.683L17.789,22.683L18.389,23.139L18.167,23.857L18.756,23.418L19.362,23.878L19.134,23.135L19.74,22.683L18.996,22.683L18.764,21.927L18.764,21.927ZM22.769,21.927L22.536,22.683L21.793,22.683L22.394,23.139L22.172,23.857L22.761,23.418L23.367,23.878L23.139,23.135L23.745,22.683L23.001,22.683L22.769,21.927L22.769,21.927Z" fill="#FFFFFF"/>
</svg>
