<svg width="48" height="48" viewBox="0 0 48 48" fill="none" xmlns="http://www.w3.org/2000/svg" xmlns:xlink="http://www.w3.org/1999/xlink">
<path d="M23,0.5C18.763,0.503 14.612,1.703 11.027,3.962L34.941,3.962C31.364,1.709 27.226,0.51 23,0.5L23,0.5Z" fill="#B22234"/>
<path d="M11.027,3.962C9.482,4.939 8.063,6.102 6.799,7.423L39.228,7.423C37.946,6.098 36.506,4.935 34.941,3.962L11.027,3.962Z" fill="#FFFFFF"/>
<path d="M6.799,7.423C5.778,8.485 4.863,9.644 4.069,10.885L41.957,10.885C41.162,9.644 40.248,8.485 39.227,7.423L6.799,7.423Z" fill="#B22234"/>
<path d="M4.069,10.885C3.359,11.983 2.746,13.141 2.237,14.346L43.747,14.346C43.251,13.143 42.653,11.985 41.957,10.885L4.069,10.885Z" fill="#FFFFFF"/>
<path d="M2.237,14.346C1.776,15.468 1.407,16.626 1.133,17.808L44.866,17.808C44.587,16.626 44.213,15.468 43.747,14.346L2.237,14.346Z" fill="#B22234"/>
<path d="M1.133,17.808C0.861,18.946 0.678,20.103 0.586,21.269L45.427,21.269C45.33,20.103 45.142,18.945 44.865,17.808L1.133,17.808Z" fill="#FFFFFF"/>
<path d="M0.587,21.27C0.536,21.845 0.507,22.422 0.5,23C0.502,23.578 0.527,24.155 0.573,24.731L45.413,24.731C45.464,24.155 45.493,23.578 45.5,23C45.498,22.423 45.473,21.845 45.427,21.27L0.587,21.27Z" fill="#B22234"/>
<path d="M0.573,24.73C0.67,25.897 0.858,27.055 1.134,28.192L44.867,28.192C45.139,27.054 45.322,25.897 45.413,24.73L0.573,24.73Z" fill="#FFFFFF"/>
<path d="M1.134,28.192C1.413,29.375 1.787,30.532 2.253,31.654L43.763,31.654C44.224,30.532 44.593,29.374 44.867,28.192L1.134,28.192Z" fill="#B22234"/>
<path d="M2.253,31.654C2.749,32.857 3.348,34.015 4.043,35.115L41.931,35.115C42.641,34.017 43.254,32.859 43.763,31.654L2.253,31.654Z" fill="#FFFFFF"/>
<path d="M4.043,35.115C4.837,36.356 5.752,37.515 6.773,38.577L39.201,38.577C40.222,37.515 41.136,36.356 41.931,35.115L4.043,35.115Z" fill="#B22234"/>
<path d="M6.772,38.577C8.054,39.902 9.494,41.065 11.059,42.038L34.973,42.038C36.518,41.061 37.937,39.898 39.201,38.577L6.772,38.577Z" fill="#FFFFFF"/>
<path d="M11.06,42.038C14.636,44.291 18.774,45.49 23,45.5C27.237,45.497 31.388,44.297 34.973,42.038L11.06,42.038Z" fill="#B22234"/>
<path d="M23,0.5C17.033,0.5 11.31,2.871 7.09,7.09C2.871,11.31 0.5,17.033 0.5,23C0.503,23.595 0.529,24.189 0.579,24.781L24.781,24.781L24.781,0.589C24.189,0.536 23.595,0.506 23,0.5L23,0.5Z" fill="#3C3B6E"/>
<path d="M14.947,2.017C14.648,2.126 14.35,2.242 14.055,2.364L14.384,2.614L14.162,3.332L14.751,2.893L15.357,3.353L15.129,2.61L15.735,2.158L14.99,2.158L14.947,2.017ZM18.764,1.402L18.53,2.157L17.788,2.157L18.389,2.614L18.167,3.332L18.755,2.893L19.361,3.353L19.134,2.61L19.74,2.157L18.995,2.157L18.764,1.402L18.764,1.402ZM22.769,1.402L22.535,2.157L21.793,2.157L22.394,2.614L22.171,3.332L22.76,2.893L23.366,3.353L23.139,2.61L23.745,2.157L23,2.157L22.769,1.402ZM9.158,5.295C9.053,5.373 8.947,5.453 8.843,5.534L9.35,5.919L9.158,5.295ZM12.757,3.968L12.523,4.723L11.781,4.723L12.382,5.18L12.159,5.898L12.748,5.458L13.354,5.919L13.127,5.176L13.733,4.723L12.988,4.723L12.757,3.968ZM16.762,3.968L16.528,4.723L15.786,4.723L16.386,5.18L16.164,5.898L16.753,5.458L17.359,5.919L17.131,5.176L17.738,4.723L16.993,4.723L16.762,3.968L16.762,3.968ZM20.766,3.968L20.533,4.723L19.791,4.723L20.391,5.18L20.169,5.898L20.758,5.458L21.364,5.919L21.136,5.176L21.742,4.723L20.998,4.723L20.766,3.968L20.766,3.968ZM6.962,7.228C6.74,7.463 6.524,7.703 6.312,7.947L6.152,8.464L6.741,8.024L7.347,8.485L7.119,7.741L7.726,7.289L6.981,7.289L6.962,7.228ZM10.754,6.534L10.521,7.289L9.779,7.289L10.379,7.745L10.157,8.464L10.746,8.024L11.352,8.485L11.124,7.741L11.73,7.289L10.986,7.289L10.754,6.534L10.754,6.534ZM14.759,6.534L14.525,7.289L13.783,7.289L14.384,7.745L14.162,8.464L14.751,8.024L15.357,8.485L15.129,7.741L15.735,7.289L14.991,7.289L14.759,6.534L14.759,6.534ZM18.764,6.534L18.53,7.289L17.788,7.289L18.389,7.745L18.167,8.464L18.755,8.024L19.361,8.485L19.134,7.741L19.74,7.289L18.995,7.289L18.764,6.534L18.764,6.534ZM22.769,6.534L22.535,7.289L21.793,7.289L22.394,7.745L22.171,8.464L22.76,8.024L23.366,8.485L23.139,7.741L23.745,7.289L23,7.289L22.769,6.534L22.769,6.534ZM4.917,9.654C4.71,9.93 4.509,10.211 4.315,10.497L4.15,11.029L4.739,10.59L5.345,11.05L5.117,10.307L5.723,9.854L4.979,9.854L4.917,9.654ZM8.752,9.099L8.518,9.854L7.776,9.854L8.377,10.311L8.155,11.029L8.743,10.59L9.35,11.05L9.122,10.307L9.728,9.854L8.983,9.854L8.752,9.099L8.752,9.099ZM12.757,9.099L12.523,9.854L11.781,9.854L12.382,10.311L12.159,11.029L12.748,10.59L13.354,11.05L13.127,10.307L13.733,9.854L12.988,9.854L12.757,9.099L12.757,9.099ZM16.762,9.099L16.528,9.854L15.786,9.854L16.386,10.311L16.164,11.029L16.753,10.59L17.359,11.05L17.131,10.307L17.738,9.854L16.993,9.854L16.762,9.099L16.762,9.099ZM20.766,9.099L20.533,9.854L19.791,9.854L20.391,10.311L20.169,11.029L20.758,10.59L21.364,11.05L21.136,10.307L21.742,9.854L20.998,9.854L20.766,9.099L20.766,9.099ZM3.162,12.42C3.028,12.672 2.898,12.927 2.773,13.184L3.342,13.616L3.115,12.873L3.721,12.42L3.162,12.42ZM6.75,11.665L6.516,12.42L5.774,12.42L6.375,12.877L6.152,13.595L6.741,13.155L7.347,13.616L7.12,12.873L7.726,12.42L6.981,12.42L6.75,11.665ZM10.754,11.665L10.521,12.42L9.779,12.42L10.379,12.877L10.157,13.595L10.746,13.155L11.352,13.616L11.124,12.873L11.73,12.42L10.986,12.42L10.754,11.665L10.754,11.665ZM14.759,11.665L14.525,12.42L13.783,12.42L14.384,12.877L14.162,13.595L14.751,13.155L15.357,13.616L15.129,12.873L15.735,12.42L14.991,12.42L14.759,11.665ZM18.764,11.665L18.53,12.42L17.788,12.42L18.389,12.877L18.167,13.595L18.755,13.155L19.361,13.616L19.134,12.873L19.74,12.42L18.995,12.42L18.764,11.665L18.764,11.665ZM22.769,11.665L22.535,12.42L21.793,12.42L22.394,12.877L22.171,13.595L22.76,13.155L23.366,13.616L23.139,12.873L23.745,12.42L23,12.42L22.769,11.665ZM4.747,14.23L4.514,14.986L3.771,14.986L4.372,15.442L4.15,16.16L4.739,15.721L5.345,16.181L5.117,15.438L5.723,14.986L4.979,14.986L4.747,14.23L4.747,14.23ZM8.752,14.23L8.518,14.986L7.776,14.986L8.377,15.442L8.155,16.16L8.743,15.721L9.35,16.181L9.122,15.438L9.728,14.986L8.983,14.986L8.752,14.23ZM12.757,14.23L12.523,14.986L11.781,14.986L12.382,15.442L12.159,16.16L12.748,15.721L13.354,16.181L13.127,15.438L13.733,14.986L12.988,14.986L12.757,14.23ZM16.762,14.23L16.528,14.986L15.786,14.986L16.386,15.442L16.164,16.16L16.753,15.721L17.359,16.181L17.131,15.438L17.738,14.986L16.993,14.986L16.762,14.23L16.762,14.23ZM20.766,14.23L20.533,14.986L19.791,14.986L20.391,15.442L20.169,16.16L20.758,15.721L21.364,16.181L21.136,15.438L21.742,14.986L20.998,14.986L20.766,14.23L20.766,14.23ZM2.745,16.796L2.511,17.551L1.769,17.551L2.37,18.008L2.147,18.726L2.736,18.286L3.342,18.747L3.115,18.004L3.721,17.551L2.976,17.551L2.745,16.796ZM6.75,16.796L6.516,17.551L5.774,17.551L6.375,18.008L6.152,18.726L6.741,18.286L7.347,18.747L7.12,18.004L7.726,17.551L6.981,17.551L6.75,16.796ZM10.754,16.796L10.521,17.551L9.779,17.551L10.379,18.008L10.157,18.726L10.746,18.286L11.352,18.747L11.124,18.004L11.73,17.551L10.986,17.551L10.754,16.796L10.754,16.796ZM14.759,16.796L14.525,17.551L13.783,17.551L14.384,18.008L14.162,18.726L14.751,18.286L15.357,18.747L15.129,18.004L15.735,17.551L14.991,17.551L14.759,16.796ZM18.764,16.796L18.53,17.551L17.788,17.551L18.389,18.008L18.167,18.726L18.755,18.286L19.361,18.747L19.134,18.004L19.74,17.551L18.995,17.551L18.764,16.796L18.764,16.796ZM22.769,16.796L22.535,17.551L21.793,17.551L22.394,18.008L22.171,18.726L22.76,18.286L23.366,18.747L23.139,18.004L23.745,17.551L23,17.551L22.769,16.796ZM4.747,19.362L4.514,20.117L3.771,20.117L4.372,20.573L4.15,21.292L4.739,20.852L5.345,21.313L5.117,20.57L5.723,20.117L4.979,20.117L4.747,19.362L4.747,19.362ZM8.752,19.362L8.518,20.117L7.776,20.117L8.377,20.573L8.155,21.292L8.743,20.852L9.35,21.313L9.122,20.57L9.728,20.117L8.983,20.117L8.752,19.362ZM12.757,19.362L12.523,20.117L11.781,20.117L12.382,20.573L12.159,21.292L12.748,20.852L13.354,21.313L13.127,20.57L13.733,20.117L12.988,20.117L12.757,19.362ZM16.762,19.362L16.528,20.117L15.786,20.117L16.386,20.573L16.164,21.292L16.753,20.852L17.359,21.313L17.131,20.57L17.738,20.117L16.993,20.117L16.762,19.362L16.762,19.362ZM20.766,19.362L20.533,20.117L19.791,20.117L20.391,20.573L20.169,21.292L20.758,20.852L21.364,21.313L21.136,20.57L21.742,20.117L20.998,20.117L20.766,19.362L20.766,19.362ZM2.745,21.927L2.511,22.683L1.769,22.683L2.37,23.139L2.147,23.857L2.736,23.418L3.342,23.878L3.115,23.135L3.721,22.683L2.976,22.683L2.745,21.927L2.745,21.927ZM6.75,21.927L6.516,22.683L5.774,22.683L6.375,23.139L6.152,23.857L6.741,23.418L7.347,23.878L7.12,23.135L7.726,22.683L6.981,22.683L6.75,21.927L6.75,21.927ZM10.754,21.927L10.521,22.683L9.779,22.683L10.379,23.139L10.157,23.857L10.746,23.418L11.352,23.878L11.124,23.135L11.73,22.683L10.986,22.683L10.754,21.927L10.754,21.927ZM14.759,21.927L14.525,22.683L13.783,22.683L14.384,23.139L14.162,23.857L14.751,23.418L15.357,23.878L15.129,23.135L15.735,22.683L14.991,22.683L14.759,21.927L14.759,21.927ZM18.764,21.927L18.53,22.683L17.788,22.683L18.389,23.139L18.167,23.857L18.755,23.418L19.361,23.878L19.134,23.135L19.74,22.683L18.995,22.683L18.764,21.927L18.764,21.927ZM22.769,21.927L22.535,22.683L21.793,22.683L22.394,23.139L22.171,23.857L22.76,23.418L23.366,23.878L23.139,23.135L23.745,22.683L23,22.683L22.769,21.927L22.769,21.927Z" fill="#FFFFFF"/>
</svg>
