<svg width="24" height="26" viewBox="0 0 24 26" fill="none" xmlns="http://www.w3.org/2000/svg" xmlns:xlink="http://www.w3.org/1999/xlink">
<path d="M21.737,24.046C22.182,24.492 22.904,24.493 23.349,24.048C23.795,23.603 23.796,22.881 23.351,22.435L21.737,24.046ZM18.235,17.311C17.79,16.865 17.068,16.864 16.622,17.309C16.177,17.754 16.176,18.476 16.621,18.922L18.235,17.311ZM0.877,11.267L-0.263,11.267L0.877,11.267ZM10.57,1.574L10.57,0.434L10.57,1.574ZM23.351,22.435L18.235,17.311L16.621,18.922L21.737,24.046L23.351,22.435ZM16.621,18.922L21.737,24.046L23.351,22.435L18.235,17.311L16.621,18.922ZM19.123,11.267C19.123,13.535 18.221,15.711 16.618,17.315L18.23,18.928C20.262,16.896 21.403,14.14 21.403,11.267L19.123,11.267ZM16.618,17.315C15.014,18.919 12.838,19.82 10.57,19.82L10.57,22.101C13.443,22.101 16.199,20.959 18.23,18.928L16.618,17.315ZM10.57,19.82C8.302,19.82 6.126,18.919 4.522,17.315L2.91,18.928C4.941,20.959 7.697,22.101 10.57,22.101L10.57,19.82ZM4.522,17.315C2.918,15.711 2.017,13.535 2.017,11.267L-0.263,11.267C-0.263,14.14 0.878,16.896 2.91,18.928L4.522,17.315ZM2.017,11.267C2.017,8.999 2.918,6.823 4.522,5.22L2.91,3.607C0.878,5.639 -0.263,8.394 -0.263,11.267L2.017,11.267ZM4.522,5.22C6.126,3.616 8.302,2.715 10.57,2.715L10.57,0.434C7.697,0.434 4.941,1.575 2.91,3.607L4.522,5.22ZM10.57,2.715C12.838,2.715 15.014,3.616 16.618,5.22L18.23,3.607C16.199,1.575 13.443,0.434 10.57,0.434L10.57,2.715ZM16.618,5.22C18.221,6.823 19.123,8.999 19.123,11.267L21.403,11.267C21.403,8.394 20.262,5.639 18.23,3.607L16.618,5.22Z" fill="#ABABAB"/>
</svg>
