<svg width="46" height="46" viewBox="0 0 46 46" fill="none" xmlns="http://www.w3.org/2000/svg" xmlns:xlink="http://www.w3.org/1999/xlink">
<path d="M5,40L8.563,40L33,15.563L29.438,12L5,36.438L5,40ZM0,45L0,34.375L33,1.438C33.5,0.979 34.053,0.625 34.658,0.375C35.263,0.125 35.897,0 36.562,0C37.228,0 37.873,0.125 38.5,0.375C39.127,0.625 39.668,1 40.125,1.5L43.562,5C44.062,5.458 44.428,6 44.658,6.625C44.888,7.25 45.002,7.875 45,8.5C45,9.167 44.886,9.802 44.658,10.408C44.429,11.012 44.064,11.564 43.562,12.063L10.625,45L0,45ZM31.188,13.813L29.438,12L33,15.563L31.188,13.813Z" fill="#011728"/>
</svg>
