<svg width="272" height="272" viewBox="0 0 272 272" fill="none" xmlns="http://www.w3.org/2000/svg" xmlns:xlink="http://www.w3.org/1999/xlink">
<path d="M23.5,271C23.5,271 1,271 1,248.5C1,226 23.5,158.5 136,158.5C248.5,158.5 271,226 271,248.5C271,271 248.5,271 248.5,271L23.5,271ZM136,136C153.902,136 171.071,128.888 183.73,116.23C196.388,103.571 203.5,86.402 203.5,68.5C203.5,50.598 196.388,33.429 183.73,20.77C171.071,8.112 153.902,1 136,1C118.098,1 100.929,8.112 88.27,20.77C75.612,33.429 68.5,50.598 68.5,68.5C68.5,86.402 75.612,103.571 88.27,116.23C100.929,128.888 118.098,136 136,136Z" fill="#000000"/>
</svg>
