<svg width="16" height="28" viewBox="0 0 16 28" fill="none" xmlns="http://www.w3.org/2000/svg" xmlns:xlink="http://www.w3.org/1999/xlink">
<path d="M0.586,15.415C0.211,15.04 0,14.531 0,14.001C0,13.47 0.211,12.962 0.586,12.587L11.9,1.273C12.084,1.082 12.305,0.929 12.549,0.824C12.793,0.72 13.055,0.664 13.321,0.662C13.586,0.66 13.85,0.71 14.095,0.811C14.341,0.912 14.565,1.06 14.752,1.248C14.94,1.436 15.089,1.659 15.189,1.905C15.29,2.151 15.34,2.414 15.338,2.679C15.336,2.945 15.281,3.207 15.176,3.451C15.071,3.696 14.919,3.916 14.728,4.101L4.828,14.001L14.728,23.901C15.092,24.278 15.293,24.783 15.289,25.308C15.284,25.832 15.074,26.334 14.703,26.704C14.332,27.075 13.831,27.286 13.306,27.29C12.782,27.295 12.277,27.093 11.9,26.729L0.586,15.415Z" clip-rule="evenodd" fill-rule="evenodd" fill="#000000"/>
</svg>
