<svg width="46" height="44" viewBox="0 0 46 44" fill="none" xmlns="http://www.w3.org/2000/svg" xmlns:xlink="http://www.w3.org/1999/xlink">
<path d="M43,8.285L44.061,9.346C44.646,8.76 44.646,7.81 44.061,7.224L43,8.285ZM35.5,0.785L36.561,-0.276C35.975,-0.861 35.025,-0.861 34.439,-0.276L35.5,0.785ZM5.5,30.785L4.439,29.725C4.259,29.905 4.128,30.128 4.058,30.373L5.5,30.785ZM2.5,41.285L1.058,40.873C0.908,41.397 1.054,41.961 1.439,42.346C1.825,42.731 2.388,42.877 2.912,42.727L2.5,41.285ZM13,38.285L13.412,39.727C13.657,39.657 13.88,39.526 14.061,39.346L13,38.285ZM30.561,5.724C29.975,5.139 29.025,5.139 28.439,5.724C27.854,6.31 27.854,7.26 28.439,7.846L30.561,5.724ZM35.939,15.346C36.525,15.932 37.475,15.932 38.061,15.346C38.646,14.76 38.646,13.81 38.061,13.224L35.939,15.346ZM6.561,29.725C5.975,29.139 5.025,29.139 4.439,29.725C3.854,30.31 3.854,31.26 4.439,31.846L6.561,29.725ZM11.939,39.346C12.525,39.932 13.475,39.932 14.061,39.346C14.646,38.76 14.646,37.81 14.061,37.225L11.939,39.346ZM44.061,7.224L36.561,-0.276L34.439,1.846L41.939,9.346L44.061,7.224ZM34.439,-0.276L4.439,29.725L6.561,31.846L36.561,1.846L34.439,-0.276ZM4.058,30.373L1.058,40.873L3.942,41.697L6.942,31.197L4.058,30.373ZM2.912,42.727L13.412,39.727L12.588,36.843L2.088,39.843L2.912,42.727ZM14.061,39.346L44.061,9.346L41.939,7.224L11.939,37.225L14.061,39.346ZM28.439,7.846L35.939,15.346L38.061,13.224L30.561,5.724L28.439,7.846ZM38.061,13.224L30.561,5.724L28.439,7.846L35.939,15.346L38.061,13.224ZM4.439,31.846L11.939,39.346L14.061,37.225L6.561,29.725L4.439,31.846ZM14.061,37.225L6.561,29.725L4.439,31.846L11.939,39.346L14.061,37.225Z" fill="#FFFFFF"/>
</svg>
