<svg width="48" height="68" viewBox="0 0 48 68" fill="none" xmlns="http://www.w3.org/2000/svg" xmlns:xlink="http://www.w3.org/1999/xlink">
<path d="M23.999,0.666C11.099,0.666 0.666,11.099 0.666,23.999C0.666,41.499 23.999,67.333 23.999,67.333C23.999,67.333 47.333,41.499 47.333,23.999C47.333,11.099 36.899,0.666 23.999,0.666ZM23.999,32.333C21.789,32.333 19.67,31.455 18.107,29.892C16.544,28.329 15.666,26.209 15.666,23.999C15.666,21.789 16.544,19.67 18.107,18.107C19.67,16.544 21.789,15.666 23.999,15.666C26.209,15.666 28.329,16.544 29.892,18.107C31.455,19.67 32.333,21.789 32.333,23.999C32.333,26.209 31.455,28.329 29.892,29.892C28.329,31.455 26.209,32.333 23.999,32.333Z" fill="#ABDCD8"/>
</svg>
