<svg width="76" height="76" viewBox="0 0 76 76" fill="none" xmlns="http://www.w3.org/2000/svg" xmlns:xlink="http://www.w3.org/1999/xlink">
<path d="M8.833,67.167L14.771,67.167L55.5,26.438L49.562,20.5L8.833,61.229L8.833,67.167ZM0.5,75.5L0.5,57.792L55.5,2.896C56.333,2.132 57.254,1.542 58.263,1.125C59.271,0.708 60.329,0.5 61.437,0.5C62.546,0.5 63.622,0.708 64.667,1.125C65.711,1.542 66.614,2.167 67.375,3L73.104,8.833C73.937,9.597 74.546,10.5 74.929,11.542C75.312,12.583 75.503,13.625 75.5,14.667C75.5,15.778 75.31,16.838 74.929,17.846C74.549,18.854 73.94,19.774 73.104,20.604L18.208,75.5L0.5,75.5ZM52.479,23.521L49.562,20.5L55.5,26.438L52.479,23.521Z" fill="#ABDCD8"/>
</svg>
