<svg width="330" height="330" viewBox="0 0 330 330" fill="none" xmlns="http://www.w3.org/2000/svg" xmlns:xlink="http://www.w3.org/1999/xlink">
<path d="M28.125,329.25C28.125,329.25 0.75,329.25 0.75,301.874C0.75,274.5 28.125,192.375 165,192.375C301.874,192.375 329.25,274.5 329.25,301.874C329.25,329.25 301.874,329.25 301.874,329.25L28.125,329.25ZM165,165C186.781,165 207.67,156.348 223.072,140.946C238.472,125.545 247.126,104.656 247.126,82.875C247.126,61.094 238.472,40.205 223.072,24.804C207.67,9.402 186.781,0.75 165,0.75C143.219,0.75 122.33,9.402 106.929,24.804C91.527,40.205 82.875,61.094 82.875,82.875C82.875,104.656 91.527,125.545 106.929,140.946C122.33,156.348 143.219,165 165,165Z" fill="#000000"/>
</svg>
