<svg width="38" height="62" viewBox="0 0 38 62" fill="none" xmlns="http://www.w3.org/2000/svg" xmlns:xlink="http://www.w3.org/1999/xlink">
<path d="M10.821,2.846C10.821,1.741 9.925,0.846 8.821,0.846C7.716,0.846 6.821,1.741 6.821,2.846L10.821,2.846ZM8.821,22.846L10.61,23.74C10.748,23.463 10.821,23.156 10.821,22.846L8.821,22.846ZM2.154,36.179L0.365,35.285C0.226,35.562 0.154,35.869 0.154,36.179L2.154,36.179ZM2.154,42.846L0.154,42.846C0.154,43.95 1.049,44.846 2.154,44.846L2.154,42.846ZM35.487,42.846L35.487,44.846C36.592,44.846 37.487,43.95 37.487,42.846L35.487,42.846ZM35.487,36.179L37.487,36.179C37.487,35.869 37.415,35.562 37.276,35.285L35.487,36.179ZM28.821,22.846L26.821,22.846C26.821,23.156 26.893,23.463 27.032,23.74L28.821,22.846ZM30.821,2.846C30.821,1.741 29.925,0.846 28.821,0.846C27.716,0.846 26.821,1.741 26.821,2.846L30.821,2.846ZM20.821,42.846C20.821,41.741 19.925,40.846 18.821,40.846C17.716,40.846 16.821,41.741 16.821,42.846L20.821,42.846ZM16.821,59.512C16.821,60.617 17.716,61.512 18.821,61.512C19.925,61.512 20.821,60.617 20.821,59.512L16.821,59.512ZM5.487,0.846C4.383,0.846 3.487,1.741 3.487,2.846C3.487,3.95 4.383,4.846 5.487,4.846L5.487,0.846ZM32.154,4.846C33.259,4.846 34.154,3.95 34.154,2.846C34.154,1.741 33.259,0.846 32.154,0.846L32.154,4.846ZM6.821,2.846L6.821,22.846L10.821,22.846L10.821,2.846L6.821,2.846ZM7.032,21.951L0.365,35.285L3.943,37.074L10.61,23.74L7.032,21.951ZM0.154,36.179L0.154,42.846L4.154,42.846L4.154,36.179L0.154,36.179ZM2.154,44.846L35.487,44.846L35.487,40.846L2.154,40.846L2.154,44.846ZM37.487,42.846L37.487,36.179L33.487,36.179L33.487,42.846L37.487,42.846ZM37.276,35.285L30.61,21.951L27.032,23.74L33.698,37.074L37.276,35.285ZM30.821,22.846L30.821,2.846L26.821,2.846L26.821,22.846L30.821,22.846ZM16.821,42.846L16.821,59.512L20.821,59.512L20.821,42.846L16.821,42.846ZM5.487,4.846L32.154,4.846L32.154,0.846L5.487,0.846L5.487,4.846Z" transform="rotate(90 18.821 31.179)" fill="#ABDCD8"/>
</svg>
