<svg width="48" height="50" viewBox="0 0 48 50" fill="none" xmlns="http://www.w3.org/2000/svg" xmlns:xlink="http://www.w3.org/1999/xlink">
<path d="M6.261,0.621L6.077,0.621C5.231,0.621 4.504,0.621 3.861,0.772C2.867,1.01 1.957,1.518 1.234,2.241C0.511,2.964 0.001,3.873 -0.237,4.867C-0.385,5.509 -0.385,6.233 -0.385,7.082L-0.385,16.312C-0.385,17.158 -0.385,17.885 -0.233,18.527C0.004,19.522 0.513,20.431 1.235,21.154C1.958,21.878 2.867,22.387 3.861,22.625C4.504,22.773 5.228,22.773 6.077,22.773L15.308,22.773C16.153,22.773 16.88,22.773 17.523,22.622C18.517,22.384 19.427,21.876 20.15,21.153C20.874,20.431 21.383,19.522 21.621,18.527C21.769,17.885 21.769,17.161 21.769,16.312L21.769,7.082C21.769,6.237 21.769,5.509 21.618,4.867C21.38,3.872 20.872,2.963 20.149,2.24C19.426,1.516 18.517,1.007 17.523,0.769C16.88,0.621 16.157,0.621 15.308,0.621L6.261,0.621ZM4.722,4.365C4.88,4.328 5.128,4.313 6.261,4.313L15.123,4.313C16.26,4.313 16.504,4.324 16.663,4.365C16.994,4.444 17.298,4.614 17.539,4.855C17.78,5.096 17.949,5.399 18.029,5.731C18.066,5.886 18.077,6.13 18.077,7.267L18.077,16.128C18.077,17.265 18.066,17.508 18.025,17.667C17.946,17.999 17.776,18.302 17.535,18.543C17.294,18.784 16.991,18.954 16.659,19.033C16.508,19.066 16.264,19.081 15.123,19.081L6.261,19.081C5.124,19.081 4.88,19.07 4.722,19.03C4.39,18.95 4.087,18.781 3.846,18.539C3.604,18.298 3.435,17.995 3.356,17.663C3.322,17.512 3.308,17.268 3.308,16.128L3.308,7.267C3.308,6.13 3.319,5.886 3.359,5.727C3.439,5.396 3.608,5.092 3.849,4.851C4.09,4.61 4.394,4.44 4.725,4.361L4.722,4.365ZM32.108,0.621L31.923,0.621C31.077,0.621 30.35,0.621 29.708,0.772C28.713,1.01 27.804,1.518 27.08,2.241C26.357,2.964 25.848,3.873 25.609,4.867C25.461,5.509 25.461,6.233 25.461,7.082L25.461,16.312C25.461,17.158 25.461,17.885 25.613,18.527C25.85,19.522 26.359,20.431 27.082,21.154C27.804,21.878 28.713,22.387 29.708,22.625C30.35,22.773 31.074,22.773 31.923,22.773L41.154,22.773C41.999,22.773 42.727,22.773 43.369,22.622C44.364,22.384 45.273,21.876 45.996,21.153C46.72,20.431 47.229,19.522 47.468,18.527C47.615,17.885 47.615,17.161 47.615,16.312L47.615,7.082C47.615,6.237 47.615,5.509 47.464,4.867C47.226,3.872 46.718,2.963 45.995,2.24C45.272,1.516 44.363,1.007 43.369,0.769C42.727,0.621 42.003,0.621 41.154,0.621L32.108,0.621ZM30.568,4.365C30.727,4.328 30.974,4.313 32.108,4.313L40.969,4.313C42.106,4.313 42.35,4.324 42.509,4.365C42.84,4.444 43.144,4.614 43.385,4.855C43.626,5.096 43.796,5.399 43.875,5.731C43.912,5.886 43.923,6.13 43.923,7.267L43.923,16.128C43.923,17.265 43.908,17.508 43.871,17.667C43.792,17.999 43.622,18.302 43.381,18.543C43.14,18.784 42.837,18.954 42.505,19.033C42.35,19.07 42.106,19.081 40.969,19.081L32.108,19.081C30.97,19.081 30.727,19.07 30.568,19.03C30.236,18.95 29.933,18.781 29.692,18.539C29.451,18.298 29.281,17.995 29.202,17.663C29.168,17.512 29.154,17.268 29.154,16.128L29.154,7.267C29.154,6.13 29.165,5.886 29.205,5.727C29.285,5.396 29.454,5.092 29.695,4.851C29.937,4.61 30.24,4.44 30.572,4.361L30.568,4.365ZM6.077,26.465L15.308,26.465C16.153,26.465 16.88,26.465 17.523,26.617C18.517,26.854 19.427,27.362 20.15,28.085C20.874,28.808 21.383,29.717 21.621,30.711C21.769,31.353 21.769,32.077 21.769,32.926L21.769,42.156C21.769,43.002 21.769,43.729 21.618,44.371C21.38,45.366 20.872,46.275 20.149,46.999C19.426,47.722 18.517,48.231 17.523,48.47C16.88,48.617 16.157,48.617 15.308,48.617L6.077,48.617C5.231,48.617 4.504,48.617 3.861,48.466C2.867,48.228 1.957,47.72 1.234,46.997C0.511,46.275 0.001,45.366 -0.237,44.371C-0.385,43.729 -0.385,43.005 -0.385,42.156L-0.385,32.926C-0.385,32.081 -0.385,31.353 -0.233,30.711C0.004,29.716 0.513,28.807 1.235,28.084C1.958,27.361 2.867,26.851 3.861,26.613C4.504,26.465 5.228,26.465 6.077,26.465ZM6.261,30.157C5.124,30.157 4.88,30.168 4.722,30.209C4.39,30.288 4.087,30.458 3.846,30.699C3.604,30.94 3.435,31.243 3.356,31.575C3.322,31.726 3.308,31.97 3.308,33.111L3.308,41.972C3.308,43.109 3.319,43.352 3.359,43.511C3.439,43.843 3.608,44.146 3.849,44.387C4.09,44.628 4.394,44.798 4.725,44.877C4.88,44.914 5.124,44.925 6.261,44.925L15.123,44.925C16.26,44.925 16.504,44.911 16.663,44.874C16.994,44.794 17.298,44.625 17.539,44.384C17.78,44.142 17.949,43.839 18.029,43.508C18.066,43.352 18.077,43.109 18.077,41.972L18.077,33.111C18.077,31.974 18.066,31.73 18.025,31.571C17.946,31.24 17.776,30.936 17.535,30.695C17.294,30.454 16.991,30.284 16.659,30.205C16.508,30.172 16.264,30.157 15.123,30.157L6.261,30.157ZM32.108,26.465L31.923,26.465C31.077,26.465 30.35,26.465 29.708,26.617C28.713,26.854 27.804,27.362 27.08,28.085C26.357,28.808 25.848,29.717 25.609,30.711C25.461,31.353 25.461,32.077 25.461,32.926L25.461,42.156C25.461,43.002 25.461,43.729 25.613,44.371C25.85,45.366 26.359,46.275 27.082,46.999C27.804,47.722 28.713,48.231 29.708,48.47C30.35,48.621 31.077,48.621 31.923,48.621L41.154,48.621C41.999,48.621 42.727,48.621 43.369,48.47C44.363,48.231 45.272,47.723 45.994,47C46.717,46.278 47.226,45.369 47.464,44.375C47.615,43.733 47.615,43.005 47.615,42.16L47.615,32.926C47.615,32.081 47.615,31.353 47.464,30.711C47.226,29.716 46.718,28.807 45.995,28.084C45.272,27.361 44.363,26.851 43.369,26.613C42.727,26.465 42.003,26.465 41.154,26.465L32.108,26.465ZM30.568,30.209C30.727,30.172 30.974,30.157 32.108,30.157L40.969,30.157C42.106,30.157 42.35,30.168 42.509,30.209C42.84,30.288 43.144,30.458 43.385,30.699C43.626,30.94 43.796,31.243 43.875,31.575C43.912,31.73 43.923,31.974 43.923,33.111L43.923,41.972C43.923,43.109 43.908,43.352 43.871,43.511C43.792,43.843 43.622,44.146 43.381,44.387C43.14,44.628 42.837,44.798 42.505,44.877C42.35,44.914 42.106,44.925 40.969,44.925L32.108,44.925C30.97,44.925 30.727,44.911 30.568,44.874C30.236,44.794 29.933,44.625 29.692,44.384C29.451,44.142 29.281,43.839 29.202,43.508C29.168,43.356 29.154,43.112 29.154,41.972L29.154,33.111C29.154,31.974 29.165,31.73 29.205,31.571C29.285,31.24 29.454,30.936 29.695,30.695C29.937,30.454 30.24,30.284 30.572,30.205L30.568,30.209Z" clip-rule="evenodd" fill-rule="evenodd" fill="#F8AE28"/>
</svg>
