<svg width="84" height="84" viewBox="0 0 84 84" fill="none" xmlns="http://www.w3.org/2000/svg" xmlns:xlink="http://www.w3.org/1999/xlink">
<path d="M42,83.667C36.236,83.667 30.819,82.573 25.75,80.384C20.68,78.195 16.271,75.227 12.521,71.48C8.771,67.733 5.802,63.323 3.616,58.251C1.43,53.178 0.336,47.762 0.333,42.001C0.33,36.24 1.425,30.823 3.616,25.751C5.808,20.678 8.776,16.269 12.521,12.521C16.265,8.774 20.675,5.806 25.75,3.617C30.825,1.428 36.241,0.334 42,0.334C47.758,0.334 53.175,1.428 58.25,3.617C63.325,5.806 67.734,8.774 71.479,12.521C75.223,16.269 78.193,20.678 80.387,25.751C82.582,30.823 83.675,36.24 83.666,42.001C83.658,47.762 82.564,53.178 80.383,58.251C78.202,63.323 75.234,67.733 71.479,71.48C67.723,75.227 63.314,78.196 58.25,80.388C53.186,82.58 47.769,83.673 42,83.667ZM42,75.334C51.305,75.334 59.187,72.105 65.645,65.646C72.104,59.188 75.333,51.306 75.333,42.001C75.333,32.695 72.104,24.813 65.645,18.355C59.187,11.896 51.305,8.667 42,8.667C32.694,8.667 24.812,11.896 18.354,18.355C11.896,24.813 8.666,32.695 8.666,42.001C8.666,51.306 11.896,59.188 18.354,65.646C24.812,72.105 32.694,75.334 42,75.334Z" fill="#ABDCD8"/>
</svg>
