<svg width="82" height="70" viewBox="0 0 82 70" fill="none" xmlns="http://www.w3.org/2000/svg" xmlns:xlink="http://www.w3.org/1999/xlink">
<path d="M74.375,-0.375L5.625,-0.375C3.967,-0.375 2.378,0.283 1.206,1.456C0.033,2.628 -0.625,4.217 -0.625,5.875L-0.625,62.125C-0.625,63.783 0.033,65.372 1.206,66.544C2.378,67.717 3.967,68.375 5.625,68.375L74.375,68.375C76.033,68.375 77.622,67.717 78.794,66.544C79.967,65.372 80.625,63.783 80.625,62.125L80.625,5.875C80.625,4.217 79.967,2.628 78.794,1.456C77.622,0.283 76.033,-0.375 74.375,-0.375ZM26.25,40.875C26.913,41.372 27.351,42.113 27.469,42.933C27.586,43.754 27.372,44.587 26.875,45.25C26.378,45.913 25.637,46.351 24.817,46.469C23.996,46.586 23.163,46.372 22.5,45.875L10,36.5C9.612,36.209 9.297,35.831 9.08,35.398C8.863,34.964 8.75,34.485 8.75,34C8.75,33.515 8.863,33.036 9.08,32.602C9.297,32.169 9.612,31.791 10,31.5L22.5,22.125C23.163,21.628 23.996,21.414 24.817,21.531C25.637,21.649 26.378,22.087 26.875,22.75C27.372,23.413 27.586,24.246 27.469,25.067C27.351,25.887 26.913,26.628 26.25,27.125L17.082,34L26.25,40.875ZM49.254,12.984L36.754,56.734C36.647,57.136 36.462,57.512 36.208,57.841C35.954,58.17 35.638,58.445 35.276,58.651C34.915,58.856 34.517,58.987 34.104,59.036C33.692,59.085 33.273,59.052 32.874,58.938C32.474,58.823 32.102,58.63 31.778,58.37C31.454,58.11 31.185,57.788 30.987,57.423C30.788,57.058 30.665,56.657 30.624,56.244C30.583,55.83 30.624,55.413 30.746,55.016L43.246,11.266C43.486,10.483 44.024,9.827 44.743,9.436C45.462,9.046 46.306,8.953 47.093,9.179C47.88,9.404 48.547,9.928 48.951,10.64C49.355,11.352 49.464,12.193 49.254,12.984ZM70,36.5L57.5,45.875C56.837,46.372 56.004,46.586 55.183,46.469C54.363,46.351 53.622,45.913 53.125,45.25C52.628,44.587 52.414,43.754 52.531,42.933C52.649,42.113 53.087,41.372 53.75,40.875L62.918,34L53.75,27.125C53.422,26.879 53.145,26.57 52.936,26.217C52.727,25.864 52.589,25.473 52.531,25.067C52.473,24.661 52.496,24.247 52.598,23.849C52.7,23.452 52.879,23.078 53.125,22.75C53.371,22.422 53.68,22.145 54.033,21.936C54.386,21.727 54.777,21.589 55.183,21.531C55.589,21.473 56.003,21.496 56.401,21.598C56.798,21.7 57.172,21.879 57.5,22.125L70,31.5C70.388,31.791 70.703,32.169 70.92,32.602C71.137,33.036 71.25,33.515 71.25,34C71.25,34.485 71.137,34.964 70.92,35.398C70.703,35.831 70.388,36.209 70,36.5Z" fill="#ABDCD8"/>
</svg>
