<svg width="84" height="84" viewBox="0 0 84 84" fill="none" xmlns="http://www.w3.org/2000/svg" xmlns:xlink="http://www.w3.org/1999/xlink">
<path d="M75.334,0.334L8.667,0.334C4.084,0.334 0.334,4.084 0.334,8.667L0.334,58.667C0.334,63.251 4.084,67.001 8.667,67.001L25.334,67.001L25.334,79.501C25.334,82.001 27.001,83.667 29.501,83.667L31.584,83.667C32.417,83.667 33.667,83.251 34.501,82.417L49.917,67.001L75.334,67.001C79.917,67.001 83.667,63.251 83.667,58.667L83.667,8.667C83.667,4.084 79.917,0.334 75.334,0.334ZM37.834,46.167L21.167,46.167L21.167,28.667L26.584,17.001L34.917,17.001L29.084,29.501L37.834,29.501L37.834,46.167ZM62.834,46.167L46.167,46.167L46.167,28.667L51.584,17.001L59.917,17.001L54.084,29.501L62.834,29.501L62.834,46.167Z" fill="#ABDCD8"/>
</svg>
