<svg width="84" height="84" viewBox="0 0 84 84" fill="none" xmlns="http://www.w3.org/2000/svg" xmlns:xlink="http://www.w3.org/1999/xlink">
<path d="M42,0.334C18.958,0.334 0.333,19.084 0.333,42.001C0.333,53.051 4.723,63.649 12.537,71.463C16.406,75.333 20.999,78.402 26.055,80.496C31.11,82.59 36.528,83.667 42,83.667C53.05,83.667 63.648,79.277 71.462,71.463C79.276,63.649 83.666,53.051 83.666,42.001C83.666,36.529 82.589,31.111 80.495,26.056C78.401,21 75.332,16.407 71.462,12.538C67.593,8.669 63,5.6 57.945,3.506C52.89,1.412 47.471,0.334 42,0.334ZM56.583,25.334C58.241,25.334 59.83,25.992 61.002,27.165C62.175,28.337 62.833,29.926 62.833,31.584C62.833,33.242 62.175,34.831 61.002,36.003C59.83,37.176 58.241,37.834 56.583,37.834C54.925,37.834 53.336,37.176 52.164,36.003C50.991,34.831 50.333,33.242 50.333,31.584C50.333,29.926 50.991,28.337 52.164,27.165C53.336,25.992 54.925,25.334 56.583,25.334ZM27.416,25.334C29.074,25.334 30.664,25.992 31.836,27.165C33.008,28.337 33.666,29.926 33.666,31.584C33.666,33.242 33.008,34.831 31.836,36.003C30.664,37.176 29.074,37.834 27.416,37.834C25.759,37.834 24.169,37.176 22.997,36.003C21.825,34.831 21.166,33.242 21.166,31.584C21.166,29.926 21.825,28.337 22.997,27.165C24.169,25.992 25.759,25.334 27.416,25.334ZM42,64.917C32.291,64.917 24.041,58.834 20.708,50.334L63.291,50.334C59.916,58.834 51.708,64.917 42,64.917Z" fill="#000000"/>
</svg>
