<svg width="54" height="62" viewBox="0 0 54 62" fill="none" xmlns="http://www.w3.org/2000/svg" xmlns:xlink="http://www.w3.org/1999/xlink">
<path d="M32.667,30L32.667,56.267C32.8,57.267 32.467,58.333 31.7,59.033C31.392,59.342 31.026,59.587 30.622,59.755C30.219,59.922 29.787,60.008 29.35,60.008C28.914,60.008 28.482,59.922 28.078,59.755C27.675,59.587 27.309,59.342 27,59.033L20.3,52.333C19.937,51.978 19.661,51.543 19.493,51.063C19.325,50.583 19.271,50.071 19.334,49.567L19.334,30L19.234,30L0.034,5.4C-0.508,4.705 -0.752,3.824 -0.646,2.95C-0.539,2.075 -0.091,1.278 0.6,0.733C1.234,0.267 1.934,0 2.667,0L49.334,0C50.067,0 50.767,0.267 51.4,0.733C52.092,1.278 52.54,2.075 52.646,2.95C52.753,3.824 52.508,4.705 51.967,5.4L32.767,30L32.667,30Z" fill="#ABDCD8"/>
</svg>
