<svg width="38" height="38" viewBox="0 0 38 38" fill="none" xmlns="http://www.w3.org/2000/svg" xmlns:xlink="http://www.w3.org/1999/xlink">
<path d="M32.467,0.785L4.467,0.785C3.406,0.785 2.389,1.207 1.638,1.957C0.888,2.707 0.467,3.724 0.467,4.785L0.467,32.785C0.467,33.846 0.888,34.863 1.638,35.614C2.389,36.364 3.406,36.785 4.467,36.785L32.467,36.785C33.528,36.785 34.545,36.364 35.295,35.614C36.045,34.863 36.467,33.846 36.467,32.785L36.467,4.785C36.467,3.724 36.045,2.707 35.295,1.957C34.545,1.207 33.528,0.785 32.467,0.785ZM32.467,32.785L4.467,32.785L4.467,4.785L32.467,4.785L32.467,32.785ZM12.467,28.785L8.467,28.785L8.467,8.785L12.467,8.785L12.467,28.785ZM20.467,28.785L16.467,28.785L16.467,14.785L20.467,14.785L20.467,28.785ZM28.467,28.785L24.467,28.785L24.467,18.785L28.467,18.785L28.467,28.785Z" fill="#000000"/>
</svg>
