<svg width="84" height="84" viewBox="0 0 84 84" fill="none" xmlns="http://www.w3.org/2000/svg" xmlns:xlink="http://www.w3.org/1999/xlink">
<path d="M42,83.665C36.236,83.665 30.819,82.571 25.75,80.382C20.68,78.193 16.271,75.225 12.521,71.478C8.771,67.731 5.802,63.321 3.616,58.249C1.43,53.176 0.336,47.76 0.333,41.999C0.33,36.238 1.425,30.821 3.616,25.749C5.808,20.676 8.776,16.267 12.521,12.52C16.265,8.772 20.675,5.804 25.75,3.615C30.825,1.426 36.241,0.332 42,0.332C47.758,0.332 53.175,1.426 58.25,3.615C63.325,5.804 67.734,8.772 71.479,12.52C75.223,16.267 78.193,20.676 80.387,25.749C82.582,30.821 83.675,36.238 83.666,41.999C83.658,47.76 82.564,53.176 80.383,58.249C78.202,63.321 75.234,67.731 71.479,71.478C67.723,75.225 63.314,78.194 58.25,80.386C53.186,82.578 47.769,83.671 42,83.665ZM42,75.332C51.305,75.332 59.187,72.103 65.645,65.644C72.104,59.186 75.333,51.304 75.333,41.999C75.333,32.693 72.104,24.811 65.645,18.353C59.187,11.895 51.305,8.665 42,8.665C32.694,8.665 24.812,11.895 18.354,18.353C11.896,24.811 8.666,32.693 8.666,41.999C8.666,51.304 11.896,59.186 18.354,65.644C24.812,72.103 32.694,75.332 42,75.332Z" fill="#ABDCD8"/>
</svg>
