<svg width="48" height="36" viewBox="0 0 48 36" fill="none" xmlns="http://www.w3.org/2000/svg" xmlns:xlink="http://www.w3.org/1999/xlink">
<path d="M23.587,10.5C18.731,10.5 14.795,13.858 14.795,18C14.795,22.142 18.731,25.5 23.587,25.5C28.442,25.5 32.379,22.142 32.379,18C32.379,13.858 28.442,10.5 23.587,10.5ZM18.312,18C18.312,15.515 20.674,13.5 23.587,13.5C26.5,13.5 28.862,15.515 28.862,18C28.862,20.485 26.5,22.5 23.587,22.5C20.674,22.5 18.312,20.485 18.312,18Z" clip-rule="evenodd" fill-rule="evenodd" fill="#D0D0D0"/>
<path d="M23.587,0.5C18.568,0.5 14.029,2.618 10.345,5.191C6.64,7.779 3.611,10.957 1.576,13.376L1.408,13.575C0.183,15.028 -0.826,16.223 -0.826,18C-0.826,19.777 0.183,20.972 1.408,22.425L1.576,22.624C3.611,25.043 6.64,28.221 10.345,30.809C14.029,33.382 18.568,35.5 23.587,35.5C28.606,35.5 33.145,33.382 36.829,30.809C40.534,28.221 43.563,25.043 45.598,22.624L45.766,22.425C46.991,20.972 48,19.777 48,18C48,16.223 46.991,15.028 45.766,13.575L45.598,13.376C43.563,10.957 40.534,7.779 36.829,5.191C33.145,2.618 28.606,0.5 23.587,0.5ZM4.432,15.126C6.377,12.815 9.2,9.868 12.573,7.513C15.965,5.143 19.728,3.5 23.587,3.5C27.445,3.5 31.209,5.143 34.601,7.513C37.974,9.868 40.797,12.815 42.741,15.126C44.204,16.864 44.483,17.283 44.483,18C44.483,18.717 44.204,19.136 42.741,20.874C40.797,23.185 37.974,26.132 34.601,28.487C31.209,30.857 27.445,32.5 23.587,32.5C19.728,32.5 15.965,30.857 12.573,28.487C9.2,26.132 6.377,23.185 4.432,20.874C2.97,19.136 2.691,18.717 2.691,18C2.691,17.283 2.97,16.864 4.432,15.126Z" clip-rule="evenodd" fill-rule="evenodd" fill="#D0D0D0"/>
</svg>
