<svg width="46" height="46" viewBox="0 0 46 46" fill="none" xmlns="http://www.w3.org/2000/svg" xmlns:xlink="http://www.w3.org/1999/xlink">
<path d="M41,44.5L25.25,28.75C24,29.75 22.563,30.542 20.938,31.125C19.313,31.708 17.583,32 15.75,32C11.208,32 7.365,30.427 4.22,27.28C1.075,24.133 -0.498,20.29 -0.5,15.75C-0.502,11.21 1.072,7.367 4.22,4.22C7.368,1.073 11.212,-0.5 15.75,-0.5C20.288,-0.5 24.133,1.073 27.283,4.22C30.433,7.367 32.005,11.21 32,15.75C32,17.583 31.708,19.313 31.125,20.938C30.542,22.562 29.75,24 28.75,25.25L44.5,41L41,44.5ZM15.75,27C18.875,27 21.532,25.907 23.72,23.72C25.908,21.533 27.002,18.877 27,15.75C26.998,12.623 25.905,9.967 23.72,7.783C21.535,5.597 18.878,4.503 15.75,4.5C12.622,4.497 9.966,5.591 7.783,7.783C5.599,9.974 4.505,12.63 4.5,15.75C4.495,18.87 5.589,21.527 7.783,23.72C9.976,25.913 12.632,27.007 15.75,27Z" fill="#ABDCD8"/>
</svg>
