<svg width="24" height="26" viewBox="0 0 24 26" fill="none" xmlns="http://www.w3.org/2000/svg" xmlns:xlink="http://www.w3.org/1999/xlink">
<path d="M21.737,24.05C22.182,24.496 22.904,24.497 23.349,24.052C23.795,23.607 23.796,22.885 23.351,22.439L21.737,24.05ZM18.235,17.314C17.79,16.869 17.068,16.868 16.622,17.313C16.177,17.758 16.176,18.48 16.621,18.926L18.235,17.314ZM0.877,11.271L-0.263,11.271L0.877,11.271ZM10.57,1.578L10.57,0.438L10.57,1.578ZM23.351,22.439L18.235,17.314L16.621,18.926L21.737,24.05L23.351,22.439ZM16.621,18.926L21.737,24.05L23.351,22.439L18.235,17.314L16.621,18.926ZM19.123,11.271C19.123,13.539 18.221,15.715 16.618,17.319L18.23,18.931C20.262,16.9 21.403,14.144 21.403,11.271L19.123,11.271ZM16.618,17.319C15.014,18.923 12.838,19.824 10.57,19.824L10.57,22.105C13.443,22.105 16.199,20.963 18.23,18.931L16.618,17.319ZM10.57,19.824C8.302,19.824 6.126,18.923 4.522,17.319L2.91,18.931C4.941,20.963 7.697,22.105 10.57,22.105L10.57,19.824ZM4.522,17.319C2.918,15.715 2.017,13.539 2.017,11.271L-0.263,11.271C-0.263,14.144 0.878,16.9 2.91,18.931L4.522,17.319ZM2.017,11.271C2.017,9.003 2.918,6.827 4.522,5.223L2.91,3.611C0.878,5.642 -0.263,8.398 -0.263,11.271L2.017,11.271ZM4.522,5.223C6.126,3.62 8.302,2.718 10.57,2.718L10.57,0.438C7.697,0.438 4.941,1.579 2.91,3.611L4.522,5.223ZM10.57,2.718C12.838,2.718 15.014,3.62 16.618,5.223L18.23,3.611C16.199,1.579 13.443,0.438 10.57,0.438L10.57,2.718ZM16.618,5.223C18.221,6.827 19.123,9.003 19.123,11.271L21.403,11.271C21.403,8.398 20.262,5.642 18.23,3.611L16.618,5.223Z" fill="#ABABAB"/>
</svg>
