<svg width="82" height="82" viewBox="0 0 82 82" fill="none" xmlns="http://www.w3.org/2000/svg" xmlns:xlink="http://www.w3.org/1999/xlink">
<path d="M6.833,82C6.833,82 0,82 0,75.167C0,68.333 6.833,47.833 41,47.833C75.167,47.833 82,68.333 82,75.167C82,82 75.167,82 75.167,82L6.833,82ZM41,41C46.437,41 51.651,38.84 55.496,34.996C59.34,31.151 61.5,25.937 61.5,20.5C61.5,15.063 59.34,9.849 55.496,6.004C51.651,2.16 46.437,0 41,0C35.563,0 30.349,2.16 26.504,6.004C22.66,9.849 20.5,15.063 20.5,20.5C20.5,25.937 22.66,31.151 26.504,34.996C30.349,38.84 35.563,41 41,41Z" fill="#000000"/>
</svg>
