<svg width="46" height="44" viewBox="0 0 46 44" fill="none" xmlns="http://www.w3.org/2000/svg" xmlns:xlink="http://www.w3.org/1999/xlink">
<path d="M32.43,2.785L31.015,1.371L32.43,2.785ZM36.43,1.128L36.43,-0.872L36.43,1.128ZM42.086,6.785L44.086,6.785L42.086,6.785ZM40.43,10.785L41.844,12.199L41.844,12.199L40.43,10.785ZM13.43,37.785L13.956,39.715C14.292,39.623 14.598,39.445 14.844,39.199L13.43,37.785ZM2.43,40.785L0.5,40.259C0.311,40.951 0.508,41.692 1.015,42.199C1.523,42.707 2.263,42.903 2.956,42.715L2.43,40.785ZM5.43,29.785L4.015,28.371C3.769,28.617 3.592,28.923 3.5,29.259L5.43,29.785ZM33.844,4.199C34.183,3.86 34.587,3.59 35.03,3.407L33.499,-0.289C32.57,0.096 31.726,0.66 31.015,1.371L33.844,4.199ZM35.03,3.407C35.474,3.223 35.949,3.128 36.43,3.128L36.43,-0.872C35.424,-0.872 34.428,-0.674 33.499,-0.289L35.03,3.407ZM36.43,3.128C36.91,3.128 37.385,3.223 37.829,3.407L39.36,-0.289C38.431,-0.674 37.435,-0.872 36.43,-0.872L36.43,3.128ZM37.829,3.407C38.273,3.59 38.676,3.86 39.015,4.199L41.844,1.371C41.133,0.66 40.289,0.096 39.36,-0.289L37.829,3.407ZM39.015,4.199C39.355,4.539 39.624,4.942 39.808,5.386L43.504,3.855C43.119,2.926 42.555,2.082 41.844,1.371L39.015,4.199ZM39.808,5.386C39.992,5.829 40.086,6.305 40.086,6.785L44.086,6.785C44.086,5.78 43.888,4.784 43.504,3.855L39.808,5.386ZM40.086,6.785C40.086,7.265 39.992,7.741 39.808,8.185L43.504,9.715C43.888,8.786 44.086,7.791 44.086,6.785L40.086,6.785ZM39.808,8.185C39.624,8.628 39.355,9.031 39.015,9.371L41.844,12.199C42.555,11.488 43.119,10.644 43.504,9.715L39.808,8.185ZM39.015,9.371L12.015,36.371L14.844,39.199L41.844,12.199L39.015,9.371ZM12.903,35.856L1.903,38.856L2.956,42.715L13.956,39.715L12.903,35.856ZM4.359,41.311L7.359,30.311L3.5,29.259L0.5,40.259L4.359,41.311ZM6.844,31.199L33.844,4.199L31.015,1.371L4.015,28.371L6.844,31.199Z" fill="#000000"/>
</svg>
