<svg width="22" height="14" viewBox="0 0 22 14" fill="none" xmlns="http://www.w3.org/2000/svg" xmlns:xlink="http://www.w3.org/1999/xlink">
<path d="M11,13C10.737,13.001 10.476,12.951 10.233,12.851C9.989,12.752 9.767,12.605 9.58,12.42L1.58,4.42C1.204,4.043 0.992,3.532 0.992,3C0.992,2.467 1.204,1.956 1.58,1.58C1.957,1.203 2.468,0.992 3,0.992C3.533,0.992 4.044,1.203 4.42,1.58L11,8.18L17.58,1.6C17.963,1.272 18.455,1.101 18.958,1.12C19.462,1.14 19.939,1.349 20.295,1.705C20.652,2.061 20.86,2.538 20.88,3.042C20.899,3.545 20.728,4.037 20.4,4.42L12.4,12.42C12.028,12.789 11.525,12.998 11,13Z" fill="#A098AE" stroke="#A098AE" stroke-width="1" stroke-miterlimit="3.999327"/>
</svg>
