<svg width="76" height="84" viewBox="0 0 76 84" fill="none" xmlns="http://www.w3.org/2000/svg" xmlns:xlink="http://www.w3.org/1999/xlink">
<path d="M58.833,45.999L38,45.999L38,66.833L58.833,66.833L58.833,45.999ZM54.667,0.166L54.667,8.499L21.333,8.499L21.333,0.166L13,0.166L13,8.499L8.833,8.499C4.208,8.499 0.542,12.249 0.542,16.833L0.5,75.166C0.5,77.376 1.378,79.496 2.941,81.059C4.504,82.621 6.623,83.499 8.833,83.499L67.167,83.499C71.75,83.499 75.5,79.749 75.5,75.166L75.5,16.833C75.5,12.249 71.75,8.499 67.167,8.499L63,8.499L63,0.166L54.667,0.166ZM67.167,75.166L8.833,75.166L8.833,29.333L67.167,29.333L67.167,75.166Z" fill="#ABDCD8"/>
</svg>
