<svg width="88" height="88" viewBox="0 0 88 88" fill="none" xmlns="http://www.w3.org/2000/svg" xmlns:xlink="http://www.w3.org/1999/xlink">
<path d="M44,0.25C32.44,0.39 21.394,5.045 13.219,13.219C5.045,21.394 0.39,32.44 0.25,44C0.39,55.56 5.045,66.606 13.219,74.781C21.394,82.955 32.44,87.61 44,87.75C55.56,87.61 66.606,82.955 74.781,74.781C82.955,66.606 87.61,55.56 87.75,44C87.61,32.44 82.955,21.394 74.781,13.219C66.606,5.045 55.56,0.39 44,0.25ZM69,47.125L47.125,47.125L47.125,69L40.875,69L40.875,47.125L19,47.125L19,40.875L40.875,40.875L40.875,19L47.125,19L47.125,40.875L69,40.875L69,47.125Z" fill="#000000"/>
</svg>
