<svg width="36" height="36" viewBox="0 0 36 36" fill="none" xmlns="http://www.w3.org/2000/svg" xmlns:xlink="http://www.w3.org/1999/xlink">
<path d="M4.985,0L4.846,0C4.212,0 3.666,0 3.185,0.114C2.439,0.292 1.757,0.673 1.214,1.215C0.672,1.757 0.29,2.439 0.111,3.184C0,3.666 0,4.209 0,4.846L0,11.768C0,12.402 0,12.948 0.114,13.43C0.292,14.176 0.673,14.858 1.215,15.4C1.757,15.943 2.439,16.324 3.185,16.503C3.666,16.614 4.209,16.614 4.846,16.614L11.769,16.614C12.403,16.614 12.949,16.614 13.431,16.501C14.177,16.322 14.859,15.941 15.401,15.399C15.944,14.857 16.326,14.175 16.505,13.43C16.615,12.948 16.615,12.405 16.615,11.768L16.615,4.846C16.615,4.212 16.615,3.666 16.502,3.184C16.324,2.438 15.942,1.757 15.4,1.214C14.858,0.672 14.177,0.29 13.431,0.111C12.949,0 12.406,0 11.769,0L4.985,0ZM3.83,2.808C3.949,2.78 4.134,2.769 4.985,2.769L11.631,2.769C12.484,2.769 12.666,2.777 12.786,2.808C13.034,2.867 13.262,2.994 13.443,3.175C13.623,3.356 13.751,3.584 13.81,3.832C13.838,3.949 13.846,4.131 13.846,4.984L13.846,11.63C13.846,12.483 13.838,12.665 13.807,12.785C13.748,13.033 13.621,13.261 13.44,13.442C13.259,13.622 13.032,13.75 12.783,13.809C12.669,13.834 12.486,13.845 11.631,13.845L4.985,13.845C4.132,13.845 3.949,13.837 3.83,13.806C3.581,13.747 3.354,13.62 3.173,13.439C2.992,13.258 2.865,13.031 2.805,12.782C2.78,12.668 2.769,12.486 2.769,11.63L2.769,4.984C2.769,4.131 2.778,3.949 2.808,3.83C2.867,3.581 2.995,3.353 3.176,3.173C3.356,2.992 3.584,2.864 3.833,2.805L3.83,2.808ZM24.369,0L24.231,0C23.597,0 23.051,0 22.569,0.114C21.823,0.292 21.141,0.673 20.599,1.215C20.056,1.757 19.674,2.439 19.495,3.184C19.385,3.666 19.385,4.209 19.385,4.846L19.385,11.768C19.385,12.402 19.385,12.948 19.498,13.43C19.676,14.176 20.058,14.858 20.6,15.4C21.142,15.943 21.823,16.324 22.569,16.503C23.051,16.614 23.594,16.614 24.231,16.614L31.154,16.614C31.788,16.614 32.334,16.614 32.815,16.501C33.561,16.322 34.243,15.941 34.786,15.399C35.328,14.857 35.71,14.175 35.889,13.43C36,12.948 36,12.405 36,11.768L36,4.846C36,4.212 36,3.666 35.886,3.184C35.708,2.438 35.327,1.757 34.785,1.214C34.243,0.672 33.561,0.29 32.815,0.111C32.334,0 31.791,0 31.154,0L24.369,0ZM23.214,2.808C23.334,2.78 23.519,2.769 24.369,2.769L31.015,2.769C31.868,2.769 32.051,2.777 32.17,2.808C32.419,2.867 32.646,2.994 32.827,3.175C33.008,3.356 33.135,3.584 33.195,3.832C33.222,3.949 33.231,4.131 33.231,4.984L33.231,11.63C33.231,12.483 33.22,12.665 33.192,12.785C33.133,13.033 33.005,13.261 32.824,13.442C32.644,13.622 32.416,13.75 32.167,13.809C32.051,13.837 31.868,13.845 31.015,13.845L24.369,13.845C23.516,13.845 23.334,13.837 23.214,13.806C22.966,13.747 22.738,13.62 22.557,13.439C22.377,13.258 22.249,13.031 22.19,12.782C22.165,12.668 22.154,12.486 22.154,11.63L22.154,4.984C22.154,4.131 22.162,3.949 22.193,3.83C22.252,3.581 22.379,3.353 22.56,3.173C22.741,2.992 22.968,2.864 23.217,2.805L23.214,2.808ZM4.846,19.383L11.769,19.383C12.403,19.383 12.949,19.383 13.431,19.497C14.177,19.675 14.859,20.056 15.401,20.598C15.944,21.14 16.326,21.822 16.505,22.567C16.615,23.049 16.615,23.592 16.615,24.229L16.615,31.151C16.615,31.786 16.615,32.331 16.502,32.813C16.324,33.559 15.942,34.241 15.4,34.783C14.858,35.326 14.177,35.708 13.431,35.886C12.949,35.997 12.406,35.997 11.769,35.997L4.846,35.997C4.212,35.997 3.666,35.997 3.185,35.884C2.439,35.705 1.757,35.324 1.214,34.782C0.672,34.24 0.29,33.559 0.111,32.813C0,32.331 0,31.788 0,31.151L0,24.229C0,23.595 0,23.049 0.114,22.567C0.292,21.822 0.673,21.14 1.215,20.597C1.757,20.055 2.439,19.673 3.185,19.494C3.666,19.383 4.209,19.383 4.846,19.383ZM4.985,22.152C4.132,22.152 3.949,22.16 3.83,22.191C3.581,22.25 3.354,22.378 3.173,22.558C2.992,22.739 2.865,22.967 2.805,23.215C2.78,23.329 2.769,23.512 2.769,24.367L2.769,31.013C2.769,31.866 2.778,32.049 2.808,32.168C2.867,32.416 2.995,32.644 3.176,32.825C3.356,33.006 3.584,33.133 3.833,33.192C3.949,33.22 4.132,33.228 4.985,33.228L11.631,33.228C12.484,33.228 12.666,33.217 12.786,33.189C13.034,33.13 13.262,33.003 13.443,32.822C13.623,32.641 13.751,32.414 13.81,32.165C13.838,32.049 13.846,31.866 13.846,31.013L13.846,24.367C13.846,23.514 13.838,23.332 13.807,23.213C13.748,22.964 13.621,22.737 13.44,22.556C13.259,22.375 13.032,22.248 12.783,22.188C12.669,22.163 12.486,22.152 11.631,22.152L4.985,22.152ZM24.369,19.383L24.231,19.383C23.597,19.383 23.051,19.383 22.569,19.497C21.823,19.675 21.141,20.056 20.599,20.598C20.056,21.14 19.674,21.822 19.495,22.567C19.385,23.049 19.385,23.592 19.385,24.229L19.385,31.151C19.385,31.786 19.385,32.331 19.498,32.813C19.676,33.559 20.058,34.241 20.6,34.783C21.142,35.326 21.823,35.708 22.569,35.886C23.051,36 23.597,36 24.231,36L31.154,36C31.788,36 32.334,36 32.815,35.886C33.561,35.708 34.242,35.326 34.784,34.784C35.326,34.242 35.708,33.561 35.886,32.816C36,32.334 36,31.788 36,31.154L36,24.229C36,23.595 36,23.049 35.886,22.567C35.708,21.822 35.327,21.14 34.785,20.597C34.243,20.055 33.561,19.673 32.815,19.494C32.334,19.383 31.791,19.383 31.154,19.383L24.369,19.383ZM23.214,22.191C23.334,22.163 23.519,22.152 24.369,22.152L31.015,22.152C31.868,22.152 32.051,22.16 32.17,22.191C32.419,22.25 32.646,22.378 32.827,22.558C33.008,22.739 33.135,22.967 33.195,23.215C33.222,23.332 33.231,23.514 33.231,24.367L33.231,31.013C33.231,31.866 33.22,32.049 33.192,32.168C33.133,32.416 33.005,32.644 32.824,32.825C32.644,33.006 32.416,33.133 32.167,33.192C32.051,33.22 31.868,33.228 31.015,33.228L24.369,33.228C23.516,33.228 23.334,33.217 23.214,33.189C22.966,33.13 22.738,33.003 22.557,32.822C22.377,32.641 22.249,32.414 22.19,32.165C22.165,32.051 22.154,31.869 22.154,31.013L22.154,24.367C22.154,23.514 22.162,23.332 22.193,23.213C22.252,22.964 22.379,22.737 22.56,22.556C22.741,22.375 22.968,22.248 23.217,22.188L23.214,22.191Z" clip-rule="evenodd" fill-rule="evenodd" fill="#38D9BA"/>
</svg>
