<svg width="16" height="28" viewBox="0 0 16 28" fill="none" xmlns="http://www.w3.org/2000/svg" xmlns:xlink="http://www.w3.org/1999/xlink">
<path d="M1.247,15.462C0.872,15.087 0.662,14.579 0.662,14.048C0.662,13.518 0.872,13.01 1.247,12.634L12.561,1.32C12.746,1.129 12.967,0.977 13.211,0.872C13.455,0.767 13.717,0.712 13.983,0.71C14.248,0.708 14.512,0.758 14.757,0.859C15.003,0.959 15.226,1.108 15.414,1.296C15.602,1.483 15.751,1.707 15.851,1.953C15.952,2.198 16.002,2.462 16,2.727C15.998,2.993 15.942,3.255 15.838,3.499C15.733,3.743 15.58,3.964 15.389,4.148L5.489,14.048L15.389,23.948C15.754,24.326 15.955,24.831 15.951,25.355C15.946,25.88 15.736,26.381 15.365,26.752C14.994,27.123 14.493,27.333 13.968,27.338C13.444,27.342 12.939,27.141 12.561,26.776L1.247,15.462Z" clip-rule="evenodd" fill-rule="evenodd" transform="rotate(-360 8.331 14.024)" fill="#000000"/>
</svg>
